%TF.GenerationSoftware,KiCad,Pcbnew,(6.0.8)*%
%TF.CreationDate,2023-02-14T18:00:54+07:00*%
%TF.ProjectId,dongle_256o,646f6e67-6c65-45f3-9235-366f2e6b6963,rev?*%
%TF.SameCoordinates,Original*%
%TF.FileFunction,Soldermask,Bot*%
%TF.FilePolarity,Negative*%
%FSLAX46Y46*%
G04 Gerber Fmt 4.6, Leading zero omitted, Abs format (unit mm)*
G04 Created by KiCad (PCBNEW (6.0.8)) date 2023-02-14 18:00:54*
%MOMM*%
%LPD*%
G01*
G04 APERTURE LIST*
G04 Aperture macros list*
%AMRoundRect*
0 Rectangle with rounded corners*
0 $1 Rounding radius*
0 $2 $3 $4 $5 $6 $7 $8 $9 X,Y pos of 4 corners*
0 Add a 4 corners polygon primitive as box body*
4,1,4,$2,$3,$4,$5,$6,$7,$8,$9,$2,$3,0*
0 Add four circle primitives for the rounded corners*
1,1,$1+$1,$2,$3*
1,1,$1+$1,$4,$5*
1,1,$1+$1,$6,$7*
1,1,$1+$1,$8,$9*
0 Add four rect primitives between the rounded corners*
20,1,$1+$1,$2,$3,$4,$5,0*
20,1,$1+$1,$4,$5,$6,$7,0*
20,1,$1+$1,$6,$7,$8,$9,0*
20,1,$1+$1,$8,$9,$2,$3,0*%
G04 Aperture macros list end*
%ADD10R,1.800000X1.524000*%
%ADD11R,1.600000X1.600000*%
%ADD12O,1.600000X1.600000*%
%ADD13C,5.000000*%
%ADD14C,1.700000*%
%ADD15R,1.524000X1.000000*%
%ADD16R,5.100000X1.200000*%
%ADD17RoundRect,1.250000X-1.250000X1.250000X-1.250000X-1.250000X1.250000X-1.250000X1.250000X1.250000X0*%
G04 APERTURE END LIST*
D10*
%TO.C,U2*%
X148830000Y-72645000D03*
X164070000Y-77725000D03*
X164070000Y-80265000D03*
X164070000Y-59945000D03*
X164070000Y-62485000D03*
X164070000Y-65025000D03*
X164070000Y-67565000D03*
X164070000Y-70105000D03*
X164070000Y-72645000D03*
X148830000Y-70105000D03*
X148830000Y-67565000D03*
X164070000Y-75185000D03*
X148830000Y-80265000D03*
X148830000Y-77725000D03*
X148830000Y-75185000D03*
X164070000Y-82805000D03*
X148830000Y-82805000D03*
X148830000Y-65025000D03*
X148830000Y-62485000D03*
X150890000Y-54865000D03*
X162010000Y-54865000D03*
X148830000Y-59945000D03*
%TD*%
D11*
%TO.C,D17*%
X125718000Y-94372500D03*
D12*
X125718000Y-86752500D03*
%TD*%
D13*
%TO.C,SW28*%
X96730000Y-128220250D03*
D14*
X94130000Y-122470250D03*
X99330000Y-122470250D03*
X101130000Y-123520250D03*
X92330000Y-123520250D03*
%TD*%
D11*
%TO.C,D30*%
X145000000Y-132867500D03*
D12*
X145000000Y-125247500D03*
%TD*%
D11*
%TO.C,D12*%
X145038000Y-75125000D03*
D12*
X145038000Y-67505000D03*
%TD*%
D11*
%TO.C,D21*%
X87078000Y-113750000D03*
D12*
X87078000Y-106130000D03*
%TD*%
D11*
%TO.C,D22*%
X106398000Y-113750000D03*
D12*
X106398000Y-106130000D03*
%TD*%
D13*
%TO.C,SW8*%
X58090000Y-70423000D03*
D14*
X55490000Y-64673000D03*
X60690000Y-64673000D03*
X53690000Y-65723000D03*
X62490000Y-65723000D03*
%TD*%
D13*
%TO.C,SW24*%
X135370000Y-108954500D03*
D14*
X137970000Y-103204500D03*
X132770000Y-103204500D03*
X130970000Y-104254500D03*
X139770000Y-104254500D03*
%TD*%
D11*
%TO.C,D5*%
X125722000Y-55877500D03*
D12*
X125722000Y-48257500D03*
%TD*%
D13*
%TO.C,SW27*%
X77410000Y-128220250D03*
D14*
X74810000Y-122470250D03*
X80010000Y-122470250D03*
X73010000Y-123520250D03*
X81810000Y-123520250D03*
%TD*%
D11*
%TO.C,D27*%
X87054000Y-132867500D03*
D12*
X87054000Y-125247500D03*
%TD*%
D13*
%TO.C,SW29*%
X116050000Y-128220250D03*
D14*
X113450000Y-122470250D03*
X118650000Y-122470250D03*
X120450000Y-123520250D03*
X111650000Y-123520250D03*
%TD*%
D11*
%TO.C,D20*%
X67758000Y-113750000D03*
D12*
X67758000Y-106130000D03*
%TD*%
D13*
%TO.C,SW10*%
X96730000Y-70423000D03*
D14*
X99330000Y-64673000D03*
X94130000Y-64673000D03*
X101130000Y-65723000D03*
X92330000Y-65723000D03*
%TD*%
D11*
%TO.C,D4*%
X106406000Y-55877500D03*
D12*
X106406000Y-48257500D03*
%TD*%
D13*
%TO.C,SW3*%
X77410000Y-51157250D03*
D14*
X74810000Y-45407250D03*
X80010000Y-45407250D03*
X73010000Y-46457250D03*
X81810000Y-46457250D03*
%TD*%
D11*
%TO.C,D29*%
X125710000Y-132867500D03*
D12*
X125710000Y-125247500D03*
%TD*%
D11*
%TO.C,D16*%
X106398000Y-94372500D03*
D12*
X106398000Y-86752500D03*
%TD*%
D13*
%TO.C,SW11*%
X116050000Y-70423000D03*
D14*
X113450000Y-64673000D03*
X118650000Y-64673000D03*
X120450000Y-65723000D03*
X111650000Y-65723000D03*
%TD*%
D11*
%TO.C,D18*%
X145038000Y-94372500D03*
D12*
X145038000Y-86752500D03*
%TD*%
D11*
%TO.C,D26*%
X67726000Y-132867500D03*
D12*
X67726000Y-125247500D03*
%TD*%
D13*
%TO.C,SW4*%
X96730000Y-51157250D03*
D14*
X99330000Y-45407250D03*
X94130000Y-45407250D03*
X101130000Y-46457250D03*
X92330000Y-46457250D03*
%TD*%
D11*
%TO.C,D3*%
X87090000Y-55877500D03*
D12*
X87090000Y-48257500D03*
%TD*%
D13*
%TO.C,SW17*%
X116050000Y-89688750D03*
D14*
X118650000Y-83938750D03*
X113450000Y-83938750D03*
X111650000Y-84988750D03*
X120450000Y-84988750D03*
%TD*%
D13*
%TO.C,SW19*%
X38770000Y-108954500D03*
D14*
X41370000Y-103204500D03*
X36170000Y-103204500D03*
X34370000Y-104254500D03*
X43170000Y-104254500D03*
%TD*%
D13*
%TO.C,SW26*%
X58090000Y-128220250D03*
D14*
X60690000Y-122470250D03*
X55490000Y-122470250D03*
X53690000Y-123520250D03*
X62490000Y-123520250D03*
%TD*%
D13*
%TO.C,SW1*%
X38770000Y-51157250D03*
D14*
X36170000Y-45407250D03*
X41370000Y-45407250D03*
X43170000Y-46457250D03*
X34370000Y-46457250D03*
%TD*%
D11*
%TO.C,D7*%
X48438000Y-75125000D03*
D12*
X48438000Y-67505000D03*
%TD*%
D11*
%TO.C,D11*%
X125718000Y-75125000D03*
D12*
X125718000Y-67505000D03*
%TD*%
D13*
%TO.C,SW2*%
X58090000Y-51157250D03*
D14*
X60690000Y-45407250D03*
X55490000Y-45407250D03*
X53690000Y-46457250D03*
X62490000Y-46457250D03*
%TD*%
D11*
%TO.C,D14*%
X67758000Y-94372500D03*
D12*
X67758000Y-86752500D03*
%TD*%
D13*
%TO.C,SW12*%
X135370000Y-70423000D03*
D14*
X132770000Y-64673000D03*
X137970000Y-64673000D03*
X130970000Y-65723000D03*
X139770000Y-65723000D03*
%TD*%
D13*
%TO.C,SW23*%
X116050000Y-108954500D03*
D14*
X113450000Y-103204500D03*
X118650000Y-103204500D03*
X111650000Y-104254500D03*
X120450000Y-104254500D03*
%TD*%
D13*
%TO.C,SW5*%
X116050000Y-51157250D03*
D14*
X113450000Y-45407250D03*
X118650000Y-45407250D03*
X120450000Y-46457250D03*
X111650000Y-46457250D03*
%TD*%
D13*
%TO.C,SW6*%
X135370000Y-51157250D03*
D14*
X132770000Y-45407250D03*
X137970000Y-45407250D03*
X130970000Y-46457250D03*
X139770000Y-46457250D03*
%TD*%
D11*
%TO.C,D25*%
X48398000Y-132867500D03*
D12*
X48398000Y-125247500D03*
%TD*%
D13*
%TO.C,SW14*%
X58090000Y-89688750D03*
D14*
X60690000Y-83938750D03*
X55490000Y-83938750D03*
X62490000Y-84988750D03*
X53690000Y-84988750D03*
%TD*%
D13*
%TO.C,SW20*%
X58090000Y-108954500D03*
D14*
X60690000Y-103204500D03*
X55490000Y-103204500D03*
X62490000Y-104254500D03*
X53690000Y-104254500D03*
%TD*%
D11*
%TO.C,D9*%
X87078000Y-75125000D03*
D12*
X87078000Y-67505000D03*
%TD*%
D11*
%TO.C,D19*%
X48438000Y-113750000D03*
D12*
X48438000Y-106130000D03*
%TD*%
D11*
%TO.C,D15*%
X87078000Y-94372500D03*
D12*
X87078000Y-86752500D03*
%TD*%
D11*
%TO.C,D2*%
X67774000Y-55877500D03*
D12*
X67774000Y-48257500D03*
%TD*%
D11*
%TO.C,D13*%
X48438000Y-94372500D03*
D12*
X48438000Y-86752500D03*
%TD*%
D13*
%TO.C,SW15*%
X77410000Y-89688750D03*
D14*
X74810000Y-83938750D03*
X80010000Y-83938750D03*
X73010000Y-84988750D03*
X81810000Y-84988750D03*
%TD*%
D13*
%TO.C,SW30*%
X135370000Y-128220250D03*
D14*
X132770000Y-122470250D03*
X137970000Y-122470250D03*
X130970000Y-123520250D03*
X139770000Y-123520250D03*
%TD*%
D13*
%TO.C,SW18*%
X135370000Y-89688750D03*
D14*
X132770000Y-83938750D03*
X137970000Y-83938750D03*
X139770000Y-84988750D03*
X130970000Y-84988750D03*
%TD*%
D11*
%TO.C,SW31*%
X163500000Y-104475000D03*
D12*
X163500000Y-101935000D03*
X155880000Y-101935000D03*
X155880000Y-104475000D03*
%TD*%
D11*
%TO.C,D6*%
X144900000Y-61710000D03*
D12*
X144900000Y-54090000D03*
%TD*%
D13*
%TO.C,SW9*%
X77410000Y-70423000D03*
D14*
X80010000Y-64673000D03*
X74810000Y-64673000D03*
X81810000Y-65723000D03*
X73010000Y-65723000D03*
%TD*%
D13*
%TO.C,SW21*%
X77410000Y-108954500D03*
D14*
X80010000Y-103204500D03*
X74810000Y-103204500D03*
X73010000Y-104254500D03*
X81810000Y-104254500D03*
%TD*%
D13*
%TO.C,SW16*%
X96730000Y-89688750D03*
D14*
X94130000Y-83938750D03*
X99330000Y-83938750D03*
X101130000Y-84988750D03*
X92330000Y-84988750D03*
%TD*%
D11*
%TO.C,D28*%
X106382000Y-132867500D03*
D12*
X106382000Y-125247500D03*
%TD*%
D13*
%TO.C,SW13*%
X38770000Y-89688750D03*
D14*
X41370000Y-83938750D03*
X36170000Y-83938750D03*
X43170000Y-84988750D03*
X34370000Y-84988750D03*
%TD*%
D11*
%TO.C,D8*%
X67758000Y-75125000D03*
D12*
X67758000Y-67505000D03*
%TD*%
D13*
%TO.C,SW7*%
X38770000Y-70423000D03*
D14*
X41370000Y-64673000D03*
X36170000Y-64673000D03*
X34370000Y-65723000D03*
X43170000Y-65723000D03*
%TD*%
D11*
%TO.C,D23*%
X125718000Y-113750000D03*
D12*
X125718000Y-106130000D03*
%TD*%
D11*
%TO.C,D24*%
X145000000Y-113750000D03*
D12*
X145000000Y-106130000D03*
%TD*%
D13*
%TO.C,SW22*%
X96730000Y-108954500D03*
D14*
X99330000Y-103204500D03*
X94130000Y-103204500D03*
X92330000Y-104254500D03*
X101130000Y-104254500D03*
%TD*%
D13*
%TO.C,SW25*%
X38770000Y-128220250D03*
D14*
X41370000Y-122470250D03*
X36170000Y-122470250D03*
X43170000Y-123520250D03*
X34370000Y-123520250D03*
%TD*%
D11*
%TO.C,D1*%
X48458000Y-55877500D03*
D12*
X48458000Y-48257500D03*
%TD*%
D11*
%TO.C,D10*%
X106398000Y-75125000D03*
D12*
X106398000Y-67505000D03*
%TD*%
D15*
%TO.C,J1*%
X164850000Y-57425000D03*
X164850000Y-54885000D03*
%TD*%
D16*
%TO.C,BT2*%
X155900000Y-113700000D03*
X155900000Y-135500000D03*
D17*
X155900000Y-124600000D03*
%TD*%
M02*
