M48
; DRILL file {KiCad (6.0.8)} date Tue Feb 14 18:00:58 2023
; FORMAT={-:-/ absolute / inch / decimal}
; #@! TF.CreationDate,2023-02-14T18:00:58+07:00
; #@! TF.GenerationSoftware,Kicad,Pcbnew,(6.0.8)
; #@! TF.FileFunction,Plated,1,2,PTH
FMAT,2
INCH
; #@! TA.AperFunction,Plated,PTH,ViaDrill
T1C0.0157
; #@! TA.AperFunction,Plated,PTH,ComponentDrill
T2C0.0315
; #@! TA.AperFunction,Plated,PTH,ComponentDrill
T3C0.0472
%
G90
G05
T1
X5.5709Y-2.189
X5.6575Y-2.2126
X5.7894Y-2.2165
X5.9396Y-3.2402
X5.9396Y-4.9967
X5.9961Y-3.5217
X6.0394Y-3.378
X6.0886Y-2.5965
X6.1398Y-3.5984
X6.1811Y-2.6831
X6.1943Y-3.16
X6.2518Y-2.76
X6.2539Y-3.06
X6.3031Y-4.9055
X6.3071Y-2.96
X6.3091Y-2.86
X6.3661Y-2.46
X6.406Y-3.3135
T2
X1.9054Y-4.931
X1.9054Y-5.231
X1.907Y-2.6577
X1.907Y-2.9577
X1.907Y-3.4155
X1.907Y-3.7155
X1.907Y-4.1783
X1.907Y-4.4783
X1.9078Y-1.8999
X1.9078Y-2.1999
X2.6664Y-4.931
X2.6664Y-5.231
X2.6676Y-2.6577
X2.6676Y-2.9577
X2.6676Y-3.4155
X2.6676Y-3.7155
X2.6676Y-4.1783
X2.6676Y-4.4783
X2.6683Y-1.8999
X2.6683Y-2.1999
X3.4273Y-4.931
X3.4273Y-5.231
X3.4283Y-2.6577
X3.4283Y-2.9577
X3.4283Y-3.4155
X3.4283Y-3.7155
X3.4283Y-4.1783
X3.4283Y-4.4783
X3.4287Y-1.8999
X3.4287Y-2.1999
X4.1883Y-4.931
X4.1883Y-5.231
X4.1889Y-2.6577
X4.1889Y-2.9577
X4.1889Y-3.4155
X4.1889Y-3.7155
X4.1889Y-4.1783
X4.1889Y-4.4783
X4.1892Y-1.8999
X4.1892Y-2.1999
X4.9492Y-4.931
X4.9492Y-5.231
X4.9495Y-2.6577
X4.9495Y-2.9577
X4.9495Y-3.4155
X4.9495Y-3.7155
X4.9495Y-4.1783
X4.9495Y-4.4783
X4.9497Y-1.8999
X4.9497Y-2.1999
X5.7047Y-2.1295
X5.7047Y-2.4295
X5.7087Y-4.1783
X5.7087Y-4.4783
X5.7087Y-4.931
X5.7087Y-5.231
X5.7102Y-2.6577
X5.7102Y-2.9577
X5.7102Y-3.4155
X5.7102Y-3.7155
X6.137Y-4.0132
X6.137Y-4.1132
X6.437Y-4.0132
X6.437Y-4.1132
T3
X1.3531Y-1.829
X1.3531Y-2.5875
X1.3531Y-3.346
X1.3531Y-4.1045
X1.3531Y-4.863
X1.424Y-1.7877
X1.424Y-2.5462
X1.424Y-3.3047
X1.424Y-4.0632
X1.424Y-4.8217
X1.6287Y-1.7877
X1.6287Y-2.5462
X1.6287Y-3.3047
X1.6287Y-4.0632
X1.6287Y-4.8217
X1.6996Y-1.829
X1.6996Y-2.5875
X1.6996Y-3.346
X1.6996Y-4.1045
X1.6996Y-4.863
X2.1138Y-1.829
X2.1138Y-2.5875
X2.1138Y-3.346
X2.1138Y-4.1045
X2.1138Y-4.863
X2.1846Y-1.7877
X2.1846Y-2.5462
X2.1846Y-3.3047
X2.1846Y-4.0632
X2.1846Y-4.8217
X2.3894Y-1.7877
X2.3894Y-2.5462
X2.3894Y-3.3047
X2.3894Y-4.0632
X2.3894Y-4.8217
X2.4602Y-1.829
X2.4602Y-2.5875
X2.4602Y-3.346
X2.4602Y-4.1045
X2.4602Y-4.863
X2.8744Y-1.829
X2.8744Y-2.5875
X2.8744Y-3.346
X2.8744Y-4.1045
X2.8744Y-4.863
X2.9453Y-1.7877
X2.9453Y-2.5462
X2.9453Y-3.3047
X2.9453Y-4.0632
X2.9453Y-4.8217
X3.15Y-1.7877
X3.15Y-2.5462
X3.15Y-3.3047
X3.15Y-4.0632
X3.15Y-4.8217
X3.2209Y-1.829
X3.2209Y-2.5875
X3.2209Y-3.346
X3.2209Y-4.1045
X3.2209Y-4.863
X3.635Y-1.829
X3.635Y-2.5875
X3.635Y-3.346
X3.635Y-4.1045
X3.635Y-4.863
X3.7059Y-1.7877
X3.7059Y-2.5462
X3.7059Y-3.3047
X3.7059Y-4.0632
X3.7059Y-4.8217
X3.9106Y-1.7877
X3.9106Y-2.5462
X3.9106Y-3.3047
X3.9106Y-4.0632
X3.9106Y-4.8217
X3.9815Y-1.829
X3.9815Y-2.5875
X3.9815Y-3.346
X3.9815Y-4.1045
X3.9815Y-4.863
X4.3957Y-1.829
X4.3957Y-2.5875
X4.3957Y-3.346
X4.3957Y-4.1045
X4.3957Y-4.863
X4.4665Y-1.7877
X4.4665Y-2.5462
X4.4665Y-3.3047
X4.4665Y-4.0632
X4.4665Y-4.8217
X4.6713Y-1.7877
X4.6713Y-2.5462
X4.6713Y-3.3047
X4.6713Y-4.0632
X4.6713Y-4.8217
X4.7421Y-1.829
X4.7421Y-2.5875
X4.7421Y-3.346
X4.7421Y-4.1045
X4.7421Y-4.863
X5.1563Y-1.829
X5.1563Y-2.5875
X5.1563Y-3.346
X5.1563Y-4.1045
X5.1563Y-4.863
X5.2272Y-1.7877
X5.2272Y-2.5462
X5.2272Y-3.3047
X5.2272Y-4.0632
X5.2272Y-4.8217
X5.4319Y-1.7877
X5.4319Y-2.5462
X5.4319Y-3.3047
X5.4319Y-4.0632
X5.4319Y-4.8217
X5.5028Y-1.829
X5.5028Y-2.5875
X5.5028Y-3.346
X5.5028Y-4.1045
X5.5028Y-4.863
T0
M30
