M48
; DRILL file {KiCad (6.0.8)} date Tue Feb 14 18:00:58 2023
; FORMAT={-:-/ absolute / inch / decimal}
; #@! TF.CreationDate,2023-02-14T18:00:58+07:00
; #@! TF.GenerationSoftware,Kicad,Pcbnew,(6.0.8)
; #@! TF.FileFunction,NonPlated,1,2,NPTH
FMAT,2
INCH
; #@! TA.AperFunction,NonPlated,NPTH,ComponentDrill
T1C0.1969
%
G90
G05
T1
X1.5264Y-2.0141
X1.5264Y-2.7726
X1.5264Y-3.5311
X1.5264Y-4.2895
X1.5264Y-5.048
X2.287Y-2.0141
X2.287Y-2.7726
X2.287Y-3.5311
X2.287Y-4.2895
X2.287Y-5.048
X3.0476Y-2.0141
X3.0476Y-2.7726
X3.0476Y-3.5311
X3.0476Y-4.2895
X3.0476Y-5.048
X3.8083Y-2.0141
X3.8083Y-2.7726
X3.8083Y-3.5311
X3.8083Y-4.2895
X3.8083Y-5.048
X4.5689Y-2.0141
X4.5689Y-2.7726
X4.5689Y-3.5311
X4.5689Y-4.2895
X4.5689Y-5.048
X5.3295Y-2.0141
X5.3295Y-2.7726
X5.3295Y-3.5311
X5.3295Y-4.2895
X5.3295Y-5.048
T0
M30
