%TF.GenerationSoftware,KiCad,Pcbnew,(6.0.8)*%
%TF.CreationDate,2023-02-14T18:00:54+07:00*%
%TF.ProjectId,dongle_256o,646f6e67-6c65-45f3-9235-366f2e6b6963,rev?*%
%TF.SameCoordinates,Original*%
%TF.FileFunction,Copper,L1,Top*%
%TF.FilePolarity,Positive*%
%FSLAX46Y46*%
G04 Gerber Fmt 4.6, Leading zero omitted, Abs format (unit mm)*
G04 Created by KiCad (PCBNEW (6.0.8)) date 2023-02-14 18:00:54*
%MOMM*%
%LPD*%
G01*
G04 APERTURE LIST*
G04 Aperture macros list*
%AMRoundRect*
0 Rectangle with rounded corners*
0 $1 Rounding radius*
0 $2 $3 $4 $5 $6 $7 $8 $9 X,Y pos of 4 corners*
0 Add a 4 corners polygon primitive as box body*
4,1,4,$2,$3,$4,$5,$6,$7,$8,$9,$2,$3,0*
0 Add four circle primitives for the rounded corners*
1,1,$1+$1,$2,$3*
1,1,$1+$1,$4,$5*
1,1,$1+$1,$6,$7*
1,1,$1+$1,$8,$9*
0 Add four rect primitives between the rounded corners*
20,1,$1+$1,$2,$3,$4,$5,0*
20,1,$1+$1,$4,$5,$6,$7,0*
20,1,$1+$1,$6,$7,$8,$9,0*
20,1,$1+$1,$8,$9,$2,$3,0*%
G04 Aperture macros list end*
%TA.AperFunction,SMDPad,CuDef*%
%ADD10R,1.800000X1.524000*%
%TD*%
%TA.AperFunction,ComponentPad*%
%ADD11R,1.600000X1.600000*%
%TD*%
%TA.AperFunction,ComponentPad*%
%ADD12O,1.600000X1.600000*%
%TD*%
%TA.AperFunction,ComponentPad*%
%ADD13C,1.700000*%
%TD*%
%TA.AperFunction,SMDPad,CuDef*%
%ADD14R,5.100000X1.200000*%
%TD*%
%TA.AperFunction,SMDPad,CuDef*%
%ADD15RoundRect,1.250000X1.250000X-1.250000X1.250000X1.250000X-1.250000X1.250000X-1.250000X-1.250000X0*%
%TD*%
%TA.AperFunction,SMDPad,CuDef*%
%ADD16R,1.524000X1.000000*%
%TD*%
%TA.AperFunction,ViaPad*%
%ADD17C,0.800000*%
%TD*%
%TA.AperFunction,Conductor*%
%ADD18C,0.250000*%
%TD*%
G04 APERTURE END LIST*
D10*
%TO.P,U1,0.02,0.02*%
%TO.N,Net-(SW15-Pad1)*%
X164070000Y-72645000D03*
%TO.P,U1,0.09,0.09*%
%TO.N,Net-(D19-Pad1)*%
X148830000Y-77725000D03*
%TO.P,U1,0.10,0.10*%
%TO.N,Net-(D25-Pad1)*%
X148830000Y-80265000D03*
%TO.P,U1,0.13,0.13*%
%TO.N,Net-(U1-Pad0.13)*%
X148830000Y-59945000D03*
%TO.P,U1,0.15,0.15*%
%TO.N,Net-(U1-Pad0.15)*%
X148830000Y-62485000D03*
%TO.P,U1,0.17,0.17*%
%TO.N,Net-(SW31-Pad3)*%
X148830000Y-65025000D03*
%TO.P,U1,0.20,0.20*%
%TO.N,Net-(SW31-Pad2)*%
X148830000Y-67565000D03*
%TO.P,U1,0.22,0.22*%
%TO.N,Net-(D1-Pad1)*%
X148830000Y-70105000D03*
%TO.P,U1,0.24,0.24*%
%TO.N,Net-(D10-Pad1)*%
X148830000Y-72645000D03*
%TO.P,U1,0.29,0.29*%
%TO.N,Net-(SW14-Pad1)*%
X164070000Y-70105000D03*
%TO.P,U1,0.31,0.31*%
%TO.N,Net-(SW1-Pad1)*%
X164070000Y-67565000D03*
%TO.P,U1,1.00,1.00*%
%TO.N,Net-(D13-Pad1)*%
X148830000Y-75185000D03*
%TO.P,U1,1.10,1.10*%
%TO.N,Net-(SW12-Pad1)*%
X164070000Y-80265000D03*
%TO.P,U1,1.13,1.13*%
%TO.N,Net-(SW11-Pad1)*%
X164070000Y-77725000D03*
%TO.P,U1,1.15,1.15*%
%TO.N,Net-(SW10-Pad1)*%
X164070000Y-75185000D03*
%TO.P,U1,G1,GND*%
%TO.N,Net-(BT1-Pad2)*%
X148830000Y-82805000D03*
%TO.P,U1,G2,GND*%
X164070000Y-82805000D03*
%TO.P,U1,G3,GND*%
X164070000Y-65025000D03*
%TO.P,U1,OUT,OUT*%
%TO.N,Net-(SW31-Pad1)*%
X164070000Y-62485000D03*
%TO.P,U1,SWDCLK,SWDCLK*%
%TO.N,Net-(J1-Pad1)*%
X162010000Y-54865000D03*
%TO.P,U1,SWDIO,SWDIO*%
%TO.N,Net-(J1-Pad2)*%
X150890000Y-54865000D03*
%TO.P,U1,VBUS,VBUS*%
%TO.N,Net-(U1-PadVBUS)*%
X164070000Y-59945000D03*
%TD*%
D11*
%TO.P,D17,1,K*%
%TO.N,Net-(D13-Pad1)*%
X125718000Y-94372500D03*
D12*
%TO.P,D17,2,A*%
%TO.N,Net-(D17-Pad2)*%
X125718000Y-86752500D03*
%TD*%
D13*
%TO.P,SW28,1,COL*%
%TO.N,Net-(SW10-Pad1)*%
X94130000Y-122470250D03*
X99330000Y-122470250D03*
%TO.P,SW28,2,ROW*%
%TO.N,Net-(D28-Pad2)*%
X101130000Y-123520250D03*
X92330000Y-123520250D03*
%TD*%
D11*
%TO.P,D30,1,K*%
%TO.N,Net-(D25-Pad1)*%
X145000000Y-132867500D03*
D12*
%TO.P,D30,2,A*%
%TO.N,Net-(D30-Pad2)*%
X145000000Y-125247500D03*
%TD*%
D11*
%TO.P,D12,1,K*%
%TO.N,Net-(D10-Pad1)*%
X145038000Y-75125000D03*
D12*
%TO.P,D12,2,A*%
%TO.N,Net-(D12-Pad2)*%
X145038000Y-67505000D03*
%TD*%
D11*
%TO.P,D21,1,K*%
%TO.N,Net-(D19-Pad1)*%
X87078000Y-113750000D03*
D12*
%TO.P,D21,2,A*%
%TO.N,Net-(D21-Pad2)*%
X87078000Y-106130000D03*
%TD*%
D11*
%TO.P,D22,1,K*%
%TO.N,Net-(D19-Pad1)*%
X106398000Y-113750000D03*
D12*
%TO.P,D22,2,A*%
%TO.N,Net-(D22-Pad2)*%
X106398000Y-106130000D03*
%TD*%
D13*
%TO.P,SW8,1,COL*%
%TO.N,Net-(SW14-Pad1)*%
X55490000Y-64673000D03*
X60690000Y-64673000D03*
%TO.P,SW8,2,ROW*%
%TO.N,Net-(D8-Pad2)*%
X53690000Y-65723000D03*
X62490000Y-65723000D03*
%TD*%
%TO.P,SW24,1,COL*%
%TO.N,Net-(SW12-Pad1)*%
X137970000Y-103204500D03*
X132770000Y-103204500D03*
%TO.P,SW24,2,ROW*%
%TO.N,Net-(D24-Pad2)*%
X130970000Y-104254500D03*
X139770000Y-104254500D03*
%TD*%
D11*
%TO.P,D5,1,K*%
%TO.N,Net-(D1-Pad1)*%
X125722000Y-55877500D03*
D12*
%TO.P,D5,2,A*%
%TO.N,Net-(D5-Pad2)*%
X125722000Y-48257500D03*
%TD*%
D13*
%TO.P,SW27,1,COL*%
%TO.N,Net-(SW15-Pad1)*%
X74810000Y-122470250D03*
X80010000Y-122470250D03*
%TO.P,SW27,2,ROW*%
%TO.N,Net-(D27-Pad2)*%
X73010000Y-123520250D03*
X81810000Y-123520250D03*
%TD*%
D11*
%TO.P,D27,1,K*%
%TO.N,Net-(D25-Pad1)*%
X87054000Y-132867500D03*
D12*
%TO.P,D27,2,A*%
%TO.N,Net-(D27-Pad2)*%
X87054000Y-125247500D03*
%TD*%
D13*
%TO.P,SW29,1,COL*%
%TO.N,Net-(SW11-Pad1)*%
X113450000Y-122470250D03*
X118650000Y-122470250D03*
%TO.P,SW29,2,ROW*%
%TO.N,Net-(D29-Pad2)*%
X120450000Y-123520250D03*
X111650000Y-123520250D03*
%TD*%
D14*
%TO.P,BT1,1,+*%
%TO.N,Net-(BT1-Pad1)*%
X155900000Y-113700000D03*
X155900000Y-135500000D03*
D15*
%TO.P,BT1,2,-*%
%TO.N,Net-(BT1-Pad2)*%
X155900000Y-124600000D03*
%TD*%
D11*
%TO.P,D20,1,K*%
%TO.N,Net-(D19-Pad1)*%
X67758000Y-113750000D03*
D12*
%TO.P,D20,2,A*%
%TO.N,Net-(D20-Pad2)*%
X67758000Y-106130000D03*
%TD*%
D13*
%TO.P,SW10,1,COL*%
%TO.N,Net-(SW10-Pad1)*%
X99330000Y-64673000D03*
X94130000Y-64673000D03*
%TO.P,SW10,2,ROW*%
%TO.N,Net-(D10-Pad2)*%
X101130000Y-65723000D03*
X92330000Y-65723000D03*
%TD*%
D11*
%TO.P,D4,1,K*%
%TO.N,Net-(D1-Pad1)*%
X106406000Y-55877500D03*
D12*
%TO.P,D4,2,A*%
%TO.N,Net-(D4-Pad2)*%
X106406000Y-48257500D03*
%TD*%
D13*
%TO.P,SW3,1,COL*%
%TO.N,Net-(SW15-Pad1)*%
X74810000Y-45407250D03*
X80010000Y-45407250D03*
%TO.P,SW3,2,ROW*%
%TO.N,Net-(D3-Pad2)*%
X73010000Y-46457250D03*
X81810000Y-46457250D03*
%TD*%
D11*
%TO.P,D29,1,K*%
%TO.N,Net-(D25-Pad1)*%
X125710000Y-132867500D03*
D12*
%TO.P,D29,2,A*%
%TO.N,Net-(D29-Pad2)*%
X125710000Y-125247500D03*
%TD*%
D11*
%TO.P,D16,1,K*%
%TO.N,Net-(D13-Pad1)*%
X106398000Y-94372500D03*
D12*
%TO.P,D16,2,A*%
%TO.N,Net-(D16-Pad2)*%
X106398000Y-86752500D03*
%TD*%
D13*
%TO.P,SW11,1,COL*%
%TO.N,Net-(SW11-Pad1)*%
X113450000Y-64673000D03*
X118650000Y-64673000D03*
%TO.P,SW11,2,ROW*%
%TO.N,Net-(D11-Pad2)*%
X120450000Y-65723000D03*
X111650000Y-65723000D03*
%TD*%
D16*
%TO.P,J2,1,Pin_1*%
%TO.N,Net-(J1-Pad1)*%
X164850000Y-54900000D03*
%TO.P,J2,2,Pin_2*%
%TO.N,Net-(J1-Pad2)*%
X164850000Y-57440000D03*
%TD*%
D11*
%TO.P,D18,1,K*%
%TO.N,Net-(D13-Pad1)*%
X145038000Y-94372500D03*
D12*
%TO.P,D18,2,A*%
%TO.N,Net-(D18-Pad2)*%
X145038000Y-86752500D03*
%TD*%
D11*
%TO.P,D26,1,K*%
%TO.N,Net-(D25-Pad1)*%
X67726000Y-132867500D03*
D12*
%TO.P,D26,2,A*%
%TO.N,Net-(D26-Pad2)*%
X67726000Y-125247500D03*
%TD*%
D13*
%TO.P,SW4,1,COL*%
%TO.N,Net-(SW10-Pad1)*%
X99330000Y-45407250D03*
X94130000Y-45407250D03*
%TO.P,SW4,2,ROW*%
%TO.N,Net-(D4-Pad2)*%
X101130000Y-46457250D03*
X92330000Y-46457250D03*
%TD*%
D11*
%TO.P,D3,1,K*%
%TO.N,Net-(D1-Pad1)*%
X87090000Y-55877500D03*
D12*
%TO.P,D3,2,A*%
%TO.N,Net-(D3-Pad2)*%
X87090000Y-48257500D03*
%TD*%
D13*
%TO.P,SW17,1,COL*%
%TO.N,Net-(SW11-Pad1)*%
X118650000Y-83938750D03*
X113450000Y-83938750D03*
%TO.P,SW17,2,ROW*%
%TO.N,Net-(D17-Pad2)*%
X111650000Y-84988750D03*
X120450000Y-84988750D03*
%TD*%
%TO.P,SW19,1,COL*%
%TO.N,Net-(SW1-Pad1)*%
X41370000Y-103204500D03*
X36170000Y-103204500D03*
%TO.P,SW19,2,ROW*%
%TO.N,Net-(D19-Pad2)*%
X34370000Y-104254500D03*
X43170000Y-104254500D03*
%TD*%
%TO.P,SW26,1,COL*%
%TO.N,Net-(SW14-Pad1)*%
X60690000Y-122470250D03*
X55490000Y-122470250D03*
%TO.P,SW26,2,ROW*%
%TO.N,Net-(D26-Pad2)*%
X53690000Y-123520250D03*
X62490000Y-123520250D03*
%TD*%
%TO.P,SW1,1,COL*%
%TO.N,Net-(SW1-Pad1)*%
X36170000Y-45407250D03*
X41370000Y-45407250D03*
%TO.P,SW1,2,ROW*%
%TO.N,Net-(D1-Pad2)*%
X43170000Y-46457250D03*
X34370000Y-46457250D03*
%TD*%
D11*
%TO.P,D7,1,K*%
%TO.N,Net-(D10-Pad1)*%
X48438000Y-75125000D03*
D12*
%TO.P,D7,2,A*%
%TO.N,Net-(D7-Pad2)*%
X48438000Y-67505000D03*
%TD*%
D11*
%TO.P,D11,1,K*%
%TO.N,Net-(D10-Pad1)*%
X125718000Y-75125000D03*
D12*
%TO.P,D11,2,A*%
%TO.N,Net-(D11-Pad2)*%
X125718000Y-67505000D03*
%TD*%
D13*
%TO.P,SW2,1,COL*%
%TO.N,Net-(SW14-Pad1)*%
X60690000Y-45407250D03*
X55490000Y-45407250D03*
%TO.P,SW2,2,ROW*%
%TO.N,Net-(D2-Pad2)*%
X53690000Y-46457250D03*
X62490000Y-46457250D03*
%TD*%
D11*
%TO.P,D14,1,K*%
%TO.N,Net-(D13-Pad1)*%
X67758000Y-94372500D03*
D12*
%TO.P,D14,2,A*%
%TO.N,Net-(D14-Pad2)*%
X67758000Y-86752500D03*
%TD*%
D13*
%TO.P,SW12,1,COL*%
%TO.N,Net-(SW12-Pad1)*%
X132770000Y-64673000D03*
X137970000Y-64673000D03*
%TO.P,SW12,2,ROW*%
%TO.N,Net-(D12-Pad2)*%
X130970000Y-65723000D03*
X139770000Y-65723000D03*
%TD*%
%TO.P,SW23,1,COL*%
%TO.N,Net-(SW11-Pad1)*%
X113450000Y-103204500D03*
X118650000Y-103204500D03*
%TO.P,SW23,2,ROW*%
%TO.N,Net-(D23-Pad2)*%
X111650000Y-104254500D03*
X120450000Y-104254500D03*
%TD*%
%TO.P,SW5,1,COL*%
%TO.N,Net-(SW11-Pad1)*%
X113450000Y-45407250D03*
X118650000Y-45407250D03*
%TO.P,SW5,2,ROW*%
%TO.N,Net-(D5-Pad2)*%
X120450000Y-46457250D03*
X111650000Y-46457250D03*
%TD*%
%TO.P,SW6,1,COL*%
%TO.N,Net-(SW12-Pad1)*%
X132770000Y-45407250D03*
X137970000Y-45407250D03*
%TO.P,SW6,2,ROW*%
%TO.N,Net-(D6-Pad2)*%
X130970000Y-46457250D03*
X139770000Y-46457250D03*
%TD*%
D11*
%TO.P,D25,1,K*%
%TO.N,Net-(D25-Pad1)*%
X48398000Y-132867500D03*
D12*
%TO.P,D25,2,A*%
%TO.N,Net-(D25-Pad2)*%
X48398000Y-125247500D03*
%TD*%
D13*
%TO.P,SW14,1,COL*%
%TO.N,Net-(SW14-Pad1)*%
X60690000Y-83938750D03*
X55490000Y-83938750D03*
%TO.P,SW14,2,ROW*%
%TO.N,Net-(D14-Pad2)*%
X62490000Y-84988750D03*
X53690000Y-84988750D03*
%TD*%
%TO.P,SW20,1,COL*%
%TO.N,Net-(SW14-Pad1)*%
X60690000Y-103204500D03*
X55490000Y-103204500D03*
%TO.P,SW20,2,ROW*%
%TO.N,Net-(D20-Pad2)*%
X62490000Y-104254500D03*
X53690000Y-104254500D03*
%TD*%
D11*
%TO.P,D9,1,K*%
%TO.N,Net-(D10-Pad1)*%
X87078000Y-75125000D03*
D12*
%TO.P,D9,2,A*%
%TO.N,Net-(D9-Pad2)*%
X87078000Y-67505000D03*
%TD*%
D11*
%TO.P,D19,1,K*%
%TO.N,Net-(D19-Pad1)*%
X48438000Y-113750000D03*
D12*
%TO.P,D19,2,A*%
%TO.N,Net-(D19-Pad2)*%
X48438000Y-106130000D03*
%TD*%
D11*
%TO.P,D15,1,K*%
%TO.N,Net-(D13-Pad1)*%
X87078000Y-94372500D03*
D12*
%TO.P,D15,2,A*%
%TO.N,Net-(D15-Pad2)*%
X87078000Y-86752500D03*
%TD*%
D11*
%TO.P,D2,1,K*%
%TO.N,Net-(D1-Pad1)*%
X67774000Y-55877500D03*
D12*
%TO.P,D2,2,A*%
%TO.N,Net-(D2-Pad2)*%
X67774000Y-48257500D03*
%TD*%
D11*
%TO.P,D13,1,K*%
%TO.N,Net-(D13-Pad1)*%
X48438000Y-94372500D03*
D12*
%TO.P,D13,2,A*%
%TO.N,Net-(D13-Pad2)*%
X48438000Y-86752500D03*
%TD*%
D13*
%TO.P,SW15,1,COL*%
%TO.N,Net-(SW15-Pad1)*%
X74810000Y-83938750D03*
X80010000Y-83938750D03*
%TO.P,SW15,2,ROW*%
%TO.N,Net-(D15-Pad2)*%
X73010000Y-84988750D03*
X81810000Y-84988750D03*
%TD*%
%TO.P,SW30,1,COL*%
%TO.N,Net-(SW12-Pad1)*%
X132770000Y-122470250D03*
X137970000Y-122470250D03*
%TO.P,SW30,2,ROW*%
%TO.N,Net-(D30-Pad2)*%
X130970000Y-123520250D03*
X139770000Y-123520250D03*
%TD*%
%TO.P,SW18,1,COL*%
%TO.N,Net-(SW12-Pad1)*%
X132770000Y-83938750D03*
X137970000Y-83938750D03*
%TO.P,SW18,2,ROW*%
%TO.N,Net-(D18-Pad2)*%
X139770000Y-84988750D03*
X130970000Y-84988750D03*
%TD*%
D11*
%TO.P,SW31,1*%
%TO.N,Net-(SW31-Pad1)*%
X163500000Y-104475000D03*
D12*
%TO.P,SW31,2*%
%TO.N,Net-(SW31-Pad2)*%
X163500000Y-101935000D03*
%TO.P,SW31,3*%
%TO.N,Net-(SW31-Pad3)*%
X155880000Y-101935000D03*
%TO.P,SW31,4*%
%TO.N,Net-(BT1-Pad1)*%
X155880000Y-104475000D03*
%TD*%
D11*
%TO.P,D6,1,K*%
%TO.N,Net-(D1-Pad1)*%
X144900000Y-61710000D03*
D12*
%TO.P,D6,2,A*%
%TO.N,Net-(D6-Pad2)*%
X144900000Y-54090000D03*
%TD*%
D13*
%TO.P,SW9,1,COL*%
%TO.N,Net-(SW15-Pad1)*%
X80010000Y-64673000D03*
X74810000Y-64673000D03*
%TO.P,SW9,2,ROW*%
%TO.N,Net-(D9-Pad2)*%
X81810000Y-65723000D03*
X73010000Y-65723000D03*
%TD*%
%TO.P,SW21,1,COL*%
%TO.N,Net-(SW15-Pad1)*%
X80010000Y-103204500D03*
X74810000Y-103204500D03*
%TO.P,SW21,2,ROW*%
%TO.N,Net-(D21-Pad2)*%
X73010000Y-104254500D03*
X81810000Y-104254500D03*
%TD*%
%TO.P,SW16,1,COL*%
%TO.N,Net-(SW10-Pad1)*%
X94130000Y-83938750D03*
X99330000Y-83938750D03*
%TO.P,SW16,2,ROW*%
%TO.N,Net-(D16-Pad2)*%
X101130000Y-84988750D03*
X92330000Y-84988750D03*
%TD*%
D11*
%TO.P,D28,1,K*%
%TO.N,Net-(D25-Pad1)*%
X106382000Y-132867500D03*
D12*
%TO.P,D28,2,A*%
%TO.N,Net-(D28-Pad2)*%
X106382000Y-125247500D03*
%TD*%
D13*
%TO.P,SW13,1,COL*%
%TO.N,Net-(SW1-Pad1)*%
X41370000Y-83938750D03*
X36170000Y-83938750D03*
%TO.P,SW13,2,ROW*%
%TO.N,Net-(D13-Pad2)*%
X43170000Y-84988750D03*
X34370000Y-84988750D03*
%TD*%
D11*
%TO.P,D8,1,K*%
%TO.N,Net-(D10-Pad1)*%
X67758000Y-75125000D03*
D12*
%TO.P,D8,2,A*%
%TO.N,Net-(D8-Pad2)*%
X67758000Y-67505000D03*
%TD*%
D13*
%TO.P,SW7,1,COL*%
%TO.N,Net-(SW1-Pad1)*%
X41370000Y-64673000D03*
X36170000Y-64673000D03*
%TO.P,SW7,2,ROW*%
%TO.N,Net-(D7-Pad2)*%
X34370000Y-65723000D03*
X43170000Y-65723000D03*
%TD*%
D11*
%TO.P,D23,1,K*%
%TO.N,Net-(D19-Pad1)*%
X125718000Y-113750000D03*
D12*
%TO.P,D23,2,A*%
%TO.N,Net-(D23-Pad2)*%
X125718000Y-106130000D03*
%TD*%
D11*
%TO.P,D24,1,K*%
%TO.N,Net-(D19-Pad1)*%
X145000000Y-113750000D03*
D12*
%TO.P,D24,2,A*%
%TO.N,Net-(D24-Pad2)*%
X145000000Y-106130000D03*
%TD*%
D13*
%TO.P,SW22,1,COL*%
%TO.N,Net-(SW10-Pad1)*%
X99330000Y-103204500D03*
X94130000Y-103204500D03*
%TO.P,SW22,2,ROW*%
%TO.N,Net-(D22-Pad2)*%
X92330000Y-104254500D03*
X101130000Y-104254500D03*
%TD*%
%TO.P,SW25,1,COL*%
%TO.N,Net-(SW1-Pad1)*%
X41370000Y-122470250D03*
X36170000Y-122470250D03*
%TO.P,SW25,2,ROW*%
%TO.N,Net-(D25-Pad2)*%
X43170000Y-123520250D03*
X34370000Y-123520250D03*
%TD*%
D11*
%TO.P,D1,1,K*%
%TO.N,Net-(D1-Pad1)*%
X48458000Y-55877500D03*
D12*
%TO.P,D1,2,A*%
%TO.N,Net-(D1-Pad2)*%
X48458000Y-48257500D03*
%TD*%
D11*
%TO.P,D10,1,K*%
%TO.N,Net-(D10-Pad1)*%
X106398000Y-75125000D03*
D12*
%TO.P,D10,2,A*%
%TO.N,Net-(D10-Pad2)*%
X106398000Y-67505000D03*
%TD*%
D17*
%TO.N,Net-(D1-Pad1)*%
X158795000Y-70105000D03*
%TO.N,Net-(D10-Pad1)*%
X160250000Y-72645000D03*
%TO.N,Net-(D13-Pad1)*%
X160200000Y-75185000D03*
%TO.N,Net-(D19-Pad1)*%
X158850000Y-77725000D03*
%TO.N,Net-(D25-Pad1)*%
X150865000Y-126915000D03*
X150865000Y-82300000D03*
X157335000Y-80265000D03*
%TO.N,Net-(SW1-Pad1)*%
X147050000Y-56300000D03*
%TO.N,Net-(SW14-Pad1)*%
X143700000Y-56200000D03*
%TO.N,Net-(SW15-Pad1)*%
X141500000Y-55600000D03*
%TO.N,Net-(SW10-Pad1)*%
X153400000Y-85800000D03*
%TO.N,Net-(SW11-Pad1)*%
X152300000Y-89450000D03*
%TO.N,Net-(BT1-Pad2)*%
X160100000Y-124600000D03*
X162712500Y-84162500D03*
%TO.N,Net-(SW31-Pad1)*%
X161700000Y-62485000D03*
%TO.N,Net-(SW31-Pad2)*%
X157000000Y-68150000D03*
X155950000Y-91400000D03*
%TO.N,Net-(SW31-Pad3)*%
X154650000Y-65950000D03*
%TD*%
D18*
%TO.N,Net-(D1-Pad1)*%
X146800000Y-68075000D02*
X148830000Y-70105000D01*
X67774000Y-55877500D02*
X87090000Y-55877500D01*
X146800000Y-63610000D02*
X146800000Y-68075000D01*
X125722000Y-55877500D02*
X139067500Y-55877500D01*
X48458000Y-55877500D02*
X67774000Y-55877500D01*
X87090000Y-55877500D02*
X106406000Y-55877500D01*
X148830000Y-70105000D02*
X158795000Y-70105000D01*
X139067500Y-55877500D02*
X144900000Y-61710000D01*
X106406000Y-55877500D02*
X125722000Y-55877500D01*
X144900000Y-61710000D02*
X146800000Y-63610000D01*
%TO.N,Net-(D1-Pad2)*%
X42320000Y-47307250D02*
X35220000Y-47307250D01*
X43170000Y-46457250D02*
X42320000Y-47307250D01*
X44970250Y-48257500D02*
X43170000Y-46457250D01*
X48458000Y-48257500D02*
X44970250Y-48257500D01*
X35220000Y-47307250D02*
X34370000Y-46457250D01*
%TO.N,Net-(D2-Pad2)*%
X62490000Y-46610000D02*
X62450000Y-46650000D01*
X64290250Y-48257500D02*
X62490000Y-46457250D01*
X67774000Y-48257500D02*
X64290250Y-48257500D01*
X62490000Y-46457250D02*
X62490000Y-46610000D01*
X61640000Y-47307250D02*
X54540000Y-47307250D01*
X62490000Y-46457250D02*
X61640000Y-47307250D01*
X54540000Y-47307250D02*
X53690000Y-46457250D01*
%TO.N,Net-(D3-Pad2)*%
X80960000Y-47307250D02*
X73860000Y-47307250D01*
X81810000Y-46457250D02*
X80960000Y-47307250D01*
X73860000Y-47307250D02*
X73010000Y-46457250D01*
X87090000Y-48257500D02*
X83610250Y-48257500D01*
X83610250Y-48257500D02*
X81810000Y-46457250D01*
%TO.N,Net-(D4-Pad2)*%
X100550000Y-46450000D02*
X99692750Y-47307250D01*
X101130000Y-46457250D02*
X100557250Y-46457250D01*
X106406000Y-48257500D02*
X102930250Y-48257500D01*
X100557250Y-46457250D02*
X100550000Y-46450000D01*
X102930250Y-48257500D02*
X101130000Y-46457250D01*
X93180000Y-47307250D02*
X92330000Y-46457250D01*
X99692750Y-47307250D02*
X93180000Y-47307250D01*
%TO.N,Net-(D5-Pad2)*%
X120450000Y-46457250D02*
X119600000Y-47307250D01*
X122250250Y-48257500D02*
X120450000Y-46457250D01*
X119600000Y-47307250D02*
X112500000Y-47307250D01*
X125722000Y-48257500D02*
X122250250Y-48257500D01*
X112500000Y-47307250D02*
X111650000Y-46457250D01*
%TO.N,Net-(D6-Pad2)*%
X144900000Y-51587250D02*
X139770000Y-46457250D01*
X131820000Y-47307250D02*
X130970000Y-46457250D01*
X139770000Y-46457250D02*
X138920000Y-47307250D01*
X138920000Y-47307250D02*
X131820000Y-47307250D01*
X144900000Y-54090000D02*
X144900000Y-51587250D01*
%TO.N,Net-(D10-Pad1)*%
X145038000Y-75125000D02*
X125718000Y-75125000D01*
X146350000Y-75125000D02*
X148830000Y-72645000D01*
X145038000Y-75125000D02*
X146350000Y-75125000D01*
X87078000Y-75125000D02*
X106398000Y-75125000D01*
X160250000Y-72645000D02*
X148830000Y-72645000D01*
X87078000Y-75125000D02*
X67758000Y-75125000D01*
X125718000Y-75125000D02*
X106398000Y-75125000D01*
X67758000Y-75125000D02*
X48438000Y-75125000D01*
%TO.N,Net-(D7-Pad2)*%
X44952000Y-67505000D02*
X43170000Y-65723000D01*
X35220000Y-66573000D02*
X34370000Y-65723000D01*
X43170000Y-65723000D02*
X42320000Y-66573000D01*
X42320000Y-66573000D02*
X35220000Y-66573000D01*
X48438000Y-67505000D02*
X44952000Y-67505000D01*
%TO.N,Net-(D8-Pad2)*%
X62490000Y-65723000D02*
X61640000Y-66573000D01*
X64272000Y-67505000D02*
X62490000Y-65723000D01*
X67758000Y-67505000D02*
X64272000Y-67505000D01*
X54540000Y-66573000D02*
X53690000Y-65723000D01*
X61640000Y-66573000D02*
X54540000Y-66573000D01*
%TO.N,Net-(D9-Pad2)*%
X73860000Y-66573000D02*
X73010000Y-65723000D01*
X81810000Y-65723000D02*
X80960000Y-66573000D01*
X80960000Y-66573000D02*
X73860000Y-66573000D01*
X83592000Y-67505000D02*
X81810000Y-65723000D01*
X87078000Y-67505000D02*
X83592000Y-67505000D01*
%TO.N,Net-(D10-Pad2)*%
X102912000Y-67505000D02*
X101130000Y-65723000D01*
X100280000Y-66573000D02*
X93180000Y-66573000D01*
X93180000Y-66573000D02*
X92330000Y-65723000D01*
X101130000Y-65723000D02*
X100280000Y-66573000D01*
X106398000Y-67505000D02*
X102912000Y-67505000D01*
%TO.N,Net-(D11-Pad2)*%
X119600000Y-66573000D02*
X112500000Y-66573000D01*
X125718000Y-67505000D02*
X122232000Y-67505000D01*
X120450000Y-65723000D02*
X119600000Y-66573000D01*
X112500000Y-66573000D02*
X111650000Y-65723000D01*
X122232000Y-67505000D02*
X120450000Y-65723000D01*
%TO.N,Net-(D12-Pad2)*%
X139770000Y-65723000D02*
X138920000Y-66573000D01*
X138920000Y-66573000D02*
X131820000Y-66573000D01*
X141552000Y-67505000D02*
X139770000Y-65723000D01*
X145038000Y-67505000D02*
X141552000Y-67505000D01*
X131820000Y-66573000D02*
X130970000Y-65723000D01*
%TO.N,Net-(D13-Pad1)*%
X106398000Y-94372500D02*
X87078000Y-94372500D01*
X67758000Y-94372500D02*
X48438000Y-94372500D01*
X146400000Y-93010500D02*
X146400000Y-77615000D01*
X125718000Y-94372500D02*
X106398000Y-94372500D01*
X148830000Y-75185000D02*
X160200000Y-75185000D01*
X145038000Y-94372500D02*
X125718000Y-94372500D01*
X145038000Y-94372500D02*
X146400000Y-93010500D01*
X87078000Y-94372500D02*
X67758000Y-94372500D01*
X146400000Y-77615000D02*
X148830000Y-75185000D01*
%TO.N,Net-(D13-Pad2)*%
X42320000Y-85838750D02*
X35220000Y-85838750D01*
X44933750Y-86752500D02*
X43170000Y-84988750D01*
X48438000Y-86752500D02*
X44933750Y-86752500D01*
X35220000Y-85838750D02*
X34370000Y-84988750D01*
X43170000Y-84988750D02*
X42320000Y-85838750D01*
%TO.N,Net-(D14-Pad2)*%
X62490000Y-84988750D02*
X61640000Y-85838750D01*
X64253750Y-86752500D02*
X62490000Y-84988750D01*
X61640000Y-85838750D02*
X54540000Y-85838750D01*
X67758000Y-86752500D02*
X64253750Y-86752500D01*
X54540000Y-85838750D02*
X53690000Y-84988750D01*
%TO.N,Net-(D15-Pad2)*%
X83573750Y-86752500D02*
X81810000Y-84988750D01*
X87078000Y-86752500D02*
X83573750Y-86752500D01*
X73860000Y-85838750D02*
X73010000Y-84988750D01*
X80960000Y-85838750D02*
X73860000Y-85838750D01*
X81810000Y-84988750D02*
X80960000Y-85838750D01*
%TO.N,Net-(D16-Pad2)*%
X106398000Y-86752500D02*
X102893750Y-86752500D01*
X100280000Y-85838750D02*
X93180000Y-85838750D01*
X93180000Y-85838750D02*
X92330000Y-84988750D01*
X102893750Y-86752500D02*
X101130000Y-84988750D01*
X101130000Y-84988750D02*
X100280000Y-85838750D01*
%TO.N,Net-(D17-Pad2)*%
X112500000Y-85838750D02*
X111650000Y-84988750D01*
X122213750Y-86752500D02*
X120450000Y-84988750D01*
X120450000Y-84988750D02*
X119600000Y-85838750D01*
X119600000Y-85838750D02*
X112500000Y-85838750D01*
X125718000Y-86752500D02*
X122213750Y-86752500D01*
%TO.N,Net-(D18-Pad2)*%
X139770000Y-84988750D02*
X138920000Y-85838750D01*
X141533750Y-86752500D02*
X139770000Y-84988750D01*
X145038000Y-86752500D02*
X141533750Y-86752500D01*
X138920000Y-85838750D02*
X131820000Y-85838750D01*
X131820000Y-85838750D02*
X130970000Y-84988750D01*
%TO.N,Net-(D19-Pad1)*%
X145000000Y-113750000D02*
X125718000Y-113750000D01*
X147325000Y-112525000D02*
X147325000Y-79230000D01*
X106398000Y-113750000D02*
X87078000Y-113750000D01*
X146100000Y-113750000D02*
X147325000Y-112525000D01*
X125718000Y-113750000D02*
X106398000Y-113750000D01*
X67758000Y-113750000D02*
X48438000Y-113750000D01*
X158850000Y-77725000D02*
X148830000Y-77725000D01*
X147325000Y-79230000D02*
X148830000Y-77725000D01*
X87078000Y-113750000D02*
X67758000Y-113750000D01*
X145000000Y-113750000D02*
X146100000Y-113750000D01*
%TO.N,Net-(D19-Pad2)*%
X34370000Y-104254500D02*
X35220000Y-105104500D01*
X43170000Y-104254500D02*
X45045500Y-106130000D01*
X35220000Y-105104500D02*
X42320000Y-105104500D01*
X42320000Y-105104500D02*
X43170000Y-104254500D01*
X45045500Y-106130000D02*
X48438000Y-106130000D01*
%TO.N,Net-(D20-Pad2)*%
X61640000Y-105104500D02*
X62490000Y-104254500D01*
X54540000Y-105104500D02*
X61640000Y-105104500D01*
X53690000Y-104254500D02*
X54540000Y-105104500D01*
X67758000Y-106130000D02*
X64365500Y-106130000D01*
X64365500Y-106130000D02*
X62490000Y-104254500D01*
%TO.N,Net-(D21-Pad2)*%
X83685500Y-106130000D02*
X81810000Y-104254500D01*
X87078000Y-106130000D02*
X83685500Y-106130000D01*
X73860000Y-105104500D02*
X73105500Y-104350000D01*
X80960000Y-105104500D02*
X73860000Y-105104500D01*
X81810000Y-104254500D02*
X80960000Y-105104500D01*
X73105500Y-104350000D02*
X72150000Y-104350000D01*
%TO.N,Net-(D22-Pad2)*%
X103005500Y-106130000D02*
X101130000Y-104254500D01*
X100280000Y-105104500D02*
X93180000Y-105104500D01*
X106398000Y-106130000D02*
X103005500Y-106130000D01*
X101130000Y-104254500D02*
X100280000Y-105104500D01*
X93180000Y-105104500D02*
X92330000Y-104254500D01*
%TO.N,Net-(D23-Pad2)*%
X112500000Y-105104500D02*
X111650000Y-104254500D01*
X120450000Y-104254500D02*
X119600000Y-105104500D01*
X122325500Y-106130000D02*
X120450000Y-104254500D01*
X125718000Y-106130000D02*
X122325500Y-106130000D01*
X119600000Y-105104500D02*
X112500000Y-105104500D01*
%TO.N,Net-(D24-Pad2)*%
X138924500Y-105100000D02*
X131815500Y-105100000D01*
X131815500Y-105100000D02*
X130970000Y-104254500D01*
X139770000Y-104254500D02*
X138924500Y-105100000D01*
X141645500Y-106130000D02*
X139770000Y-104254500D01*
X145000000Y-106130000D02*
X141645500Y-106130000D01*
%TO.N,Net-(D25-Pad1)*%
X150865000Y-126985000D02*
X150865000Y-126915000D01*
X48398000Y-132867500D02*
X67726000Y-132867500D01*
X106382000Y-132867500D02*
X125710000Y-132867500D01*
X145000000Y-132867500D02*
X145000000Y-132850000D01*
X148830000Y-80265000D02*
X150865000Y-82300000D01*
X125710000Y-132867500D02*
X145000000Y-132867500D01*
X148830000Y-80265000D02*
X157335000Y-80265000D01*
X87054000Y-132867500D02*
X106382000Y-132867500D01*
X67726000Y-132867500D02*
X87054000Y-132867500D01*
X145000000Y-132850000D02*
X150865000Y-126985000D01*
%TO.N,Net-(D25-Pad2)*%
X43170000Y-123520250D02*
X42320000Y-124370250D01*
X48398000Y-125247500D02*
X44897250Y-125247500D01*
X35220000Y-124370250D02*
X34370000Y-123520250D01*
X44897250Y-125247500D02*
X43170000Y-123520250D01*
X42320000Y-124370250D02*
X35220000Y-124370250D01*
%TO.N,Net-(D26-Pad2)*%
X67726000Y-125247500D02*
X64217250Y-125247500D01*
X54540000Y-124370250D02*
X53690000Y-123520250D01*
X61640000Y-124370250D02*
X54540000Y-124370250D01*
X64217250Y-125247500D02*
X62490000Y-123520250D01*
X62490000Y-123520250D02*
X61640000Y-124370250D01*
%TO.N,Net-(D27-Pad2)*%
X81810000Y-123520250D02*
X80960000Y-124370250D01*
X87054000Y-125247500D02*
X83537250Y-125247500D01*
X80960000Y-124370250D02*
X73860000Y-124370250D01*
X73860000Y-124370250D02*
X73010000Y-123520250D01*
X83537250Y-125247500D02*
X81810000Y-123520250D01*
%TO.N,Net-(D28-Pad2)*%
X101130000Y-123520250D02*
X100280000Y-124370250D01*
X102857250Y-125247500D02*
X101130000Y-123520250D01*
X100280000Y-124370250D02*
X93180000Y-124370250D01*
X93180000Y-124370250D02*
X92330000Y-123520250D01*
X106382000Y-125247500D02*
X102857250Y-125247500D01*
%TO.N,Net-(D29-Pad2)*%
X112500000Y-124370250D02*
X111650000Y-123520250D01*
X119600000Y-124370250D02*
X112500000Y-124370250D01*
X120450000Y-123520250D02*
X119600000Y-124370250D01*
X122177250Y-125247500D02*
X120450000Y-123520250D01*
X125710000Y-125247500D02*
X122177250Y-125247500D01*
%TO.N,Net-(D30-Pad2)*%
X145000000Y-125247500D02*
X141497250Y-125247500D01*
X141497250Y-125247500D02*
X139770000Y-123520250D01*
X139770000Y-123520250D02*
X138920000Y-124370250D01*
X138920000Y-124370250D02*
X131820000Y-124370250D01*
X131820000Y-124370250D02*
X130970000Y-123520250D01*
%TO.N,Net-(SW1-Pad1)*%
X147050000Y-56300000D02*
X152805000Y-56300000D01*
X145200000Y-56300000D02*
X136900000Y-48000000D01*
X36170000Y-122470250D02*
X41370000Y-122470250D01*
X36170000Y-64673000D02*
X41370000Y-64673000D01*
X36170000Y-103204500D02*
X41370000Y-103204500D01*
X147050000Y-56300000D02*
X145200000Y-56300000D01*
X44327250Y-42450000D02*
X41370000Y-45407250D01*
X152805000Y-56300000D02*
X164070000Y-67565000D01*
X129700000Y-48000000D02*
X124150000Y-42450000D01*
X36170000Y-45407250D02*
X41370000Y-45407250D01*
X136900000Y-48000000D02*
X129700000Y-48000000D01*
X124150000Y-42450000D02*
X44327250Y-42450000D01*
X36170000Y-83938750D02*
X41370000Y-83938750D01*
%TO.N,Net-(SW14-Pad1)*%
X55490000Y-64673000D02*
X55615000Y-64548000D01*
X143700000Y-56200000D02*
X144900000Y-57400000D01*
X144900000Y-57400000D02*
X151365000Y-57400000D01*
X141650000Y-54150000D02*
X143700000Y-56200000D01*
X55490000Y-64673000D02*
X60690000Y-64673000D01*
X62897250Y-43200000D02*
X123900000Y-43200000D01*
X55490000Y-83938750D02*
X60690000Y-83938750D01*
X128000000Y-47300000D02*
X128000000Y-48450000D01*
X55490000Y-122470250D02*
X60690000Y-122470250D01*
X123900000Y-43200000D02*
X128000000Y-47300000D01*
X133700000Y-54150000D02*
X141650000Y-54150000D01*
X151365000Y-57400000D02*
X164070000Y-70105000D01*
X128000000Y-48450000D02*
X133700000Y-54150000D01*
X55490000Y-103204500D02*
X60690000Y-103204500D01*
X60690000Y-45407250D02*
X62897250Y-43200000D01*
X55490000Y-45407250D02*
X60690000Y-45407250D01*
%TO.N,Net-(SW15-Pad1)*%
X149875000Y-58450000D02*
X164070000Y-72645000D01*
X74810000Y-83938750D02*
X80010000Y-83938750D01*
X127600000Y-54400000D02*
X113100000Y-54400000D01*
X107450000Y-43900000D02*
X81517250Y-43900000D01*
X128200000Y-55000000D02*
X127600000Y-54400000D01*
X74810000Y-64673000D02*
X80010000Y-64673000D01*
X140900000Y-55000000D02*
X141500000Y-55600000D01*
X113100000Y-54400000D02*
X109000000Y-50300000D01*
X141500000Y-55600000D02*
X144350000Y-58450000D01*
X109000000Y-45450000D02*
X107450000Y-43900000D01*
X74810000Y-103204500D02*
X80010000Y-103204500D01*
X74810000Y-45407250D02*
X80010000Y-45407250D01*
X140900000Y-55000000D02*
X128200000Y-55000000D01*
X81517250Y-43900000D02*
X80010000Y-45407250D01*
X74810000Y-122470250D02*
X80010000Y-122470250D01*
X144350000Y-58450000D02*
X149875000Y-58450000D01*
X109000000Y-50300000D02*
X109000000Y-45450000D01*
%TO.N,Net-(SW10-Pad1)*%
X153400000Y-85800000D02*
X153455000Y-85800000D01*
X94130000Y-45407250D02*
X99330000Y-45407250D01*
X94130000Y-122470250D02*
X99330000Y-122470250D01*
X153400000Y-85800000D02*
X153400000Y-85855000D01*
X104950250Y-116850000D02*
X99330000Y-122470250D01*
X94130000Y-83938750D02*
X99330000Y-83938750D01*
X94130000Y-103204500D02*
X99330000Y-103204500D01*
X153455000Y-85800000D02*
X164070000Y-75185000D01*
X94130000Y-64673000D02*
X99330000Y-64673000D01*
X149800000Y-111700000D02*
X144650000Y-116850000D01*
X144650000Y-116850000D02*
X104950250Y-116850000D01*
X149800000Y-89455000D02*
X149800000Y-111700000D01*
X153400000Y-85855000D02*
X149800000Y-89455000D01*
%TO.N,Net-(SW11-Pad1)*%
X152300000Y-89450000D02*
X152300000Y-89495000D01*
X152300000Y-89495000D02*
X151000000Y-90795000D01*
X152300000Y-89450000D02*
X152345000Y-89450000D01*
X151000000Y-90795000D02*
X151000000Y-112000000D01*
X152345000Y-89450000D02*
X164070000Y-77725000D01*
X113450000Y-64673000D02*
X118650000Y-64673000D01*
X151000000Y-112000000D02*
X144850000Y-118150000D01*
X113450000Y-122470250D02*
X118650000Y-122470250D01*
X144850000Y-118150000D02*
X122970250Y-118150000D01*
X113450000Y-83938750D02*
X118650000Y-83938750D01*
X113450000Y-45407250D02*
X118650000Y-45407250D01*
X122970250Y-118150000D02*
X118650000Y-122470250D01*
X113450000Y-103204500D02*
X118650000Y-103204500D01*
%TO.N,Net-(SW12-Pad1)*%
X152550000Y-91785000D02*
X152550000Y-111850000D01*
X140890250Y-119550000D02*
X137970000Y-122470250D01*
X144850000Y-119550000D02*
X140890250Y-119550000D01*
X132770000Y-64673000D02*
X137970000Y-64673000D01*
X132770000Y-45407250D02*
X137970000Y-45407250D01*
X154117500Y-90217500D02*
X152550000Y-91785000D01*
X132770000Y-122470250D02*
X137970000Y-122470250D01*
X132770000Y-103204500D02*
X137970000Y-103204500D01*
X152550000Y-111850000D02*
X144850000Y-119550000D01*
X164070000Y-80265000D02*
X154117500Y-90217500D01*
X132770000Y-83938750D02*
X137970000Y-83938750D01*
%TO.N,Net-(BT1-Pad2)*%
X162712500Y-84162500D02*
X164070000Y-82805000D01*
X160100000Y-124600000D02*
X155900000Y-124600000D01*
%TO.N,Net-(SW31-Pad1)*%
X165500000Y-63915000D02*
X165500000Y-102475000D01*
X161700000Y-62485000D02*
X164070000Y-62485000D01*
X165500000Y-102475000D02*
X163500000Y-104475000D01*
X164070000Y-62485000D02*
X165500000Y-63915000D01*
%TO.N,Net-(SW31-Pad2)*%
X163500000Y-98950000D02*
X163500000Y-101935000D01*
X155950000Y-91400000D02*
X163500000Y-98950000D01*
X156415000Y-67565000D02*
X148830000Y-67565000D01*
X157000000Y-68150000D02*
X156415000Y-67565000D01*
%TO.N,Net-(BT1-Pad1)*%
X155900000Y-104495000D02*
X155880000Y-104475000D01*
X155850000Y-113700000D02*
X155900000Y-113650000D01*
X155900000Y-113650000D02*
X155900000Y-104495000D01*
%TO.N,Net-(J1-Pad1)*%
X162010000Y-54865000D02*
X164815000Y-54865000D01*
X164815000Y-54865000D02*
X164850000Y-54900000D01*
%TO.N,Net-(J1-Pad2)*%
X150890000Y-54865000D02*
X153665000Y-54865000D01*
X156240000Y-57440000D02*
X164850000Y-57440000D01*
X153665000Y-54865000D02*
X156240000Y-57440000D01*
%TO.N,Net-(SW31-Pad3)*%
X153725000Y-65025000D02*
X148830000Y-65025000D01*
X154650000Y-65950000D02*
X153725000Y-65025000D01*
%TD*%
M02*
