%TF.GenerationSoftware,KiCad,Pcbnew,(6.0.8)*%
%TF.CreationDate,2023-02-14T19:43:44+07:00*%
%TF.ProjectId,dongle_256o,646f6e67-6c65-45f3-9235-366f2e6b6963,rev?*%
%TF.SameCoordinates,Original*%
%TF.FileFunction,Drillmap*%
%TF.FilePolarity,Positive*%
%FSLAX45Y45*%
G04 Gerber Fmt 4.5, Leading zero omitted, Abs format (unit mm)*
G04 Created by KiCad (PCBNEW (6.0.8)) date 2023-02-14 19:43:44*
%MOMM*%
%LPD*%
G01*
G04 APERTURE LIST*
%ADD10C,0.100000*%
%ADD11C,0.200000*%
%ADD12C,0.500000*%
G04 APERTURE END LIST*
D10*
X16510000Y-5295000D02*
X16595000Y-5380000D01*
X14451000Y-4092000D02*
X14562000Y-4203000D01*
X2791000Y-4201000D02*
X2796000Y-13763000D01*
X14562000Y-4203000D02*
X14562000Y-5232000D01*
X16600000Y-13790000D02*
X16491000Y-13899000D01*
X2932000Y-13899000D02*
X16491000Y-13899000D01*
X2796000Y-13763000D02*
X2932000Y-13899000D01*
X16595000Y-5380000D02*
X16600000Y-13790000D01*
X2900000Y-4092000D02*
X2791000Y-4201000D01*
X2900000Y-4092000D02*
X14451000Y-4092000D01*
X14625000Y-5295000D02*
X16510000Y-5295000D01*
X14562000Y-5232000D02*
X14625000Y-5295000D01*
D11*
D12*
X3627000Y-4865725D02*
X4127000Y-5365725D01*
X4127000Y-4865725D02*
X3627000Y-5365725D01*
X3627000Y-6792300D02*
X4127000Y-7292300D01*
X4127000Y-6792300D02*
X3627000Y-7292300D01*
X3627000Y-8718875D02*
X4127000Y-9218875D01*
X4127000Y-8718875D02*
X3627000Y-9218875D01*
X3627000Y-10645450D02*
X4127000Y-11145450D01*
X4127000Y-10645450D02*
X3627000Y-11145450D01*
X3627000Y-12572025D02*
X4127000Y-13072025D01*
X4127000Y-12572025D02*
X3627000Y-13072025D01*
X5559000Y-4865725D02*
X6059000Y-5365725D01*
X6059000Y-4865725D02*
X5559000Y-5365725D01*
X5559000Y-6792300D02*
X6059000Y-7292300D01*
X6059000Y-6792300D02*
X5559000Y-7292300D01*
X5559000Y-8718875D02*
X6059000Y-9218875D01*
X6059000Y-8718875D02*
X5559000Y-9218875D01*
X5559000Y-10645450D02*
X6059000Y-11145450D01*
X6059000Y-10645450D02*
X5559000Y-11145450D01*
X5559000Y-12572025D02*
X6059000Y-13072025D01*
X6059000Y-12572025D02*
X5559000Y-13072025D01*
X7491000Y-4865725D02*
X7991000Y-5365725D01*
X7991000Y-4865725D02*
X7491000Y-5365725D01*
X7491000Y-6792300D02*
X7991000Y-7292300D01*
X7991000Y-6792300D02*
X7491000Y-7292300D01*
X7491000Y-8718875D02*
X7991000Y-9218875D01*
X7991000Y-8718875D02*
X7491000Y-9218875D01*
X7491000Y-10645450D02*
X7991000Y-11145450D01*
X7991000Y-10645450D02*
X7491000Y-11145450D01*
X7491000Y-12572025D02*
X7991000Y-13072025D01*
X7991000Y-12572025D02*
X7491000Y-13072025D01*
X9423000Y-4865725D02*
X9923000Y-5365725D01*
X9923000Y-4865725D02*
X9423000Y-5365725D01*
X9423000Y-6792300D02*
X9923000Y-7292300D01*
X9923000Y-6792300D02*
X9423000Y-7292300D01*
X9423000Y-8718875D02*
X9923000Y-9218875D01*
X9923000Y-8718875D02*
X9423000Y-9218875D01*
X9423000Y-10645450D02*
X9923000Y-11145450D01*
X9923000Y-10645450D02*
X9423000Y-11145450D01*
X9423000Y-12572025D02*
X9923000Y-13072025D01*
X9923000Y-12572025D02*
X9423000Y-13072025D01*
X11355000Y-4865725D02*
X11855000Y-5365725D01*
X11855000Y-4865725D02*
X11355000Y-5365725D01*
X11355000Y-6792300D02*
X11855000Y-7292300D01*
X11855000Y-6792300D02*
X11355000Y-7292300D01*
X11355000Y-8718875D02*
X11855000Y-9218875D01*
X11855000Y-8718875D02*
X11355000Y-9218875D01*
X11355000Y-10645450D02*
X11855000Y-11145450D01*
X11855000Y-10645450D02*
X11355000Y-11145450D01*
X11355000Y-12572025D02*
X11855000Y-13072025D01*
X11855000Y-12572025D02*
X11355000Y-13072025D01*
X13287000Y-4865725D02*
X13787000Y-5365725D01*
X13787000Y-4865725D02*
X13287000Y-5365725D01*
X13287000Y-6792300D02*
X13787000Y-7292300D01*
X13787000Y-6792300D02*
X13287000Y-7292300D01*
X13287000Y-8718875D02*
X13787000Y-9218875D01*
X13787000Y-8718875D02*
X13287000Y-9218875D01*
X13287000Y-10645450D02*
X13787000Y-11145450D01*
X13787000Y-10645450D02*
X13287000Y-11145450D01*
X13287000Y-12572025D02*
X13787000Y-13072025D01*
X13787000Y-12572025D02*
X13287000Y-13072025D01*
D11*
X3043619Y-14214476D02*
X3043619Y-14014476D01*
X3091238Y-14014476D01*
X3119809Y-14024000D01*
X3138857Y-14043048D01*
X3148381Y-14062095D01*
X3157905Y-14100190D01*
X3157905Y-14128762D01*
X3148381Y-14166857D01*
X3138857Y-14185905D01*
X3119809Y-14204952D01*
X3091238Y-14214476D01*
X3043619Y-14214476D01*
X3243619Y-14214476D02*
X3243619Y-14081143D01*
X3243619Y-14119238D02*
X3253143Y-14100190D01*
X3262667Y-14090667D01*
X3281714Y-14081143D01*
X3300762Y-14081143D01*
X3367428Y-14214476D02*
X3367428Y-14081143D01*
X3367428Y-14014476D02*
X3357905Y-14024000D01*
X3367428Y-14033524D01*
X3376952Y-14024000D01*
X3367428Y-14014476D01*
X3367428Y-14033524D01*
X3491238Y-14214476D02*
X3472190Y-14204952D01*
X3462667Y-14185905D01*
X3462667Y-14014476D01*
X3596000Y-14214476D02*
X3576952Y-14204952D01*
X3567428Y-14185905D01*
X3567428Y-14014476D01*
X3824571Y-14214476D02*
X3824571Y-14014476D01*
X3891238Y-14157333D01*
X3957905Y-14014476D01*
X3957905Y-14214476D01*
X4138857Y-14214476D02*
X4138857Y-14109714D01*
X4129333Y-14090667D01*
X4110286Y-14081143D01*
X4072190Y-14081143D01*
X4053143Y-14090667D01*
X4138857Y-14204952D02*
X4119809Y-14214476D01*
X4072190Y-14214476D01*
X4053143Y-14204952D01*
X4043619Y-14185905D01*
X4043619Y-14166857D01*
X4053143Y-14147809D01*
X4072190Y-14138286D01*
X4119809Y-14138286D01*
X4138857Y-14128762D01*
X4234095Y-14081143D02*
X4234095Y-14281143D01*
X4234095Y-14090667D02*
X4253143Y-14081143D01*
X4291238Y-14081143D01*
X4310286Y-14090667D01*
X4319810Y-14100190D01*
X4329333Y-14119238D01*
X4329333Y-14176381D01*
X4319810Y-14195428D01*
X4310286Y-14204952D01*
X4291238Y-14214476D01*
X4253143Y-14214476D01*
X4234095Y-14204952D01*
X4415048Y-14195428D02*
X4424571Y-14204952D01*
X4415048Y-14214476D01*
X4405524Y-14204952D01*
X4415048Y-14195428D01*
X4415048Y-14214476D01*
X4415048Y-14090667D02*
X4424571Y-14100190D01*
X4415048Y-14109714D01*
X4405524Y-14100190D01*
X4415048Y-14090667D01*
X4415048Y-14109714D01*
X2586000Y-14444000D02*
X2786000Y-14644000D01*
X2786000Y-14444000D02*
X2586000Y-14644000D01*
X3138857Y-14434476D02*
X3043619Y-14434476D01*
X3034095Y-14529714D01*
X3043619Y-14520190D01*
X3062667Y-14510667D01*
X3110286Y-14510667D01*
X3129333Y-14520190D01*
X3138857Y-14529714D01*
X3148381Y-14548762D01*
X3148381Y-14596381D01*
X3138857Y-14615428D01*
X3129333Y-14624952D01*
X3110286Y-14634476D01*
X3062667Y-14634476D01*
X3043619Y-14624952D01*
X3034095Y-14615428D01*
X3234095Y-14615428D02*
X3243619Y-14624952D01*
X3234095Y-14634476D01*
X3224571Y-14624952D01*
X3234095Y-14615428D01*
X3234095Y-14634476D01*
X3367428Y-14434476D02*
X3386476Y-14434476D01*
X3405524Y-14444000D01*
X3415048Y-14453524D01*
X3424571Y-14472571D01*
X3434095Y-14510667D01*
X3434095Y-14558286D01*
X3424571Y-14596381D01*
X3415048Y-14615428D01*
X3405524Y-14624952D01*
X3386476Y-14634476D01*
X3367428Y-14634476D01*
X3348381Y-14624952D01*
X3338857Y-14615428D01*
X3329333Y-14596381D01*
X3319809Y-14558286D01*
X3319809Y-14510667D01*
X3329333Y-14472571D01*
X3338857Y-14453524D01*
X3348381Y-14444000D01*
X3367428Y-14434476D01*
X3557905Y-14434476D02*
X3576952Y-14434476D01*
X3596000Y-14444000D01*
X3605524Y-14453524D01*
X3615048Y-14472571D01*
X3624571Y-14510667D01*
X3624571Y-14558286D01*
X3615048Y-14596381D01*
X3605524Y-14615428D01*
X3596000Y-14624952D01*
X3576952Y-14634476D01*
X3557905Y-14634476D01*
X3538857Y-14624952D01*
X3529333Y-14615428D01*
X3519809Y-14596381D01*
X3510286Y-14558286D01*
X3510286Y-14510667D01*
X3519809Y-14472571D01*
X3529333Y-14453524D01*
X3538857Y-14444000D01*
X3557905Y-14434476D01*
X3748381Y-14434476D02*
X3767428Y-14434476D01*
X3786476Y-14444000D01*
X3796000Y-14453524D01*
X3805524Y-14472571D01*
X3815048Y-14510667D01*
X3815048Y-14558286D01*
X3805524Y-14596381D01*
X3796000Y-14615428D01*
X3786476Y-14624952D01*
X3767428Y-14634476D01*
X3748381Y-14634476D01*
X3729333Y-14624952D01*
X3719809Y-14615428D01*
X3710286Y-14596381D01*
X3700762Y-14558286D01*
X3700762Y-14510667D01*
X3710286Y-14472571D01*
X3719809Y-14453524D01*
X3729333Y-14444000D01*
X3748381Y-14434476D01*
X3900762Y-14634476D02*
X3900762Y-14501143D01*
X3900762Y-14520190D02*
X3910286Y-14510667D01*
X3929333Y-14501143D01*
X3957905Y-14501143D01*
X3976952Y-14510667D01*
X3986476Y-14529714D01*
X3986476Y-14634476D01*
X3986476Y-14529714D02*
X3996000Y-14510667D01*
X4015048Y-14501143D01*
X4043619Y-14501143D01*
X4062667Y-14510667D01*
X4072190Y-14529714D01*
X4072190Y-14634476D01*
X4167428Y-14634476D02*
X4167428Y-14501143D01*
X4167428Y-14520190D02*
X4176952Y-14510667D01*
X4196000Y-14501143D01*
X4224571Y-14501143D01*
X4243619Y-14510667D01*
X4253143Y-14529714D01*
X4253143Y-14634476D01*
X4253143Y-14529714D02*
X4262667Y-14510667D01*
X4281714Y-14501143D01*
X4310286Y-14501143D01*
X4329333Y-14510667D01*
X4338857Y-14529714D01*
X4338857Y-14634476D01*
X4729333Y-14424952D02*
X4557905Y-14682095D01*
X4986476Y-14434476D02*
X5005524Y-14434476D01*
X5024571Y-14444000D01*
X5034095Y-14453524D01*
X5043619Y-14472571D01*
X5053143Y-14510667D01*
X5053143Y-14558286D01*
X5043619Y-14596381D01*
X5034095Y-14615428D01*
X5024571Y-14624952D01*
X5005524Y-14634476D01*
X4986476Y-14634476D01*
X4967429Y-14624952D01*
X4957905Y-14615428D01*
X4948381Y-14596381D01*
X4938857Y-14558286D01*
X4938857Y-14510667D01*
X4948381Y-14472571D01*
X4957905Y-14453524D01*
X4967429Y-14444000D01*
X4986476Y-14434476D01*
X5138857Y-14615428D02*
X5148381Y-14624952D01*
X5138857Y-14634476D01*
X5129333Y-14624952D01*
X5138857Y-14615428D01*
X5138857Y-14634476D01*
X5338857Y-14634476D02*
X5224571Y-14634476D01*
X5281714Y-14634476D02*
X5281714Y-14434476D01*
X5262667Y-14463048D01*
X5243619Y-14482095D01*
X5224571Y-14491619D01*
X5434095Y-14634476D02*
X5472190Y-14634476D01*
X5491238Y-14624952D01*
X5500762Y-14615428D01*
X5519810Y-14586857D01*
X5529333Y-14548762D01*
X5529333Y-14472571D01*
X5519810Y-14453524D01*
X5510286Y-14444000D01*
X5491238Y-14434476D01*
X5453143Y-14434476D01*
X5434095Y-14444000D01*
X5424571Y-14453524D01*
X5415048Y-14472571D01*
X5415048Y-14520190D01*
X5424571Y-14539238D01*
X5434095Y-14548762D01*
X5453143Y-14558286D01*
X5491238Y-14558286D01*
X5510286Y-14548762D01*
X5519810Y-14539238D01*
X5529333Y-14520190D01*
X5700762Y-14434476D02*
X5662667Y-14434476D01*
X5643619Y-14444000D01*
X5634095Y-14453524D01*
X5615048Y-14482095D01*
X5605524Y-14520190D01*
X5605524Y-14596381D01*
X5615048Y-14615428D01*
X5624571Y-14624952D01*
X5643619Y-14634476D01*
X5681714Y-14634476D01*
X5700762Y-14624952D01*
X5710286Y-14615428D01*
X5719809Y-14596381D01*
X5719809Y-14548762D01*
X5710286Y-14529714D01*
X5700762Y-14520190D01*
X5681714Y-14510667D01*
X5643619Y-14510667D01*
X5624571Y-14520190D01*
X5615048Y-14529714D01*
X5605524Y-14548762D01*
X5815048Y-14634476D02*
X5853143Y-14634476D01*
X5872190Y-14624952D01*
X5881714Y-14615428D01*
X5900762Y-14586857D01*
X5910286Y-14548762D01*
X5910286Y-14472571D01*
X5900762Y-14453524D01*
X5891238Y-14444000D01*
X5872190Y-14434476D01*
X5834095Y-14434476D01*
X5815048Y-14444000D01*
X5805524Y-14453524D01*
X5796000Y-14472571D01*
X5796000Y-14520190D01*
X5805524Y-14539238D01*
X5815048Y-14548762D01*
X5834095Y-14558286D01*
X5872190Y-14558286D01*
X5891238Y-14548762D01*
X5900762Y-14539238D01*
X5910286Y-14520190D01*
X5986476Y-14434476D02*
X5986476Y-14472571D01*
X6062667Y-14434476D02*
X6062667Y-14472571D01*
X6357905Y-14710667D02*
X6348381Y-14701143D01*
X6329333Y-14672571D01*
X6319809Y-14653524D01*
X6310286Y-14624952D01*
X6300762Y-14577333D01*
X6300762Y-14539238D01*
X6310286Y-14491619D01*
X6319809Y-14463048D01*
X6329333Y-14444000D01*
X6348381Y-14415428D01*
X6357905Y-14405905D01*
X6415048Y-14434476D02*
X6538857Y-14434476D01*
X6472190Y-14510667D01*
X6500762Y-14510667D01*
X6519809Y-14520190D01*
X6529333Y-14529714D01*
X6538857Y-14548762D01*
X6538857Y-14596381D01*
X6529333Y-14615428D01*
X6519809Y-14624952D01*
X6500762Y-14634476D01*
X6443619Y-14634476D01*
X6424571Y-14624952D01*
X6415048Y-14615428D01*
X6662667Y-14434476D02*
X6681714Y-14434476D01*
X6700762Y-14444000D01*
X6710286Y-14453524D01*
X6719809Y-14472571D01*
X6729333Y-14510667D01*
X6729333Y-14558286D01*
X6719809Y-14596381D01*
X6710286Y-14615428D01*
X6700762Y-14624952D01*
X6681714Y-14634476D01*
X6662667Y-14634476D01*
X6643619Y-14624952D01*
X6634095Y-14615428D01*
X6624571Y-14596381D01*
X6615048Y-14558286D01*
X6615048Y-14510667D01*
X6624571Y-14472571D01*
X6634095Y-14453524D01*
X6643619Y-14444000D01*
X6662667Y-14434476D01*
X6967428Y-14634476D02*
X6967428Y-14434476D01*
X7053143Y-14634476D02*
X7053143Y-14529714D01*
X7043619Y-14510667D01*
X7024571Y-14501143D01*
X6996000Y-14501143D01*
X6976952Y-14510667D01*
X6967428Y-14520190D01*
X7176952Y-14634476D02*
X7157905Y-14624952D01*
X7148381Y-14615428D01*
X7138857Y-14596381D01*
X7138857Y-14539238D01*
X7148381Y-14520190D01*
X7157905Y-14510667D01*
X7176952Y-14501143D01*
X7205524Y-14501143D01*
X7224571Y-14510667D01*
X7234095Y-14520190D01*
X7243619Y-14539238D01*
X7243619Y-14596381D01*
X7234095Y-14615428D01*
X7224571Y-14624952D01*
X7205524Y-14634476D01*
X7176952Y-14634476D01*
X7357905Y-14634476D02*
X7338857Y-14624952D01*
X7329333Y-14605905D01*
X7329333Y-14434476D01*
X7510286Y-14624952D02*
X7491238Y-14634476D01*
X7453143Y-14634476D01*
X7434095Y-14624952D01*
X7424571Y-14605905D01*
X7424571Y-14529714D01*
X7434095Y-14510667D01*
X7453143Y-14501143D01*
X7491238Y-14501143D01*
X7510286Y-14510667D01*
X7519809Y-14529714D01*
X7519809Y-14548762D01*
X7424571Y-14567809D01*
X7596000Y-14624952D02*
X7615048Y-14634476D01*
X7653143Y-14634476D01*
X7672190Y-14624952D01*
X7681714Y-14605905D01*
X7681714Y-14596381D01*
X7672190Y-14577333D01*
X7653143Y-14567809D01*
X7624571Y-14567809D01*
X7605524Y-14558286D01*
X7596000Y-14539238D01*
X7596000Y-14529714D01*
X7605524Y-14510667D01*
X7624571Y-14501143D01*
X7653143Y-14501143D01*
X7672190Y-14510667D01*
X7748381Y-14710667D02*
X7757905Y-14701143D01*
X7776952Y-14672571D01*
X7786476Y-14653524D01*
X7796000Y-14624952D01*
X7805524Y-14577333D01*
X7805524Y-14539238D01*
X7796000Y-14491619D01*
X7786476Y-14463048D01*
X7776952Y-14444000D01*
X7757905Y-14415428D01*
X7748381Y-14405905D01*
X8110286Y-14710667D02*
X8100762Y-14701143D01*
X8081714Y-14672571D01*
X8072190Y-14653524D01*
X8062667Y-14624952D01*
X8053143Y-14577333D01*
X8053143Y-14539238D01*
X8062667Y-14491619D01*
X8072190Y-14463048D01*
X8081714Y-14444000D01*
X8100762Y-14415428D01*
X8110286Y-14405905D01*
X8186476Y-14501143D02*
X8186476Y-14634476D01*
X8186476Y-14520190D02*
X8196000Y-14510667D01*
X8215048Y-14501143D01*
X8243619Y-14501143D01*
X8262667Y-14510667D01*
X8272190Y-14529714D01*
X8272190Y-14634476D01*
X8396000Y-14634476D02*
X8376952Y-14624952D01*
X8367428Y-14615428D01*
X8357905Y-14596381D01*
X8357905Y-14539238D01*
X8367428Y-14520190D01*
X8376952Y-14510667D01*
X8396000Y-14501143D01*
X8424571Y-14501143D01*
X8443619Y-14510667D01*
X8453143Y-14520190D01*
X8462667Y-14539238D01*
X8462667Y-14596381D01*
X8453143Y-14615428D01*
X8443619Y-14624952D01*
X8424571Y-14634476D01*
X8396000Y-14634476D01*
X8519810Y-14501143D02*
X8596000Y-14501143D01*
X8548381Y-14434476D02*
X8548381Y-14605905D01*
X8557905Y-14624952D01*
X8576952Y-14634476D01*
X8596000Y-14634476D01*
X8815048Y-14501143D02*
X8815048Y-14701143D01*
X8815048Y-14510667D02*
X8834095Y-14501143D01*
X8872190Y-14501143D01*
X8891238Y-14510667D01*
X8900762Y-14520190D01*
X8910286Y-14539238D01*
X8910286Y-14596381D01*
X8900762Y-14615428D01*
X8891238Y-14624952D01*
X8872190Y-14634476D01*
X8834095Y-14634476D01*
X8815048Y-14624952D01*
X9024571Y-14634476D02*
X9005524Y-14624952D01*
X8996000Y-14605905D01*
X8996000Y-14434476D01*
X9186476Y-14634476D02*
X9186476Y-14529714D01*
X9176952Y-14510667D01*
X9157905Y-14501143D01*
X9119810Y-14501143D01*
X9100762Y-14510667D01*
X9186476Y-14624952D02*
X9167429Y-14634476D01*
X9119810Y-14634476D01*
X9100762Y-14624952D01*
X9091238Y-14605905D01*
X9091238Y-14586857D01*
X9100762Y-14567809D01*
X9119810Y-14558286D01*
X9167429Y-14558286D01*
X9186476Y-14548762D01*
X9253143Y-14501143D02*
X9329333Y-14501143D01*
X9281714Y-14434476D02*
X9281714Y-14605905D01*
X9291238Y-14624952D01*
X9310286Y-14634476D01*
X9329333Y-14634476D01*
X9472190Y-14624952D02*
X9453143Y-14634476D01*
X9415048Y-14634476D01*
X9396000Y-14624952D01*
X9386476Y-14605905D01*
X9386476Y-14529714D01*
X9396000Y-14510667D01*
X9415048Y-14501143D01*
X9453143Y-14501143D01*
X9472190Y-14510667D01*
X9481714Y-14529714D01*
X9481714Y-14548762D01*
X9386476Y-14567809D01*
X9653143Y-14634476D02*
X9653143Y-14434476D01*
X9653143Y-14624952D02*
X9634095Y-14634476D01*
X9596000Y-14634476D01*
X9576952Y-14624952D01*
X9567429Y-14615428D01*
X9557905Y-14596381D01*
X9557905Y-14539238D01*
X9567429Y-14520190D01*
X9576952Y-14510667D01*
X9596000Y-14501143D01*
X9634095Y-14501143D01*
X9653143Y-14510667D01*
X9729333Y-14710667D02*
X9738857Y-14701143D01*
X9757905Y-14672571D01*
X9767429Y-14653524D01*
X9776952Y-14624952D01*
X9786476Y-14577333D01*
X9786476Y-14539238D01*
X9776952Y-14491619D01*
X9767429Y-14463048D01*
X9757905Y-14444000D01*
X9738857Y-14415428D01*
X9729333Y-14405905D01*
M02*
