%TF.GenerationSoftware,KiCad,Pcbnew,(6.0.8)*%
%TF.CreationDate,2023-02-14T18:00:54+07:00*%
%TF.ProjectId,dongle_256o,646f6e67-6c65-45f3-9235-366f2e6b6963,rev?*%
%TF.SameCoordinates,Original*%
%TF.FileFunction,Copper,L2,Bot*%
%TF.FilePolarity,Positive*%
%FSLAX46Y46*%
G04 Gerber Fmt 4.6, Leading zero omitted, Abs format (unit mm)*
G04 Created by KiCad (PCBNEW (6.0.8)) date 2023-02-14 18:00:54*
%MOMM*%
%LPD*%
G01*
G04 APERTURE LIST*
G04 Aperture macros list*
%AMRoundRect*
0 Rectangle with rounded corners*
0 $1 Rounding radius*
0 $2 $3 $4 $5 $6 $7 $8 $9 X,Y pos of 4 corners*
0 Add a 4 corners polygon primitive as box body*
4,1,4,$2,$3,$4,$5,$6,$7,$8,$9,$2,$3,0*
0 Add four circle primitives for the rounded corners*
1,1,$1+$1,$2,$3*
1,1,$1+$1,$4,$5*
1,1,$1+$1,$6,$7*
1,1,$1+$1,$8,$9*
0 Add four rect primitives between the rounded corners*
20,1,$1+$1,$2,$3,$4,$5,0*
20,1,$1+$1,$4,$5,$6,$7,0*
20,1,$1+$1,$6,$7,$8,$9,0*
20,1,$1+$1,$8,$9,$2,$3,0*%
G04 Aperture macros list end*
%TA.AperFunction,SMDPad,CuDef*%
%ADD10R,1.800000X1.524000*%
%TD*%
%TA.AperFunction,ComponentPad*%
%ADD11R,1.600000X1.600000*%
%TD*%
%TA.AperFunction,ComponentPad*%
%ADD12O,1.600000X1.600000*%
%TD*%
%TA.AperFunction,ComponentPad*%
%ADD13C,1.700000*%
%TD*%
%TA.AperFunction,SMDPad,CuDef*%
%ADD14R,1.524000X1.000000*%
%TD*%
%TA.AperFunction,SMDPad,CuDef*%
%ADD15R,5.100000X1.200000*%
%TD*%
%TA.AperFunction,SMDPad,CuDef*%
%ADD16RoundRect,1.250000X-1.250000X1.250000X-1.250000X-1.250000X1.250000X-1.250000X1.250000X1.250000X0*%
%TD*%
%TA.AperFunction,ViaPad*%
%ADD17C,0.800000*%
%TD*%
%TA.AperFunction,Conductor*%
%ADD18C,0.250000*%
%TD*%
G04 APERTURE END LIST*
D10*
%TO.P,U2,0.02,0.02*%
%TO.N,Net-(SW15-Pad1)*%
X148830000Y-72645000D03*
%TO.P,U2,0.09,0.09*%
%TO.N,Net-(D19-Pad1)*%
X164070000Y-77725000D03*
%TO.P,U2,0.10,0.10*%
%TO.N,Net-(D25-Pad1)*%
X164070000Y-80265000D03*
%TO.P,U2,0.13,0.13*%
%TO.N,Net-(U1-Pad0.13)*%
X164070000Y-59945000D03*
%TO.P,U2,0.15,0.15*%
%TO.N,Net-(U1-Pad0.15)*%
X164070000Y-62485000D03*
%TO.P,U2,0.17,0.17*%
%TO.N,Net-(SW31-Pad3)*%
X164070000Y-65025000D03*
%TO.P,U2,0.20,0.20*%
%TO.N,Net-(SW31-Pad2)*%
X164070000Y-67565000D03*
%TO.P,U2,0.22,0.22*%
%TO.N,Net-(D1-Pad1)*%
X164070000Y-70105000D03*
%TO.P,U2,0.24,0.24*%
%TO.N,Net-(D10-Pad1)*%
X164070000Y-72645000D03*
%TO.P,U2,0.29,0.29*%
%TO.N,Net-(SW14-Pad1)*%
X148830000Y-70105000D03*
%TO.P,U2,0.31,0.31*%
%TO.N,Net-(SW1-Pad1)*%
X148830000Y-67565000D03*
%TO.P,U2,1.00,1.00*%
%TO.N,Net-(D13-Pad1)*%
X164070000Y-75185000D03*
%TO.P,U2,1.10,1.10*%
%TO.N,Net-(SW12-Pad1)*%
X148830000Y-80265000D03*
%TO.P,U2,1.13,1.13*%
%TO.N,Net-(SW11-Pad1)*%
X148830000Y-77725000D03*
%TO.P,U2,1.15,1.15*%
%TO.N,Net-(SW10-Pad1)*%
X148830000Y-75185000D03*
%TO.P,U2,G1,GND*%
%TO.N,Net-(BT1-Pad2)*%
X164070000Y-82805000D03*
%TO.P,U2,G2,GND*%
X148830000Y-82805000D03*
%TO.P,U2,G3,GND*%
X148830000Y-65025000D03*
%TO.P,U2,OUT,OUT*%
%TO.N,Net-(SW31-Pad1)*%
X148830000Y-62485000D03*
%TO.P,U2,SWDCLK,SWDCLK*%
%TO.N,Net-(J1-Pad1)*%
X150890000Y-54865000D03*
%TO.P,U2,SWDIO,SWDIO*%
%TO.N,Net-(J1-Pad2)*%
X162010000Y-54865000D03*
%TO.P,U2,VBUS,VBUS*%
%TO.N,Net-(U1-PadVBUS)*%
X148830000Y-59945000D03*
%TD*%
D11*
%TO.P,D17,1,K*%
%TO.N,Net-(D13-Pad1)*%
X125718000Y-94372500D03*
D12*
%TO.P,D17,2,A*%
%TO.N,Net-(D17-Pad2)*%
X125718000Y-86752500D03*
%TD*%
D13*
%TO.P,SW28,1,COL*%
%TO.N,Net-(SW10-Pad1)*%
X94130000Y-122470250D03*
X99330000Y-122470250D03*
%TO.P,SW28,2,ROW*%
%TO.N,Net-(D28-Pad2)*%
X101130000Y-123520250D03*
X92330000Y-123520250D03*
%TD*%
D11*
%TO.P,D30,1,K*%
%TO.N,Net-(D25-Pad1)*%
X145000000Y-132867500D03*
D12*
%TO.P,D30,2,A*%
%TO.N,Net-(D30-Pad2)*%
X145000000Y-125247500D03*
%TD*%
D11*
%TO.P,D12,1,K*%
%TO.N,Net-(D10-Pad1)*%
X145038000Y-75125000D03*
D12*
%TO.P,D12,2,A*%
%TO.N,Net-(D12-Pad2)*%
X145038000Y-67505000D03*
%TD*%
D11*
%TO.P,D21,1,K*%
%TO.N,Net-(D19-Pad1)*%
X87078000Y-113750000D03*
D12*
%TO.P,D21,2,A*%
%TO.N,Net-(D21-Pad2)*%
X87078000Y-106130000D03*
%TD*%
D11*
%TO.P,D22,1,K*%
%TO.N,Net-(D19-Pad1)*%
X106398000Y-113750000D03*
D12*
%TO.P,D22,2,A*%
%TO.N,Net-(D22-Pad2)*%
X106398000Y-106130000D03*
%TD*%
D13*
%TO.P,SW8,1,COL*%
%TO.N,Net-(SW14-Pad1)*%
X55490000Y-64673000D03*
X60690000Y-64673000D03*
%TO.P,SW8,2,ROW*%
%TO.N,Net-(D8-Pad2)*%
X53690000Y-65723000D03*
X62490000Y-65723000D03*
%TD*%
%TO.P,SW24,1,COL*%
%TO.N,Net-(SW12-Pad1)*%
X137970000Y-103204500D03*
X132770000Y-103204500D03*
%TO.P,SW24,2,ROW*%
%TO.N,Net-(D24-Pad2)*%
X130970000Y-104254500D03*
X139770000Y-104254500D03*
%TD*%
D11*
%TO.P,D5,1,K*%
%TO.N,Net-(D1-Pad1)*%
X125722000Y-55877500D03*
D12*
%TO.P,D5,2,A*%
%TO.N,Net-(D5-Pad2)*%
X125722000Y-48257500D03*
%TD*%
D13*
%TO.P,SW27,1,COL*%
%TO.N,Net-(SW15-Pad1)*%
X74810000Y-122470250D03*
X80010000Y-122470250D03*
%TO.P,SW27,2,ROW*%
%TO.N,Net-(D27-Pad2)*%
X73010000Y-123520250D03*
X81810000Y-123520250D03*
%TD*%
D11*
%TO.P,D27,1,K*%
%TO.N,Net-(D25-Pad1)*%
X87054000Y-132867500D03*
D12*
%TO.P,D27,2,A*%
%TO.N,Net-(D27-Pad2)*%
X87054000Y-125247500D03*
%TD*%
D13*
%TO.P,SW29,1,COL*%
%TO.N,Net-(SW11-Pad1)*%
X113450000Y-122470250D03*
X118650000Y-122470250D03*
%TO.P,SW29,2,ROW*%
%TO.N,Net-(D29-Pad2)*%
X120450000Y-123520250D03*
X111650000Y-123520250D03*
%TD*%
D11*
%TO.P,D20,1,K*%
%TO.N,Net-(D19-Pad1)*%
X67758000Y-113750000D03*
D12*
%TO.P,D20,2,A*%
%TO.N,Net-(D20-Pad2)*%
X67758000Y-106130000D03*
%TD*%
D13*
%TO.P,SW10,1,COL*%
%TO.N,Net-(SW10-Pad1)*%
X99330000Y-64673000D03*
X94130000Y-64673000D03*
%TO.P,SW10,2,ROW*%
%TO.N,Net-(D10-Pad2)*%
X101130000Y-65723000D03*
X92330000Y-65723000D03*
%TD*%
D11*
%TO.P,D4,1,K*%
%TO.N,Net-(D1-Pad1)*%
X106406000Y-55877500D03*
D12*
%TO.P,D4,2,A*%
%TO.N,Net-(D4-Pad2)*%
X106406000Y-48257500D03*
%TD*%
D13*
%TO.P,SW3,1,COL*%
%TO.N,Net-(SW15-Pad1)*%
X74810000Y-45407250D03*
X80010000Y-45407250D03*
%TO.P,SW3,2,ROW*%
%TO.N,Net-(D3-Pad2)*%
X73010000Y-46457250D03*
X81810000Y-46457250D03*
%TD*%
D11*
%TO.P,D29,1,K*%
%TO.N,Net-(D25-Pad1)*%
X125710000Y-132867500D03*
D12*
%TO.P,D29,2,A*%
%TO.N,Net-(D29-Pad2)*%
X125710000Y-125247500D03*
%TD*%
D11*
%TO.P,D16,1,K*%
%TO.N,Net-(D13-Pad1)*%
X106398000Y-94372500D03*
D12*
%TO.P,D16,2,A*%
%TO.N,Net-(D16-Pad2)*%
X106398000Y-86752500D03*
%TD*%
D13*
%TO.P,SW11,1,COL*%
%TO.N,Net-(SW11-Pad1)*%
X113450000Y-64673000D03*
X118650000Y-64673000D03*
%TO.P,SW11,2,ROW*%
%TO.N,Net-(D11-Pad2)*%
X120450000Y-65723000D03*
X111650000Y-65723000D03*
%TD*%
D11*
%TO.P,D18,1,K*%
%TO.N,Net-(D13-Pad1)*%
X145038000Y-94372500D03*
D12*
%TO.P,D18,2,A*%
%TO.N,Net-(D18-Pad2)*%
X145038000Y-86752500D03*
%TD*%
D11*
%TO.P,D26,1,K*%
%TO.N,Net-(D25-Pad1)*%
X67726000Y-132867500D03*
D12*
%TO.P,D26,2,A*%
%TO.N,Net-(D26-Pad2)*%
X67726000Y-125247500D03*
%TD*%
D13*
%TO.P,SW4,1,COL*%
%TO.N,Net-(SW10-Pad1)*%
X99330000Y-45407250D03*
X94130000Y-45407250D03*
%TO.P,SW4,2,ROW*%
%TO.N,Net-(D4-Pad2)*%
X101130000Y-46457250D03*
X92330000Y-46457250D03*
%TD*%
D11*
%TO.P,D3,1,K*%
%TO.N,Net-(D1-Pad1)*%
X87090000Y-55877500D03*
D12*
%TO.P,D3,2,A*%
%TO.N,Net-(D3-Pad2)*%
X87090000Y-48257500D03*
%TD*%
D13*
%TO.P,SW17,1,COL*%
%TO.N,Net-(SW11-Pad1)*%
X118650000Y-83938750D03*
X113450000Y-83938750D03*
%TO.P,SW17,2,ROW*%
%TO.N,Net-(D17-Pad2)*%
X111650000Y-84988750D03*
X120450000Y-84988750D03*
%TD*%
%TO.P,SW19,1,COL*%
%TO.N,Net-(SW1-Pad1)*%
X41370000Y-103204500D03*
X36170000Y-103204500D03*
%TO.P,SW19,2,ROW*%
%TO.N,Net-(D19-Pad2)*%
X34370000Y-104254500D03*
X43170000Y-104254500D03*
%TD*%
%TO.P,SW26,1,COL*%
%TO.N,Net-(SW14-Pad1)*%
X60690000Y-122470250D03*
X55490000Y-122470250D03*
%TO.P,SW26,2,ROW*%
%TO.N,Net-(D26-Pad2)*%
X53690000Y-123520250D03*
X62490000Y-123520250D03*
%TD*%
%TO.P,SW1,1,COL*%
%TO.N,Net-(SW1-Pad1)*%
X36170000Y-45407250D03*
X41370000Y-45407250D03*
%TO.P,SW1,2,ROW*%
%TO.N,Net-(D1-Pad2)*%
X43170000Y-46457250D03*
X34370000Y-46457250D03*
%TD*%
D11*
%TO.P,D7,1,K*%
%TO.N,Net-(D10-Pad1)*%
X48438000Y-75125000D03*
D12*
%TO.P,D7,2,A*%
%TO.N,Net-(D7-Pad2)*%
X48438000Y-67505000D03*
%TD*%
D11*
%TO.P,D11,1,K*%
%TO.N,Net-(D10-Pad1)*%
X125718000Y-75125000D03*
D12*
%TO.P,D11,2,A*%
%TO.N,Net-(D11-Pad2)*%
X125718000Y-67505000D03*
%TD*%
D13*
%TO.P,SW2,1,COL*%
%TO.N,Net-(SW14-Pad1)*%
X60690000Y-45407250D03*
X55490000Y-45407250D03*
%TO.P,SW2,2,ROW*%
%TO.N,Net-(D2-Pad2)*%
X53690000Y-46457250D03*
X62490000Y-46457250D03*
%TD*%
D11*
%TO.P,D14,1,K*%
%TO.N,Net-(D13-Pad1)*%
X67758000Y-94372500D03*
D12*
%TO.P,D14,2,A*%
%TO.N,Net-(D14-Pad2)*%
X67758000Y-86752500D03*
%TD*%
D13*
%TO.P,SW12,1,COL*%
%TO.N,Net-(SW12-Pad1)*%
X132770000Y-64673000D03*
X137970000Y-64673000D03*
%TO.P,SW12,2,ROW*%
%TO.N,Net-(D12-Pad2)*%
X130970000Y-65723000D03*
X139770000Y-65723000D03*
%TD*%
%TO.P,SW23,1,COL*%
%TO.N,Net-(SW11-Pad1)*%
X113450000Y-103204500D03*
X118650000Y-103204500D03*
%TO.P,SW23,2,ROW*%
%TO.N,Net-(D23-Pad2)*%
X111650000Y-104254500D03*
X120450000Y-104254500D03*
%TD*%
%TO.P,SW5,1,COL*%
%TO.N,Net-(SW11-Pad1)*%
X113450000Y-45407250D03*
X118650000Y-45407250D03*
%TO.P,SW5,2,ROW*%
%TO.N,Net-(D5-Pad2)*%
X120450000Y-46457250D03*
X111650000Y-46457250D03*
%TD*%
%TO.P,SW6,1,COL*%
%TO.N,Net-(SW12-Pad1)*%
X132770000Y-45407250D03*
X137970000Y-45407250D03*
%TO.P,SW6,2,ROW*%
%TO.N,Net-(D6-Pad2)*%
X130970000Y-46457250D03*
X139770000Y-46457250D03*
%TD*%
D11*
%TO.P,D25,1,K*%
%TO.N,Net-(D25-Pad1)*%
X48398000Y-132867500D03*
D12*
%TO.P,D25,2,A*%
%TO.N,Net-(D25-Pad2)*%
X48398000Y-125247500D03*
%TD*%
D13*
%TO.P,SW14,1,COL*%
%TO.N,Net-(SW14-Pad1)*%
X60690000Y-83938750D03*
X55490000Y-83938750D03*
%TO.P,SW14,2,ROW*%
%TO.N,Net-(D14-Pad2)*%
X62490000Y-84988750D03*
X53690000Y-84988750D03*
%TD*%
%TO.P,SW20,1,COL*%
%TO.N,Net-(SW14-Pad1)*%
X60690000Y-103204500D03*
X55490000Y-103204500D03*
%TO.P,SW20,2,ROW*%
%TO.N,Net-(D20-Pad2)*%
X62490000Y-104254500D03*
X53690000Y-104254500D03*
%TD*%
D11*
%TO.P,D9,1,K*%
%TO.N,Net-(D10-Pad1)*%
X87078000Y-75125000D03*
D12*
%TO.P,D9,2,A*%
%TO.N,Net-(D9-Pad2)*%
X87078000Y-67505000D03*
%TD*%
D11*
%TO.P,D19,1,K*%
%TO.N,Net-(D19-Pad1)*%
X48438000Y-113750000D03*
D12*
%TO.P,D19,2,A*%
%TO.N,Net-(D19-Pad2)*%
X48438000Y-106130000D03*
%TD*%
D11*
%TO.P,D15,1,K*%
%TO.N,Net-(D13-Pad1)*%
X87078000Y-94372500D03*
D12*
%TO.P,D15,2,A*%
%TO.N,Net-(D15-Pad2)*%
X87078000Y-86752500D03*
%TD*%
D11*
%TO.P,D2,1,K*%
%TO.N,Net-(D1-Pad1)*%
X67774000Y-55877500D03*
D12*
%TO.P,D2,2,A*%
%TO.N,Net-(D2-Pad2)*%
X67774000Y-48257500D03*
%TD*%
D11*
%TO.P,D13,1,K*%
%TO.N,Net-(D13-Pad1)*%
X48438000Y-94372500D03*
D12*
%TO.P,D13,2,A*%
%TO.N,Net-(D13-Pad2)*%
X48438000Y-86752500D03*
%TD*%
D13*
%TO.P,SW15,1,COL*%
%TO.N,Net-(SW15-Pad1)*%
X74810000Y-83938750D03*
X80010000Y-83938750D03*
%TO.P,SW15,2,ROW*%
%TO.N,Net-(D15-Pad2)*%
X73010000Y-84988750D03*
X81810000Y-84988750D03*
%TD*%
%TO.P,SW30,1,COL*%
%TO.N,Net-(SW12-Pad1)*%
X132770000Y-122470250D03*
X137970000Y-122470250D03*
%TO.P,SW30,2,ROW*%
%TO.N,Net-(D30-Pad2)*%
X130970000Y-123520250D03*
X139770000Y-123520250D03*
%TD*%
%TO.P,SW18,1,COL*%
%TO.N,Net-(SW12-Pad1)*%
X132770000Y-83938750D03*
X137970000Y-83938750D03*
%TO.P,SW18,2,ROW*%
%TO.N,Net-(D18-Pad2)*%
X139770000Y-84988750D03*
X130970000Y-84988750D03*
%TD*%
D11*
%TO.P,SW31,1*%
%TO.N,Net-(SW31-Pad1)*%
X163500000Y-104475000D03*
D12*
%TO.P,SW31,2*%
%TO.N,Net-(SW31-Pad2)*%
X163500000Y-101935000D03*
%TO.P,SW31,3*%
%TO.N,Net-(SW31-Pad3)*%
X155880000Y-101935000D03*
%TO.P,SW31,4*%
%TO.N,Net-(BT1-Pad1)*%
X155880000Y-104475000D03*
%TD*%
D11*
%TO.P,D6,1,K*%
%TO.N,Net-(D1-Pad1)*%
X144900000Y-61710000D03*
D12*
%TO.P,D6,2,A*%
%TO.N,Net-(D6-Pad2)*%
X144900000Y-54090000D03*
%TD*%
D13*
%TO.P,SW9,1,COL*%
%TO.N,Net-(SW15-Pad1)*%
X80010000Y-64673000D03*
X74810000Y-64673000D03*
%TO.P,SW9,2,ROW*%
%TO.N,Net-(D9-Pad2)*%
X81810000Y-65723000D03*
X73010000Y-65723000D03*
%TD*%
%TO.P,SW21,1,COL*%
%TO.N,Net-(SW15-Pad1)*%
X80010000Y-103204500D03*
X74810000Y-103204500D03*
%TO.P,SW21,2,ROW*%
%TO.N,Net-(D21-Pad2)*%
X73010000Y-104254500D03*
X81810000Y-104254500D03*
%TD*%
%TO.P,SW16,1,COL*%
%TO.N,Net-(SW10-Pad1)*%
X94130000Y-83938750D03*
X99330000Y-83938750D03*
%TO.P,SW16,2,ROW*%
%TO.N,Net-(D16-Pad2)*%
X101130000Y-84988750D03*
X92330000Y-84988750D03*
%TD*%
D11*
%TO.P,D28,1,K*%
%TO.N,Net-(D25-Pad1)*%
X106382000Y-132867500D03*
D12*
%TO.P,D28,2,A*%
%TO.N,Net-(D28-Pad2)*%
X106382000Y-125247500D03*
%TD*%
D13*
%TO.P,SW13,1,COL*%
%TO.N,Net-(SW1-Pad1)*%
X41370000Y-83938750D03*
X36170000Y-83938750D03*
%TO.P,SW13,2,ROW*%
%TO.N,Net-(D13-Pad2)*%
X43170000Y-84988750D03*
X34370000Y-84988750D03*
%TD*%
D11*
%TO.P,D8,1,K*%
%TO.N,Net-(D10-Pad1)*%
X67758000Y-75125000D03*
D12*
%TO.P,D8,2,A*%
%TO.N,Net-(D8-Pad2)*%
X67758000Y-67505000D03*
%TD*%
D13*
%TO.P,SW7,1,COL*%
%TO.N,Net-(SW1-Pad1)*%
X41370000Y-64673000D03*
X36170000Y-64673000D03*
%TO.P,SW7,2,ROW*%
%TO.N,Net-(D7-Pad2)*%
X34370000Y-65723000D03*
X43170000Y-65723000D03*
%TD*%
D11*
%TO.P,D23,1,K*%
%TO.N,Net-(D19-Pad1)*%
X125718000Y-113750000D03*
D12*
%TO.P,D23,2,A*%
%TO.N,Net-(D23-Pad2)*%
X125718000Y-106130000D03*
%TD*%
D11*
%TO.P,D24,1,K*%
%TO.N,Net-(D19-Pad1)*%
X145000000Y-113750000D03*
D12*
%TO.P,D24,2,A*%
%TO.N,Net-(D24-Pad2)*%
X145000000Y-106130000D03*
%TD*%
D13*
%TO.P,SW22,1,COL*%
%TO.N,Net-(SW10-Pad1)*%
X99330000Y-103204500D03*
X94130000Y-103204500D03*
%TO.P,SW22,2,ROW*%
%TO.N,Net-(D22-Pad2)*%
X92330000Y-104254500D03*
X101130000Y-104254500D03*
%TD*%
%TO.P,SW25,1,COL*%
%TO.N,Net-(SW1-Pad1)*%
X41370000Y-122470250D03*
X36170000Y-122470250D03*
%TO.P,SW25,2,ROW*%
%TO.N,Net-(D25-Pad2)*%
X43170000Y-123520250D03*
X34370000Y-123520250D03*
%TD*%
D11*
%TO.P,D1,1,K*%
%TO.N,Net-(D1-Pad1)*%
X48458000Y-55877500D03*
D12*
%TO.P,D1,2,A*%
%TO.N,Net-(D1-Pad2)*%
X48458000Y-48257500D03*
%TD*%
D11*
%TO.P,D10,1,K*%
%TO.N,Net-(D10-Pad1)*%
X106398000Y-75125000D03*
D12*
%TO.P,D10,2,A*%
%TO.N,Net-(D10-Pad2)*%
X106398000Y-67505000D03*
%TD*%
D14*
%TO.P,J1,1,Pin_1*%
%TO.N,Net-(J1-Pad1)*%
X164850000Y-57425000D03*
%TO.P,J1,2,Pin_2*%
%TO.N,Net-(J1-Pad2)*%
X164850000Y-54885000D03*
%TD*%
D15*
%TO.P,BT2,1,+*%
%TO.N,Net-(BT1-Pad1)*%
X155900000Y-113700000D03*
X155900000Y-135500000D03*
D16*
%TO.P,BT2,2,-*%
%TO.N,Net-(BT1-Pad2)*%
X155900000Y-124600000D03*
%TD*%
D17*
%TO.N,Net-(D1-Pad1)*%
X158795000Y-70105000D03*
%TO.N,Net-(D10-Pad1)*%
X160250000Y-72645000D03*
%TO.N,Net-(D13-Pad1)*%
X160200000Y-75185000D03*
%TO.N,Net-(D19-Pad1)*%
X158850000Y-77725000D03*
%TO.N,Net-(D25-Pad1)*%
X150865000Y-126915000D03*
X150865000Y-82300000D03*
X157335000Y-80265000D03*
%TO.N,Net-(SW1-Pad1)*%
X147050000Y-56300000D03*
%TO.N,Net-(SW14-Pad1)*%
X143700000Y-56200000D03*
%TO.N,Net-(SW15-Pad1)*%
X141500000Y-55600000D03*
%TO.N,Net-(SW10-Pad1)*%
X153400000Y-85800000D03*
%TO.N,Net-(SW11-Pad1)*%
X152300000Y-89450000D03*
%TO.N,Net-(BT1-Pad2)*%
X160100000Y-124600000D03*
X162712500Y-84162500D03*
%TO.N,Net-(SW31-Pad1)*%
X161700000Y-62485000D03*
%TO.N,Net-(SW31-Pad2)*%
X157000000Y-68150000D03*
X155950000Y-91400000D03*
%TO.N,Net-(SW31-Pad3)*%
X154650000Y-65950000D03*
%TD*%
D18*
%TO.N,Net-(D1-Pad1)*%
X158795000Y-70105000D02*
X164070000Y-70105000D01*
%TO.N,Net-(D10-Pad1)*%
X164070000Y-72645000D02*
X160250000Y-72645000D01*
%TO.N,Net-(D13-Pad1)*%
X160200000Y-75185000D02*
X164070000Y-75185000D01*
%TO.N,Net-(D19-Pad1)*%
X164070000Y-77725000D02*
X158850000Y-77725000D01*
%TO.N,Net-(D25-Pad1)*%
X164070000Y-80265000D02*
X157335000Y-80265000D01*
X150865000Y-82300000D02*
X150865000Y-126915000D01*
%TO.N,Net-(SW1-Pad1)*%
X41370000Y-66920000D02*
X43050000Y-68600000D01*
X41370000Y-47420000D02*
X43200000Y-49250000D01*
X43100000Y-87750000D02*
X43100000Y-101474500D01*
X41370000Y-45407250D02*
X41370000Y-47420000D01*
X147050000Y-65785000D02*
X148830000Y-67565000D01*
X43200000Y-62843000D02*
X41370000Y-64673000D01*
X41370000Y-86020000D02*
X43100000Y-87750000D01*
X41370000Y-105170000D02*
X43100000Y-106900000D01*
X43050000Y-82258750D02*
X41370000Y-83938750D01*
X41370000Y-83938750D02*
X41370000Y-86020000D01*
X147050000Y-56300000D02*
X147050000Y-65785000D01*
X41370000Y-64673000D02*
X41370000Y-66920000D01*
X43100000Y-120740250D02*
X41370000Y-122470250D01*
X43100000Y-106900000D02*
X43100000Y-120740250D01*
X43200000Y-49250000D02*
X43200000Y-62843000D01*
X41370000Y-103204500D02*
X41370000Y-105170000D01*
X43100000Y-101474500D02*
X41370000Y-103204500D01*
X43050000Y-68600000D02*
X43050000Y-82258750D01*
%TO.N,Net-(SW14-Pad1)*%
X60690000Y-45407250D02*
X60690000Y-47440000D01*
X60690000Y-66890000D02*
X62500000Y-68700000D01*
X62500000Y-82128750D02*
X60690000Y-83938750D01*
X62450000Y-88200000D02*
X62450000Y-101444500D01*
X62450000Y-101444500D02*
X60690000Y-103204500D01*
X60690000Y-86440000D02*
X62450000Y-88200000D01*
X62350000Y-120810250D02*
X60690000Y-122470250D01*
X60690000Y-103204500D02*
X60690000Y-105690000D01*
X142850000Y-68200000D02*
X144755000Y-70105000D01*
X62500000Y-68700000D02*
X62500000Y-82128750D01*
X60690000Y-47440000D02*
X62400000Y-49150000D01*
X62400000Y-62963000D02*
X60690000Y-64673000D01*
X62400000Y-49150000D02*
X62400000Y-62963000D01*
X60690000Y-105690000D02*
X62350000Y-107350000D01*
X143700000Y-56200000D02*
X142850000Y-57050000D01*
X144755000Y-70105000D02*
X148830000Y-70105000D01*
X142850000Y-57050000D02*
X142850000Y-68200000D01*
X60690000Y-64673000D02*
X60690000Y-66890000D01*
X62350000Y-107350000D02*
X62350000Y-120810250D01*
X60690000Y-83938750D02*
X60690000Y-86440000D01*
%TO.N,Net-(SW15-Pad1)*%
X81650000Y-63033000D02*
X80010000Y-64673000D01*
X81750000Y-87850000D02*
X81750000Y-101464500D01*
X80010000Y-103204500D02*
X80010000Y-105760000D01*
X141500000Y-68850000D02*
X145295000Y-72645000D01*
X80010000Y-64673000D02*
X80010000Y-66960000D01*
X80010000Y-105760000D02*
X81650000Y-107400000D01*
X80010000Y-45407250D02*
X80010000Y-47860000D01*
X141500000Y-55600000D02*
X141500000Y-68850000D01*
X81800000Y-68750000D02*
X81800000Y-82148750D01*
X81650000Y-49500000D02*
X81650000Y-63033000D01*
X80010000Y-83938750D02*
X80010000Y-86110000D01*
X81650000Y-107400000D02*
X81650000Y-120830250D01*
X81800000Y-82148750D02*
X80010000Y-83938750D01*
X145295000Y-72645000D02*
X148830000Y-72645000D01*
X80010000Y-66960000D02*
X81800000Y-68750000D01*
X80010000Y-47860000D02*
X81650000Y-49500000D01*
X80010000Y-86110000D02*
X81750000Y-87850000D01*
X81650000Y-120830250D02*
X80010000Y-122470250D01*
X81750000Y-101464500D02*
X80010000Y-103204500D01*
%TO.N,Net-(SW10-Pad1)*%
X101050000Y-120750250D02*
X99330000Y-122470250D01*
X99330000Y-103204500D02*
X99330000Y-105130000D01*
X101000000Y-68800000D02*
X101000000Y-82268750D01*
X99330000Y-45407250D02*
X99330000Y-47930000D01*
X100600000Y-87850000D02*
X100600000Y-101934500D01*
X153400000Y-85800000D02*
X153400000Y-79755000D01*
X99330000Y-83938750D02*
X99330000Y-86580000D01*
X101050000Y-106850000D02*
X101050000Y-120750250D01*
X99330000Y-47930000D02*
X100900000Y-49500000D01*
X100600000Y-101934500D02*
X99330000Y-103204500D01*
X99330000Y-67130000D02*
X101000000Y-68800000D01*
X99330000Y-64673000D02*
X99330000Y-67130000D01*
X100900000Y-63103000D02*
X99330000Y-64673000D01*
X101000000Y-82268750D02*
X99330000Y-83938750D01*
X99330000Y-105130000D02*
X101050000Y-106850000D01*
X100900000Y-49500000D02*
X100900000Y-63103000D01*
X153400000Y-79755000D02*
X148830000Y-75185000D01*
X99330000Y-86580000D02*
X100600000Y-87850000D01*
%TO.N,Net-(SW11-Pad1)*%
X120150000Y-63173000D02*
X118650000Y-64673000D01*
X118650000Y-67300000D02*
X120250000Y-68900000D01*
X152300000Y-81195000D02*
X148830000Y-77725000D01*
X118650000Y-64673000D02*
X118650000Y-67300000D01*
X118650000Y-105600000D02*
X120250000Y-107200000D01*
X120250000Y-87750000D02*
X120250000Y-101604500D01*
X120250000Y-120870250D02*
X118650000Y-122470250D01*
X120250000Y-82338750D02*
X118650000Y-83938750D01*
X120250000Y-68900000D02*
X120250000Y-82338750D01*
X152300000Y-89450000D02*
X152300000Y-81195000D01*
X118650000Y-103204500D02*
X118650000Y-105600000D01*
X118650000Y-47700000D02*
X120150000Y-49200000D01*
X120250000Y-101604500D02*
X118650000Y-103204500D01*
X120150000Y-49200000D02*
X120150000Y-63173000D01*
X120250000Y-107200000D02*
X120250000Y-120870250D01*
X118650000Y-86150000D02*
X120250000Y-87750000D01*
X118650000Y-45407250D02*
X118650000Y-47700000D01*
X118650000Y-83938750D02*
X118650000Y-86150000D01*
%TO.N,Net-(SW12-Pad1)*%
X137970000Y-45407250D02*
X137970000Y-47870000D01*
X139400000Y-87950000D02*
X139400000Y-101774500D01*
X139600000Y-68850000D02*
X139600000Y-80300000D01*
X139635000Y-80265000D02*
X139600000Y-80300000D01*
X148830000Y-80265000D02*
X139635000Y-80265000D01*
X139600000Y-82308750D02*
X137970000Y-83938750D01*
X139400000Y-106850000D02*
X139400000Y-121040250D01*
X137970000Y-64673000D02*
X137970000Y-67220000D01*
X137970000Y-105420000D02*
X139400000Y-106850000D01*
X139600000Y-49500000D02*
X139600000Y-63043000D01*
X137970000Y-83938750D02*
X137970000Y-86520000D01*
X139400000Y-101774500D02*
X137970000Y-103204500D01*
X137970000Y-103204500D02*
X137970000Y-105420000D01*
X139600000Y-63043000D02*
X137970000Y-64673000D01*
X137970000Y-86520000D02*
X139400000Y-87950000D01*
X137970000Y-47870000D02*
X139600000Y-49500000D01*
X139400000Y-121040250D02*
X137970000Y-122470250D01*
X139600000Y-80300000D02*
X139600000Y-82308750D01*
X137970000Y-67220000D02*
X139600000Y-68850000D01*
%TO.N,Net-(BT1-Pad2)*%
X160100000Y-86775000D02*
X160100000Y-99350000D01*
X160145000Y-99395000D02*
X160100000Y-99350000D01*
X162712500Y-84162500D02*
X164070000Y-82805000D01*
X160100000Y-99350000D02*
X160100000Y-124600000D01*
X160100000Y-124600000D02*
X155900000Y-124600000D01*
X162712500Y-84162500D02*
X160100000Y-86775000D01*
%TO.N,Net-(SW31-Pad1)*%
X148830000Y-62485000D02*
X161700000Y-62485000D01*
%TO.N,Net-(SW31-Pad2)*%
X157585000Y-67565000D02*
X164070000Y-67565000D01*
X155950000Y-69200000D02*
X155950000Y-91400000D01*
X157000000Y-68150000D02*
X157585000Y-67565000D01*
X157000000Y-68150000D02*
X155950000Y-69200000D01*
%TO.N,Net-(BT1-Pad1)*%
X155900000Y-104495000D02*
X155880000Y-104475000D01*
X155850000Y-113700000D02*
X155900000Y-113650000D01*
X155900000Y-113650000D02*
X155900000Y-104495000D01*
%TO.N,Net-(J1-Pad1)*%
X150890000Y-54865000D02*
X153665000Y-54865000D01*
X156225000Y-57425000D02*
X164850000Y-57425000D01*
X153665000Y-54865000D02*
X156225000Y-57425000D01*
%TO.N,Net-(J1-Pad2)*%
X161990000Y-54885000D02*
X162010000Y-54865000D01*
X164850000Y-54885000D02*
X162030000Y-54885000D01*
X162030000Y-54885000D02*
X162010000Y-54865000D01*
%TO.N,Net-(SW31-Pad3)*%
X154650000Y-100705000D02*
X155880000Y-101935000D01*
X155575000Y-65025000D02*
X164070000Y-65025000D01*
X154650000Y-65950000D02*
X154650000Y-100705000D01*
X154650000Y-65950000D02*
X155575000Y-65025000D01*
%TD*%
M02*
