%TF.GenerationSoftware,KiCad,Pcbnew,(6.0.8)*%
%TF.CreationDate,2023-02-14T17:54:26+07:00*%
%TF.ProjectId,dongle_256,646f6e67-6c65-45f3-9235-362e6b696361,rev?*%
%TF.SameCoordinates,Original*%
%TF.FileFunction,Profile,NP*%
%FSLAX46Y46*%
G04 Gerber Fmt 4.6, Leading zero omitted, Abs format (unit mm)*
G04 Created by KiCad (PCBNEW (6.0.8)) date 2023-02-14 17:54:26*
%MOMM*%
%LPD*%
G01*
G04 APERTURE LIST*
%TA.AperFunction,Profile*%
%ADD10C,0.100000*%
%TD*%
G04 APERTURE END LIST*
D10*
X164200000Y-147050000D02*
X145500000Y-147050000D01*
X67900000Y-36600000D02*
X86550000Y-36600000D01*
X87350000Y-31100000D02*
X106050000Y-31100000D01*
X27700000Y-42850000D02*
X29150000Y-41400000D01*
X87000000Y-36150000D02*
X87000000Y-31450000D01*
X106450000Y-36250000D02*
X106800000Y-36600000D01*
X29150000Y-41400000D02*
X67100000Y-41400000D01*
X125300000Y-36600000D02*
X125750000Y-37050000D01*
X166050000Y-145200000D02*
X164200000Y-147050000D01*
X144600000Y-146150000D02*
X144600000Y-139050000D01*
X125750000Y-37050000D02*
X125750000Y-41200000D01*
X144800000Y-41550000D02*
X145100000Y-41850000D01*
X27700000Y-117100000D02*
X27700000Y-42850000D01*
X145300000Y-53300000D02*
X164800000Y-53300000D01*
X143900000Y-138350000D02*
X48950000Y-138350000D01*
X144600000Y-139050000D02*
X143900000Y-138350000D01*
X86550000Y-36600000D02*
X87000000Y-36150000D01*
X125750000Y-41200000D02*
X126100000Y-41550000D01*
X106800000Y-36600000D02*
X125300000Y-36600000D01*
X164800000Y-53300000D02*
X166050000Y-54550000D01*
X145300000Y-53300000D02*
X145100000Y-53100000D01*
X48950000Y-138350000D02*
X27700000Y-117100000D01*
X145100000Y-41850000D02*
X145100000Y-53100000D01*
X67500000Y-41000000D02*
X67500000Y-37000000D01*
X106450000Y-31500000D02*
X106450000Y-36250000D01*
X67100000Y-41400000D02*
X67500000Y-41000000D01*
X166050000Y-145200000D02*
X166050000Y-54550000D01*
X67500000Y-37000000D02*
X67900000Y-36600000D01*
X145500000Y-147050000D02*
X144600000Y-146150000D01*
X126100000Y-41550000D02*
X144800000Y-41550000D01*
X106050000Y-31100000D02*
X106450000Y-31500000D01*
X87000000Y-31450000D02*
X87350000Y-31100000D01*
M02*
