%TF.GenerationSoftware,KiCad,Pcbnew,(6.0.8)*%
%TF.CreationDate,2023-02-14T17:54:26+07:00*%
%TF.ProjectId,dongle_256,646f6e67-6c65-45f3-9235-362e6b696361,rev?*%
%TF.SameCoordinates,Original*%
%TF.FileFunction,Copper,L2,Bot*%
%TF.FilePolarity,Positive*%
%FSLAX46Y46*%
G04 Gerber Fmt 4.6, Leading zero omitted, Abs format (unit mm)*
G04 Created by KiCad (PCBNEW (6.0.8)) date 2023-02-14 17:54:26*
%MOMM*%
%LPD*%
G01*
G04 APERTURE LIST*
G04 Aperture macros list*
%AMRoundRect*
0 Rectangle with rounded corners*
0 $1 Rounding radius*
0 $2 $3 $4 $5 $6 $7 $8 $9 X,Y pos of 4 corners*
0 Add a 4 corners polygon primitive as box body*
4,1,4,$2,$3,$4,$5,$6,$7,$8,$9,$2,$3,0*
0 Add four circle primitives for the rounded corners*
1,1,$1+$1,$2,$3*
1,1,$1+$1,$4,$5*
1,1,$1+$1,$6,$7*
1,1,$1+$1,$8,$9*
0 Add four rect primitives between the rounded corners*
20,1,$1+$1,$2,$3,$4,$5,0*
20,1,$1+$1,$4,$5,$6,$7,0*
20,1,$1+$1,$6,$7,$8,$9,0*
20,1,$1+$1,$8,$9,$2,$3,0*%
G04 Aperture macros list end*
%TA.AperFunction,ComponentPad*%
%ADD10R,1.600000X1.600000*%
%TD*%
%TA.AperFunction,ComponentPad*%
%ADD11O,1.600000X1.600000*%
%TD*%
%TA.AperFunction,ComponentPad*%
%ADD12C,1.700000*%
%TD*%
%TA.AperFunction,SMDPad,CuDef*%
%ADD13R,5.100000X1.200000*%
%TD*%
%TA.AperFunction,SMDPad,CuDef*%
%ADD14RoundRect,1.250000X-1.250000X1.250000X-1.250000X-1.250000X1.250000X-1.250000X1.250000X1.250000X0*%
%TD*%
%TA.AperFunction,SMDPad,CuDef*%
%ADD15R,1.524000X1.000000*%
%TD*%
%TA.AperFunction,SMDPad,CuDef*%
%ADD16R,1.800000X1.524000*%
%TD*%
%TA.AperFunction,ViaPad*%
%ADD17C,0.800000*%
%TD*%
%TA.AperFunction,Conductor*%
%ADD18C,0.250000*%
%TD*%
G04 APERTURE END LIST*
D10*
%TO.P,D17,1,K*%
%TO.N,Net-(D13-Pad1)*%
X125830000Y-92787500D03*
D11*
%TO.P,D17,2,A*%
%TO.N,Net-(D17-Pad2)*%
X125830000Y-85167500D03*
%TD*%
D12*
%TO.P,SW28,1,COL*%
%TO.N,Net-(SW10-Pad1)*%
X113360000Y-117485500D03*
X118560000Y-117485500D03*
%TO.P,SW28,2,ROW*%
%TO.N,Net-(D28-Pad2)*%
X120360000Y-118535500D03*
X111560000Y-118535500D03*
%TD*%
D10*
%TO.P,D30,1,K*%
%TO.N,Net-(D25-Pad1)*%
X164300000Y-139810000D03*
D11*
%TO.P,D30,2,A*%
%TO.N,Net-(D30-Pad2)*%
X164300000Y-132190000D03*
%TD*%
D10*
%TO.P,D12,1,K*%
%TO.N,Net-(D10-Pad1)*%
X144900000Y-80505000D03*
D11*
%TO.P,D12,2,A*%
%TO.N,Net-(D12-Pad2)*%
X144900000Y-72885000D03*
%TD*%
D10*
%TO.P,D21,1,K*%
%TO.N,Net-(D19-Pad1)*%
X86800000Y-106855000D03*
D11*
%TO.P,D21,2,A*%
%TO.N,Net-(D21-Pad2)*%
X86800000Y-99235000D03*
%TD*%
D10*
%TO.P,D22,1,K*%
%TO.N,Net-(D19-Pad1)*%
X106400000Y-106200000D03*
D11*
%TO.P,D22,2,A*%
%TO.N,Net-(D22-Pad2)*%
X106400000Y-98580000D03*
%TD*%
D12*
%TO.P,SW8,1,COL*%
%TO.N,Net-(SW14-Pad1)*%
X55490000Y-64673000D03*
X60690000Y-64673000D03*
%TO.P,SW8,2,ROW*%
%TO.N,Net-(D8-Pad2)*%
X53690000Y-65723000D03*
X62490000Y-65723000D03*
%TD*%
%TO.P,SW24,1,COL*%
%TO.N,Net-(SW12-Pad1)*%
X137970000Y-103204500D03*
X132770000Y-103204500D03*
%TO.P,SW24,2,ROW*%
%TO.N,Net-(D24-Pad2)*%
X130970000Y-104254500D03*
X139770000Y-104254500D03*
%TD*%
D10*
%TO.P,D5,1,K*%
%TO.N,Net-(D1-Pad1)*%
X125834000Y-54292500D03*
D11*
%TO.P,D5,2,A*%
%TO.N,Net-(D5-Pad2)*%
X125834000Y-46672500D03*
%TD*%
D12*
%TO.P,SW27,1,COL*%
%TO.N,Net-(SW15-Pad1)*%
X94080000Y-111945500D03*
X99280000Y-111945500D03*
%TO.P,SW27,2,ROW*%
%TO.N,Net-(D27-Pad2)*%
X92280000Y-112995500D03*
X101080000Y-112995500D03*
%TD*%
D10*
%TO.P,D27,1,K*%
%TO.N,Net-(D25-Pad1)*%
X106366000Y-125410250D03*
D11*
%TO.P,D27,2,A*%
%TO.N,Net-(D27-Pad2)*%
X106366000Y-117790250D03*
%TD*%
D12*
%TO.P,SW29,1,COL*%
%TO.N,Net-(SW11-Pad1)*%
X132760000Y-122433000D03*
X137960000Y-122433000D03*
%TO.P,SW29,2,ROW*%
%TO.N,Net-(D29-Pad2)*%
X139760000Y-123483000D03*
X130960000Y-123483000D03*
%TD*%
D10*
%TO.P,D20,1,K*%
%TO.N,Net-(D19-Pad1)*%
X67850000Y-111849750D03*
D11*
%TO.P,D20,2,A*%
%TO.N,Net-(D20-Pad2)*%
X67850000Y-104229750D03*
%TD*%
D12*
%TO.P,SW10,1,COL*%
%TO.N,Net-(SW10-Pad1)*%
X99290000Y-54185500D03*
X94090000Y-54185500D03*
%TO.P,SW10,2,ROW*%
%TO.N,Net-(D10-Pad2)*%
X101090000Y-55235500D03*
X92290000Y-55235500D03*
%TD*%
D10*
%TO.P,D4,1,K*%
%TO.N,Net-(D1-Pad1)*%
X106408000Y-48457500D03*
D11*
%TO.P,D4,2,A*%
%TO.N,Net-(D4-Pad2)*%
X106408000Y-40837500D03*
%TD*%
D12*
%TO.P,SW3,1,COL*%
%TO.N,Net-(SW15-Pad1)*%
X74730000Y-40459750D03*
X79930000Y-40459750D03*
%TO.P,SW3,2,ROW*%
%TO.N,Net-(D3-Pad2)*%
X72930000Y-41509750D03*
X81730000Y-41509750D03*
%TD*%
D10*
%TO.P,D29,1,K*%
%TO.N,Net-(D25-Pad1)*%
X144870000Y-136367500D03*
D11*
%TO.P,D29,2,A*%
%TO.N,Net-(D29-Pad2)*%
X144870000Y-128747500D03*
%TD*%
D10*
%TO.P,D16,1,K*%
%TO.N,Net-(D13-Pad1)*%
X106400000Y-86952500D03*
D11*
%TO.P,D16,2,A*%
%TO.N,Net-(D16-Pad2)*%
X106400000Y-79332500D03*
%TD*%
D12*
%TO.P,SW11,1,COL*%
%TO.N,Net-(SW11-Pad1)*%
X113370000Y-59725500D03*
X118570000Y-59725500D03*
%TO.P,SW11,2,ROW*%
%TO.N,Net-(D11-Pad2)*%
X120370000Y-60775500D03*
X111570000Y-60775500D03*
%TD*%
D10*
%TO.P,D18,1,K*%
%TO.N,Net-(D13-Pad1)*%
X144900000Y-99752500D03*
D11*
%TO.P,D18,2,A*%
%TO.N,Net-(D18-Pad2)*%
X144900000Y-92132500D03*
%TD*%
D10*
%TO.P,D26,1,K*%
%TO.N,Net-(D25-Pad1)*%
X86758000Y-126065250D03*
D11*
%TO.P,D26,2,A*%
%TO.N,Net-(D26-Pad2)*%
X86758000Y-118445250D03*
%TD*%
D12*
%TO.P,SW4,1,COL*%
%TO.N,Net-(SW10-Pad1)*%
X99290000Y-34919750D03*
X94090000Y-34919750D03*
%TO.P,SW4,2,ROW*%
%TO.N,Net-(D4-Pad2)*%
X101090000Y-35969750D03*
X92290000Y-35969750D03*
%TD*%
D10*
%TO.P,D3,1,K*%
%TO.N,Net-(D1-Pad1)*%
X86812000Y-49112500D03*
D11*
%TO.P,D3,2,A*%
%TO.N,Net-(D3-Pad2)*%
X86812000Y-41492500D03*
%TD*%
D12*
%TO.P,SW17,1,COL*%
%TO.N,Net-(SW11-Pad1)*%
X118570000Y-78991250D03*
X113370000Y-78991250D03*
%TO.P,SW17,2,ROW*%
%TO.N,Net-(D17-Pad2)*%
X111570000Y-80041250D03*
X120370000Y-80041250D03*
%TD*%
%TO.P,SW19,1,COL*%
%TO.N,Net-(SW1-Pad1)*%
X41370000Y-103204500D03*
X36170000Y-103204500D03*
%TO.P,SW19,2,ROW*%
%TO.N,Net-(D19-Pad2)*%
X34370000Y-104254500D03*
X43170000Y-104254500D03*
%TD*%
%TO.P,SW26,1,COL*%
%TO.N,Net-(SW14-Pad1)*%
X79920000Y-117485500D03*
X74720000Y-117485500D03*
%TO.P,SW26,2,ROW*%
%TO.N,Net-(D26-Pad2)*%
X72920000Y-118535500D03*
X81720000Y-118535500D03*
%TD*%
%TO.P,SW1,1,COL*%
%TO.N,Net-(SW1-Pad1)*%
X36170000Y-45407250D03*
X41370000Y-45407250D03*
%TO.P,SW1,2,ROW*%
%TO.N,Net-(D1-Pad2)*%
X43170000Y-46457250D03*
X34370000Y-46457250D03*
%TD*%
D10*
%TO.P,D7,1,K*%
%TO.N,Net-(D10-Pad1)*%
X48530000Y-73354750D03*
D11*
%TO.P,D7,2,A*%
%TO.N,Net-(D7-Pad2)*%
X48530000Y-65734750D03*
%TD*%
D10*
%TO.P,D11,1,K*%
%TO.N,Net-(D10-Pad1)*%
X125830000Y-73540000D03*
D11*
%TO.P,D11,2,A*%
%TO.N,Net-(D11-Pad2)*%
X125830000Y-65920000D03*
%TD*%
D12*
%TO.P,SW2,1,COL*%
%TO.N,Net-(SW14-Pad1)*%
X60690000Y-45407250D03*
X55490000Y-45407250D03*
%TO.P,SW2,2,ROW*%
%TO.N,Net-(D2-Pad2)*%
X53690000Y-46457250D03*
X62490000Y-46457250D03*
%TD*%
D10*
%TO.P,D14,1,K*%
%TO.N,Net-(D13-Pad1)*%
X67850000Y-92602250D03*
D11*
%TO.P,D14,2,A*%
%TO.N,Net-(D14-Pad2)*%
X67850000Y-84982250D03*
%TD*%
D12*
%TO.P,SW12,1,COL*%
%TO.N,Net-(SW12-Pad1)*%
X132770000Y-64673000D03*
X137970000Y-64673000D03*
%TO.P,SW12,2,ROW*%
%TO.N,Net-(D12-Pad2)*%
X130970000Y-65723000D03*
X139770000Y-65723000D03*
%TD*%
%TO.P,SW23,1,COL*%
%TO.N,Net-(SW11-Pad1)*%
X113370000Y-98257000D03*
X118570000Y-98257000D03*
%TO.P,SW23,2,ROW*%
%TO.N,Net-(D23-Pad2)*%
X111570000Y-99307000D03*
X120370000Y-99307000D03*
%TD*%
%TO.P,SW5,1,COL*%
%TO.N,Net-(SW11-Pad1)*%
X113370000Y-40459750D03*
X118570000Y-40459750D03*
%TO.P,SW5,2,ROW*%
%TO.N,Net-(D5-Pad2)*%
X120370000Y-41509750D03*
X111570000Y-41509750D03*
%TD*%
%TO.P,SW6,1,COL*%
%TO.N,Net-(SW12-Pad1)*%
X132770000Y-45407250D03*
X137970000Y-45407250D03*
%TO.P,SW6,2,ROW*%
%TO.N,Net-(D6-Pad2)*%
X130970000Y-46457250D03*
X139770000Y-46457250D03*
%TD*%
D10*
%TO.P,D25,1,K*%
%TO.N,Net-(D25-Pad1)*%
X67800000Y-131060000D03*
D11*
%TO.P,D25,2,A*%
%TO.N,Net-(D25-Pad2)*%
X67800000Y-123440000D03*
%TD*%
D12*
%TO.P,SW14,1,COL*%
%TO.N,Net-(SW14-Pad1)*%
X60690000Y-83938750D03*
X55490000Y-83938750D03*
%TO.P,SW14,2,ROW*%
%TO.N,Net-(D14-Pad2)*%
X62490000Y-84988750D03*
X53690000Y-84988750D03*
%TD*%
%TO.P,SW20,1,COL*%
%TO.N,Net-(SW14-Pad1)*%
X60690000Y-103204500D03*
X55490000Y-103204500D03*
%TO.P,SW20,2,ROW*%
%TO.N,Net-(D20-Pad2)*%
X62490000Y-104254500D03*
X53690000Y-104254500D03*
%TD*%
D10*
%TO.P,D9,1,K*%
%TO.N,Net-(D10-Pad1)*%
X86800000Y-68360000D03*
D11*
%TO.P,D9,2,A*%
%TO.N,Net-(D9-Pad2)*%
X86800000Y-60740000D03*
%TD*%
D10*
%TO.P,D19,1,K*%
%TO.N,Net-(D19-Pad1)*%
X48530000Y-111849750D03*
D11*
%TO.P,D19,2,A*%
%TO.N,Net-(D19-Pad2)*%
X48530000Y-104229750D03*
%TD*%
D10*
%TO.P,D15,1,K*%
%TO.N,Net-(D13-Pad1)*%
X86800000Y-87607500D03*
D11*
%TO.P,D15,2,A*%
%TO.N,Net-(D15-Pad2)*%
X86800000Y-79987500D03*
%TD*%
D10*
%TO.P,D2,1,K*%
%TO.N,Net-(D1-Pad1)*%
X67866000Y-54107250D03*
D11*
%TO.P,D2,2,A*%
%TO.N,Net-(D2-Pad2)*%
X67866000Y-46487250D03*
%TD*%
D10*
%TO.P,D13,1,K*%
%TO.N,Net-(D13-Pad1)*%
X48530000Y-92602250D03*
D11*
%TO.P,D13,2,A*%
%TO.N,Net-(D13-Pad2)*%
X48530000Y-84982250D03*
%TD*%
D12*
%TO.P,SW15,1,COL*%
%TO.N,Net-(SW15-Pad1)*%
X74730000Y-78991250D03*
X79930000Y-78991250D03*
%TO.P,SW15,2,ROW*%
%TO.N,Net-(D15-Pad2)*%
X72930000Y-80041250D03*
X81730000Y-80041250D03*
%TD*%
%TO.P,SW30,1,COL*%
%TO.N,Net-(SW12-Pad1)*%
X151950000Y-131053000D03*
X157150000Y-131053000D03*
%TO.P,SW30,2,ROW*%
%TO.N,Net-(D30-Pad2)*%
X150150000Y-132103000D03*
X158950000Y-132103000D03*
%TD*%
%TO.P,SW18,1,COL*%
%TO.N,Net-(SW12-Pad1)*%
X132770000Y-83938750D03*
X137970000Y-83938750D03*
%TO.P,SW18,2,ROW*%
%TO.N,Net-(D18-Pad2)*%
X139770000Y-84988750D03*
X130970000Y-84988750D03*
%TD*%
D10*
%TO.P,D6,1,K*%
%TO.N,Net-(D1-Pad1)*%
X144800000Y-62560000D03*
D11*
%TO.P,D6,2,A*%
%TO.N,Net-(D6-Pad2)*%
X144800000Y-54940000D03*
%TD*%
D12*
%TO.P,SW9,1,COL*%
%TO.N,Net-(SW15-Pad1)*%
X79930000Y-59725500D03*
X74730000Y-59725500D03*
%TO.P,SW9,2,ROW*%
%TO.N,Net-(D9-Pad2)*%
X81730000Y-60775500D03*
X72930000Y-60775500D03*
%TD*%
%TO.P,SW21,1,COL*%
%TO.N,Net-(SW15-Pad1)*%
X79930000Y-98257000D03*
X74730000Y-98257000D03*
%TO.P,SW21,2,ROW*%
%TO.N,Net-(D21-Pad2)*%
X72930000Y-99307000D03*
X81730000Y-99307000D03*
%TD*%
%TO.P,SW16,1,COL*%
%TO.N,Net-(SW10-Pad1)*%
X94090000Y-73451250D03*
X99290000Y-73451250D03*
%TO.P,SW16,2,ROW*%
%TO.N,Net-(D16-Pad2)*%
X101090000Y-74501250D03*
X92290000Y-74501250D03*
%TD*%
D10*
%TO.P,D28,1,K*%
%TO.N,Net-(D25-Pad1)*%
X125600000Y-131350000D03*
D11*
%TO.P,D28,2,A*%
%TO.N,Net-(D28-Pad2)*%
X125600000Y-123730000D03*
%TD*%
D10*
%TO.P,SW31,1*%
%TO.N,Net-(U1-PadOUT)*%
X163767500Y-95175000D03*
D11*
%TO.P,SW31,2*%
%TO.N,Net-(SW31-Pad2)*%
X163767500Y-92635000D03*
%TO.P,SW31,3*%
%TO.N,Net-(U1-Pad0.17)*%
X156147500Y-92635000D03*
%TO.P,SW31,4*%
%TO.N,Net-(BT1-Pad1)*%
X156147500Y-95175000D03*
%TD*%
D12*
%TO.P,SW13,1,COL*%
%TO.N,Net-(SW1-Pad1)*%
X41370000Y-83938750D03*
X36170000Y-83938750D03*
%TO.P,SW13,2,ROW*%
%TO.N,Net-(D13-Pad2)*%
X43170000Y-84988750D03*
X34370000Y-84988750D03*
%TD*%
D10*
%TO.P,D8,1,K*%
%TO.N,Net-(D10-Pad1)*%
X67850000Y-73354750D03*
D11*
%TO.P,D8,2,A*%
%TO.N,Net-(D8-Pad2)*%
X67850000Y-65734750D03*
%TD*%
D12*
%TO.P,SW7,1,COL*%
%TO.N,Net-(SW1-Pad1)*%
X41370000Y-64673000D03*
X36170000Y-64673000D03*
%TO.P,SW7,2,ROW*%
%TO.N,Net-(D7-Pad2)*%
X34370000Y-65723000D03*
X43170000Y-65723000D03*
%TD*%
D10*
%TO.P,D23,1,K*%
%TO.N,Net-(D19-Pad1)*%
X125830000Y-112035000D03*
D11*
%TO.P,D23,2,A*%
%TO.N,Net-(D23-Pad2)*%
X125830000Y-104415000D03*
%TD*%
D10*
%TO.P,D24,1,K*%
%TO.N,Net-(D19-Pad1)*%
X144900000Y-119000000D03*
D11*
%TO.P,D24,2,A*%
%TO.N,Net-(D24-Pad2)*%
X144900000Y-111380000D03*
%TD*%
D12*
%TO.P,SW22,1,COL*%
%TO.N,Net-(SW10-Pad1)*%
X99290000Y-92717000D03*
X94090000Y-92717000D03*
%TO.P,SW22,2,ROW*%
%TO.N,Net-(D22-Pad2)*%
X92290000Y-93767000D03*
X101090000Y-93767000D03*
%TD*%
%TO.P,SW25,1,COL*%
%TO.N,Net-(SW1-Pad1)*%
X60680000Y-122433000D03*
X55480000Y-122433000D03*
%TO.P,SW25,2,ROW*%
%TO.N,Net-(D25-Pad2)*%
X62480000Y-123483000D03*
X53680000Y-123483000D03*
%TD*%
D10*
%TO.P,D1,1,K*%
%TO.N,Net-(D1-Pad1)*%
X48550000Y-54107250D03*
D11*
%TO.P,D1,2,A*%
%TO.N,Net-(D1-Pad2)*%
X48550000Y-46487250D03*
%TD*%
D10*
%TO.P,D10,1,K*%
%TO.N,Net-(D10-Pad1)*%
X106400000Y-67705000D03*
D11*
%TO.P,D10,2,A*%
%TO.N,Net-(D10-Pad2)*%
X106400000Y-60085000D03*
%TD*%
D13*
%TO.P,BT2,1,+*%
%TO.N,Net-(BT1-Pad1)*%
X156150000Y-121950000D03*
X156150000Y-100150000D03*
D14*
%TO.P,BT2,2,-*%
%TO.N,Net-(BT1-Pad2)*%
X156150000Y-111050000D03*
%TD*%
D15*
%TO.P,J2,1,Pin_1*%
%TO.N,Net-(J1-Pad1)*%
X164600000Y-57375000D03*
%TO.P,J2,2,Pin_2*%
%TO.N,Net-(J1-Pad2)*%
X164600000Y-54835000D03*
%TD*%
D16*
%TO.P,U2,0.02,0.02*%
%TO.N,Net-(SW15-Pad1)*%
X148780000Y-72595000D03*
%TO.P,U2,0.09,0.09*%
%TO.N,Net-(D19-Pad1)*%
X164020000Y-77675000D03*
%TO.P,U2,0.10,0.10*%
%TO.N,Net-(D25-Pad1)*%
X164020000Y-80215000D03*
%TO.P,U2,0.13,0.13*%
%TO.N,Net-(U1-Pad0.13)*%
X164020000Y-59895000D03*
%TO.P,U2,0.15,0.15*%
%TO.N,Net-(U1-Pad0.15)*%
X164020000Y-62435000D03*
%TO.P,U2,0.17,0.17*%
%TO.N,Net-(U1-Pad0.17)*%
X164020000Y-64975000D03*
%TO.P,U2,0.20,0.20*%
%TO.N,Net-(SW31-Pad2)*%
X164020000Y-67515000D03*
%TO.P,U2,0.22,0.22*%
%TO.N,Net-(D1-Pad1)*%
X164020000Y-70055000D03*
%TO.P,U2,0.24,0.24*%
%TO.N,Net-(D10-Pad1)*%
X164020000Y-72595000D03*
%TO.P,U2,0.29,0.29*%
%TO.N,Net-(SW14-Pad1)*%
X148780000Y-70055000D03*
%TO.P,U2,0.31,0.31*%
%TO.N,Net-(SW1-Pad1)*%
X148780000Y-67515000D03*
%TO.P,U2,1.00,1.00*%
%TO.N,Net-(D13-Pad1)*%
X164020000Y-75135000D03*
%TO.P,U2,1.10,1.10*%
%TO.N,Net-(SW12-Pad1)*%
X148780000Y-80215000D03*
%TO.P,U2,1.13,1.13*%
%TO.N,Net-(SW11-Pad1)*%
X148780000Y-77675000D03*
%TO.P,U2,1.15,1.15*%
%TO.N,Net-(SW10-Pad1)*%
X148780000Y-75135000D03*
%TO.P,U2,G1,GND*%
%TO.N,Net-(BT1-Pad2)*%
X164020000Y-82755000D03*
%TO.P,U2,G2,GND*%
X148780000Y-82755000D03*
%TO.P,U2,G3,GND*%
X148780000Y-64975000D03*
%TO.P,U2,OUT,OUT*%
%TO.N,Net-(U1-PadOUT)*%
X148780000Y-62435000D03*
%TO.P,U2,SWDCLK,SWDCLK*%
%TO.N,Net-(J1-Pad1)*%
X150840000Y-54815000D03*
%TO.P,U2,SWDIO,SWDIO*%
%TO.N,Net-(J1-Pad2)*%
X161960000Y-54815000D03*
%TO.P,U2,VBUS,VBUS*%
%TO.N,Net-(U1-PadVBUS)*%
X148780000Y-59895000D03*
%TD*%
D17*
%TO.N,Net-(D1-Pad1)*%
X158945000Y-70055000D03*
%TO.N,Net-(D10-Pad1)*%
X160555000Y-72595000D03*
%TO.N,Net-(D13-Pad1)*%
X160585000Y-75135000D03*
%TO.N,Net-(D19-Pad1)*%
X159475000Y-77675000D03*
%TO.N,Net-(D25-Pad1)*%
X147721000Y-125479000D03*
X150400000Y-81800000D03*
X157550000Y-80215000D03*
%TO.N,Net-(SW1-Pad1)*%
X147000000Y-56400000D03*
%TO.N,Net-(SW14-Pad1)*%
X141850000Y-57400000D03*
%TO.N,Net-(SW15-Pad1)*%
X140200000Y-58500000D03*
%TO.N,Net-(SW10-Pad1)*%
X152350000Y-92000000D03*
%TO.N,Net-(SW11-Pad1)*%
X151450000Y-94300000D03*
%TO.N,Net-(BT1-Pad2)*%
X160300000Y-106900000D03*
X162775000Y-84000000D03*
X160300000Y-86450000D03*
%TO.N,Net-(U1-PadOUT)*%
X161665000Y-62435000D03*
%TO.N,Net-(SW31-Pad2)*%
X157100000Y-68250000D03*
%TO.N,Net-(U1-Pad0.17)*%
X155150000Y-66000000D03*
%TD*%
D18*
%TO.N,Net-(D1-Pad1)*%
X158945000Y-70055000D02*
X164020000Y-70055000D01*
%TO.N,Net-(D10-Pad1)*%
X160555000Y-72595000D02*
X164020000Y-72595000D01*
%TO.N,Net-(D13-Pad1)*%
X164020000Y-75135000D02*
X160585000Y-75135000D01*
%TO.N,Net-(D19-Pad1)*%
X164020000Y-77675000D02*
X159475000Y-77675000D01*
%TO.N,Net-(D25-Pad1)*%
X157550000Y-80215000D02*
X164020000Y-80215000D01*
X150400000Y-122800000D02*
X147721000Y-125479000D01*
X150400000Y-81800000D02*
X150400000Y-122800000D01*
%TO.N,Net-(SW1-Pad1)*%
X41370000Y-85920000D02*
X42600000Y-87150000D01*
X147000000Y-56400000D02*
X147000000Y-65735000D01*
X41370000Y-45407250D02*
X41370000Y-48180000D01*
X48097000Y-115050000D02*
X48097000Y-115047000D01*
X41300000Y-48250000D02*
X42220000Y-49170000D01*
X42220000Y-49170000D02*
X42220000Y-63823000D01*
X43750000Y-108200000D02*
X43750000Y-110700000D01*
X41370000Y-48180000D02*
X41300000Y-48250000D01*
X48097000Y-115050000D02*
X55480000Y-122433000D01*
X147000000Y-65735000D02*
X148780000Y-67515000D01*
X42600000Y-101974500D02*
X41370000Y-103204500D01*
X41370000Y-103204500D02*
X41370000Y-105820000D01*
X41370000Y-83938750D02*
X41370000Y-85920000D01*
X42220000Y-63823000D02*
X41370000Y-64673000D01*
X42150000Y-83158750D02*
X41370000Y-83938750D01*
X48097000Y-115047000D02*
X43750000Y-110700000D01*
X41370000Y-105820000D02*
X43750000Y-108200000D01*
X42150000Y-67900000D02*
X42150000Y-83158750D01*
X41370000Y-64673000D02*
X41370000Y-67120000D01*
X41370000Y-67120000D02*
X42150000Y-67900000D01*
X42600000Y-87150000D02*
X42600000Y-101974500D01*
%TO.N,Net-(SW14-Pad1)*%
X60690000Y-67140000D02*
X62050000Y-68500000D01*
X62050000Y-82578750D02*
X60690000Y-83938750D01*
X62150000Y-49100000D02*
X62150000Y-63213000D01*
X61400000Y-86800000D02*
X61400000Y-102494500D01*
X62050000Y-68500000D02*
X62050000Y-82578750D01*
X63000000Y-111750000D02*
X67885500Y-116635500D01*
X60690000Y-103204500D02*
X60690000Y-105490000D01*
X61400000Y-102494500D02*
X60690000Y-103204500D01*
X60690000Y-64673000D02*
X60690000Y-67140000D01*
X73870000Y-116635500D02*
X74720000Y-117485500D01*
X60690000Y-45407250D02*
X60690000Y-47640000D01*
X63000000Y-107800000D02*
X63000000Y-111750000D01*
X67885500Y-116635500D02*
X73870000Y-116635500D01*
X141850000Y-57400000D02*
X141850000Y-63125000D01*
X60690000Y-105490000D02*
X63000000Y-107800000D01*
X141850000Y-63125000D02*
X148780000Y-70055000D01*
X60690000Y-47640000D02*
X62150000Y-49100000D01*
X60690000Y-83938750D02*
X60690000Y-86090000D01*
X62150000Y-63213000D02*
X60690000Y-64673000D01*
X60690000Y-86090000D02*
X61400000Y-86800000D01*
%TO.N,Net-(SW15-Pad1)*%
X81350000Y-58305500D02*
X79930000Y-59725500D01*
X81350000Y-44850000D02*
X81350000Y-58305500D01*
X81600000Y-63200000D02*
X81600000Y-77321250D01*
X79930000Y-40459750D02*
X79930000Y-43430000D01*
X81450000Y-104550000D02*
X88720500Y-111820500D01*
X81450000Y-82500000D02*
X81450000Y-96737000D01*
X79930000Y-98257000D02*
X79930000Y-101005000D01*
X140200000Y-64015000D02*
X148780000Y-72595000D01*
X88720500Y-111820500D02*
X93955000Y-111820500D01*
X79930000Y-80980000D02*
X81450000Y-82500000D01*
X93955000Y-111820500D02*
X94080000Y-111945500D01*
X81450000Y-102525000D02*
X81450000Y-104550000D01*
X81450000Y-96737000D02*
X79930000Y-98257000D01*
X79930000Y-78991250D02*
X79930000Y-80980000D01*
X79930000Y-43430000D02*
X81350000Y-44850000D01*
X140200000Y-58500000D02*
X140200000Y-64015000D01*
X79930000Y-59725500D02*
X79930000Y-61530000D01*
X79930000Y-61530000D02*
X81600000Y-63200000D01*
X81600000Y-77321250D02*
X79930000Y-78991250D01*
X79930000Y-101005000D02*
X81450000Y-102525000D01*
%TO.N,Net-(SW10-Pad1)*%
X99290000Y-92717000D02*
X99290000Y-95290000D01*
X100750000Y-58050000D02*
X100750000Y-71991250D01*
X99290000Y-95290000D02*
X101550000Y-97550000D01*
X100800000Y-38500000D02*
X100800000Y-52675500D01*
X152350000Y-78705000D02*
X148780000Y-75135000D01*
X99290000Y-56590000D02*
X100750000Y-58050000D01*
X99290000Y-34919750D02*
X99290000Y-36990000D01*
X99290000Y-75740000D02*
X100850000Y-77300000D01*
X100750000Y-71991250D02*
X99290000Y-73451250D01*
X100850000Y-77300000D02*
X100850000Y-91157000D01*
X99290000Y-36990000D02*
X100800000Y-38500000D01*
X101550000Y-97550000D02*
X101550000Y-105675500D01*
X100800000Y-52675500D02*
X99290000Y-54185500D01*
X152350000Y-92000000D02*
X152350000Y-78705000D01*
X100850000Y-91157000D02*
X99290000Y-92717000D01*
X101550000Y-105675500D02*
X113360000Y-117485500D01*
X99290000Y-73451250D02*
X99290000Y-75740000D01*
X99290000Y-54185500D02*
X99290000Y-56590000D01*
%TO.N,Net-(SW11-Pad1)*%
X120500000Y-110173000D02*
X132760000Y-122433000D01*
X119950000Y-58345500D02*
X118570000Y-59725500D01*
X120200000Y-63450000D02*
X120200000Y-77361250D01*
X120100000Y-82850000D02*
X120100000Y-96727000D01*
X151450000Y-80345000D02*
X148780000Y-77675000D01*
X118570000Y-98257000D02*
X118570000Y-100520000D01*
X120100000Y-96727000D02*
X118570000Y-98257000D01*
X118570000Y-61820000D02*
X120200000Y-63450000D01*
X118570000Y-100520000D02*
X120500000Y-102450000D01*
X151450000Y-94300000D02*
X151450000Y-80345000D01*
X118570000Y-59725500D02*
X118570000Y-61820000D01*
X118570000Y-78991250D02*
X118570000Y-81320000D01*
X118570000Y-81320000D02*
X120100000Y-82850000D01*
X119950000Y-43850000D02*
X119950000Y-58345500D01*
X120200000Y-77361250D02*
X118570000Y-78991250D01*
X120500000Y-102450000D02*
X120500000Y-110173000D01*
X118570000Y-42470000D02*
X119950000Y-43850000D01*
X118570000Y-40459750D02*
X118570000Y-42470000D01*
%TO.N,Net-(SW12-Pad1)*%
X139400000Y-68750000D02*
X139400000Y-82508750D01*
X137970000Y-67320000D02*
X139400000Y-68750000D01*
X139100000Y-63543000D02*
X137970000Y-64673000D01*
X137970000Y-64673000D02*
X137970000Y-67320000D01*
X137970000Y-105620000D02*
X139200000Y-106850000D01*
X146486250Y-82508750D02*
X148780000Y-80215000D01*
X137970000Y-86170000D02*
X139650000Y-87850000D01*
X139400000Y-82508750D02*
X137970000Y-83938750D01*
X139650000Y-101524500D02*
X137970000Y-103204500D01*
X139650000Y-87850000D02*
X139650000Y-101524500D01*
X139400000Y-82508750D02*
X146486250Y-82508750D01*
X139100000Y-48900000D02*
X139100000Y-63543000D01*
X137970000Y-47770000D02*
X139100000Y-48900000D01*
X137970000Y-103204500D02*
X137970000Y-105620000D01*
X139200000Y-118303000D02*
X151950000Y-131053000D01*
X137970000Y-45407250D02*
X137970000Y-47770000D01*
X137970000Y-83938750D02*
X137970000Y-86170000D01*
X139200000Y-106850000D02*
X139200000Y-118303000D01*
%TO.N,Net-(BT1-Pad2)*%
X162750000Y-84000000D02*
X162775000Y-84000000D01*
X156150000Y-111050000D02*
X160300000Y-106900000D01*
X160300000Y-86450000D02*
X162750000Y-84000000D01*
X164020000Y-82755000D02*
X162775000Y-84000000D01*
%TO.N,Net-(BT1-Pad1)*%
X156150000Y-100150000D02*
X156150000Y-95177500D01*
X156150000Y-95177500D02*
X156147500Y-95175000D01*
%TO.N,Net-(J1-Pad1)*%
X156350000Y-57400000D02*
X164575000Y-57400000D01*
X150840000Y-54815000D02*
X153765000Y-54815000D01*
X153765000Y-54815000D02*
X156350000Y-57400000D01*
X150725000Y-54930000D02*
X150840000Y-54815000D01*
X164575000Y-57400000D02*
X164600000Y-57375000D01*
%TO.N,Net-(J1-Pad2)*%
X161915000Y-54860000D02*
X161960000Y-54815000D01*
X161960000Y-54815000D02*
X164580000Y-54815000D01*
X164580000Y-54815000D02*
X164600000Y-54835000D01*
%TO.N,Net-(U1-PadOUT)*%
X148780000Y-62435000D02*
X161665000Y-62435000D01*
X163767500Y-95175000D02*
X165350000Y-93592500D01*
X162930000Y-63700000D02*
X161665000Y-62435000D01*
X165350000Y-64450000D02*
X164600000Y-63700000D01*
X164600000Y-63700000D02*
X162930000Y-63700000D01*
X165350000Y-93592500D02*
X165350000Y-64450000D01*
%TO.N,Net-(SW31-Pad2)*%
X157100000Y-68400000D02*
X154650000Y-70850000D01*
X159085000Y-92635000D02*
X163767500Y-92635000D01*
X154650000Y-70850000D02*
X154650000Y-88200000D01*
X157100000Y-68250000D02*
X157100000Y-68400000D01*
X157835000Y-67515000D02*
X164020000Y-67515000D01*
X157100000Y-68250000D02*
X157835000Y-67515000D01*
X154650000Y-88200000D02*
X159085000Y-92635000D01*
%TO.N,Net-(U1-Pad0.17)*%
X153550000Y-67600000D02*
X153550000Y-90037500D01*
X153550000Y-90037500D02*
X156147500Y-92635000D01*
X156175000Y-64975000D02*
X164020000Y-64975000D01*
X155150000Y-66000000D02*
X153550000Y-67600000D01*
X155150000Y-66000000D02*
X156175000Y-64975000D01*
%TD*%
M02*
