%TF.GenerationSoftware,KiCad,Pcbnew,(6.0.8)*%
%TF.CreationDate,2023-02-14T17:54:35+07:00*%
%TF.ProjectId,dongle_256,646f6e67-6c65-45f3-9235-362e6b696361,rev?*%
%TF.SameCoordinates,Original*%
%TF.FileFunction,Drillmap*%
%TF.FilePolarity,Positive*%
%FSLAX45Y45*%
G04 Gerber Fmt 4.5, Leading zero omitted, Abs format (unit mm)*
G04 Created by KiCad (PCBNEW (6.0.8)) date 2023-02-14 17:54:35*
%MOMM*%
%LPD*%
G01*
G04 APERTURE LIST*
%ADD10C,0.100000*%
%ADD11C,0.200000*%
%ADD12C,0.040000*%
%ADD13C,0.080000*%
%ADD14C,0.120000*%
G04 APERTURE END LIST*
D10*
X16420000Y-14705000D02*
X14550000Y-14705000D01*
X6790000Y-3660000D02*
X8655000Y-3660000D01*
X8735000Y-3110000D02*
X10605000Y-3110000D01*
X2770000Y-4285000D02*
X2915000Y-4140000D01*
X8700000Y-3615000D02*
X8700000Y-3145000D01*
X10645000Y-3625000D02*
X10680000Y-3660000D01*
X2915000Y-4140000D02*
X6710000Y-4140000D01*
X12530000Y-3660000D02*
X12575000Y-3705000D01*
X16605000Y-14520000D02*
X16420000Y-14705000D01*
X14460000Y-14615000D02*
X14460000Y-13905000D01*
X12575000Y-3705000D02*
X12575000Y-4120000D01*
X14480000Y-4155000D02*
X14510000Y-4185000D01*
X2770000Y-11710000D02*
X2770000Y-4285000D01*
X14530000Y-5330000D02*
X16480000Y-5330000D01*
X14390000Y-13835000D02*
X4895000Y-13835000D01*
X14460000Y-13905000D02*
X14390000Y-13835000D01*
X8655000Y-3660000D02*
X8700000Y-3615000D01*
X12575000Y-4120000D02*
X12610000Y-4155000D01*
X10680000Y-3660000D02*
X12530000Y-3660000D01*
X16480000Y-5330000D02*
X16605000Y-5455000D01*
X14530000Y-5330000D02*
X14510000Y-5310000D01*
X4895000Y-13835000D02*
X2770000Y-11710000D01*
X14510000Y-4185000D02*
X14510000Y-5310000D01*
X6750000Y-4100000D02*
X6750000Y-3700000D01*
X10645000Y-3150000D02*
X10645000Y-3625000D01*
X6710000Y-4140000D02*
X6750000Y-4100000D01*
X16605000Y-14520000D02*
X16605000Y-5455000D01*
X6750000Y-3700000D02*
X6790000Y-3660000D01*
X14550000Y-14705000D02*
X14460000Y-14615000D01*
X12610000Y-4155000D02*
X14480000Y-4155000D01*
X10605000Y-3110000D02*
X10645000Y-3150000D01*
X8700000Y-3145000D02*
X8735000Y-3110000D01*
D11*
D12*
X14000000Y-5830000D02*
X14040000Y-5870000D01*
X14040000Y-5830000D02*
X14000000Y-5870000D01*
X14165000Y-5720000D02*
X14205000Y-5760000D01*
X14205000Y-5720000D02*
X14165000Y-5760000D01*
X14680000Y-5620000D02*
X14720000Y-5660000D01*
X14720000Y-5620000D02*
X14680000Y-5660000D01*
X14752100Y-12527900D02*
X14792100Y-12567900D01*
X14792100Y-12527900D02*
X14752100Y-12567900D01*
X15020000Y-8160000D02*
X15060000Y-8200000D01*
X15060000Y-8160000D02*
X15020000Y-8200000D01*
X15125000Y-9410000D02*
X15165000Y-9450000D01*
X15165000Y-9410000D02*
X15125000Y-9450000D01*
X15215000Y-9180000D02*
X15255000Y-9220000D01*
X15255000Y-9180000D02*
X15215000Y-9220000D01*
X15495000Y-6580000D02*
X15535000Y-6620000D01*
X15535000Y-6580000D02*
X15495000Y-6620000D01*
X15690000Y-6805000D02*
X15730000Y-6845000D01*
X15730000Y-6805000D02*
X15690000Y-6845000D01*
X15735000Y-8001500D02*
X15775000Y-8041500D01*
X15775000Y-8001500D02*
X15735000Y-8041500D01*
X15874500Y-6985500D02*
X15914500Y-7025500D01*
X15914500Y-6985500D02*
X15874500Y-7025500D01*
X15927500Y-7747500D02*
X15967500Y-7787500D01*
X15967500Y-7747500D02*
X15927500Y-7787500D01*
X16010000Y-8625000D02*
X16050000Y-8665000D01*
X16050000Y-8625000D02*
X16010000Y-8665000D01*
X16010000Y-10670000D02*
X16050000Y-10710000D01*
X16050000Y-10670000D02*
X16010000Y-10710000D01*
X16035500Y-7239500D02*
X16075500Y-7279500D01*
X16075500Y-7239500D02*
X16035500Y-7279500D01*
X16038500Y-7493500D02*
X16078500Y-7533500D01*
X16078500Y-7493500D02*
X16038500Y-7533500D01*
X16146500Y-6223500D02*
X16186500Y-6263500D01*
X16186500Y-6223500D02*
X16146500Y-6263500D01*
X16257500Y-8380000D02*
X16297500Y-8420000D01*
X16297500Y-8380000D02*
X16257500Y-8420000D01*
D13*
X4893000Y-6573475D02*
G75*
G03*
X4893000Y-6573475I-40000J0D01*
G01*
X4893000Y-7335475D02*
G75*
G03*
X4893000Y-7335475I-40000J0D01*
G01*
X4893000Y-8498225D02*
G75*
G03*
X4893000Y-8498225I-40000J0D01*
G01*
X4893000Y-9260225D02*
G75*
G03*
X4893000Y-9260225I-40000J0D01*
G01*
X4893000Y-10422975D02*
G75*
G03*
X4893000Y-10422975I-40000J0D01*
G01*
X4893000Y-11184975D02*
G75*
G03*
X4893000Y-11184975I-40000J0D01*
G01*
X4895000Y-4648725D02*
G75*
G03*
X4895000Y-4648725I-40000J0D01*
G01*
X4895000Y-5410725D02*
G75*
G03*
X4895000Y-5410725I-40000J0D01*
G01*
X6820000Y-12344000D02*
G75*
G03*
X6820000Y-12344000I-40000J0D01*
G01*
X6820000Y-13106000D02*
G75*
G03*
X6820000Y-13106000I-40000J0D01*
G01*
X6825000Y-6573475D02*
G75*
G03*
X6825000Y-6573475I-40000J0D01*
G01*
X6825000Y-7335475D02*
G75*
G03*
X6825000Y-7335475I-40000J0D01*
G01*
X6825000Y-8498225D02*
G75*
G03*
X6825000Y-8498225I-40000J0D01*
G01*
X6825000Y-9260225D02*
G75*
G03*
X6825000Y-9260225I-40000J0D01*
G01*
X6825000Y-10422975D02*
G75*
G03*
X6825000Y-10422975I-40000J0D01*
G01*
X6825000Y-11184975D02*
G75*
G03*
X6825000Y-11184975I-40000J0D01*
G01*
X6826600Y-4648725D02*
G75*
G03*
X6826600Y-4648725I-40000J0D01*
G01*
X6826600Y-5410725D02*
G75*
G03*
X6826600Y-5410725I-40000J0D01*
G01*
X8715800Y-11844525D02*
G75*
G03*
X8715800Y-11844525I-40000J0D01*
G01*
X8715800Y-12606525D02*
G75*
G03*
X8715800Y-12606525I-40000J0D01*
G01*
X8720000Y-6074000D02*
G75*
G03*
X8720000Y-6074000I-40000J0D01*
G01*
X8720000Y-6836000D02*
G75*
G03*
X8720000Y-6836000I-40000J0D01*
G01*
X8720000Y-7998750D02*
G75*
G03*
X8720000Y-7998750I-40000J0D01*
G01*
X8720000Y-8760750D02*
G75*
G03*
X8720000Y-8760750I-40000J0D01*
G01*
X8720000Y-9923500D02*
G75*
G03*
X8720000Y-9923500I-40000J0D01*
G01*
X8720000Y-10685500D02*
G75*
G03*
X8720000Y-10685500I-40000J0D01*
G01*
X8721200Y-4149250D02*
G75*
G03*
X8721200Y-4149250I-40000J0D01*
G01*
X8721200Y-4911250D02*
G75*
G03*
X8721200Y-4911250I-40000J0D01*
G01*
X10676600Y-11779025D02*
G75*
G03*
X10676600Y-11779025I-40000J0D01*
G01*
X10676600Y-12541025D02*
G75*
G03*
X10676600Y-12541025I-40000J0D01*
G01*
X10680000Y-6008500D02*
G75*
G03*
X10680000Y-6008500I-40000J0D01*
G01*
X10680000Y-6770500D02*
G75*
G03*
X10680000Y-6770500I-40000J0D01*
G01*
X10680000Y-7933250D02*
G75*
G03*
X10680000Y-7933250I-40000J0D01*
G01*
X10680000Y-8695250D02*
G75*
G03*
X10680000Y-8695250I-40000J0D01*
G01*
X10680000Y-9858000D02*
G75*
G03*
X10680000Y-9858000I-40000J0D01*
G01*
X10680000Y-10620000D02*
G75*
G03*
X10680000Y-10620000I-40000J0D01*
G01*
X10680800Y-4083750D02*
G75*
G03*
X10680800Y-4083750I-40000J0D01*
G01*
X10680800Y-4845750D02*
G75*
G03*
X10680800Y-4845750I-40000J0D01*
G01*
X12600000Y-12373000D02*
G75*
G03*
X12600000Y-12373000I-40000J0D01*
G01*
X12600000Y-13135000D02*
G75*
G03*
X12600000Y-13135000I-40000J0D01*
G01*
X12623000Y-6592000D02*
G75*
G03*
X12623000Y-6592000I-40000J0D01*
G01*
X12623000Y-7354000D02*
G75*
G03*
X12623000Y-7354000I-40000J0D01*
G01*
X12623000Y-8516750D02*
G75*
G03*
X12623000Y-8516750I-40000J0D01*
G01*
X12623000Y-9278750D02*
G75*
G03*
X12623000Y-9278750I-40000J0D01*
G01*
X12623000Y-10441500D02*
G75*
G03*
X12623000Y-10441500I-40000J0D01*
G01*
X12623000Y-11203500D02*
G75*
G03*
X12623000Y-11203500I-40000J0D01*
G01*
X12623400Y-4667250D02*
G75*
G03*
X12623400Y-4667250I-40000J0D01*
G01*
X12623400Y-5429250D02*
G75*
G03*
X12623400Y-5429250I-40000J0D01*
G01*
X14520000Y-5494000D02*
G75*
G03*
X14520000Y-5494000I-40000J0D01*
G01*
X14520000Y-6256000D02*
G75*
G03*
X14520000Y-6256000I-40000J0D01*
G01*
X14527000Y-12874750D02*
G75*
G03*
X14527000Y-12874750I-40000J0D01*
G01*
X14527000Y-13636750D02*
G75*
G03*
X14527000Y-13636750I-40000J0D01*
G01*
X14530000Y-7288500D02*
G75*
G03*
X14530000Y-7288500I-40000J0D01*
G01*
X14530000Y-8050500D02*
G75*
G03*
X14530000Y-8050500I-40000J0D01*
G01*
X14530000Y-9213250D02*
G75*
G03*
X14530000Y-9213250I-40000J0D01*
G01*
X14530000Y-9975250D02*
G75*
G03*
X14530000Y-9975250I-40000J0D01*
G01*
X14530000Y-11138000D02*
G75*
G03*
X14530000Y-11138000I-40000J0D01*
G01*
X14530000Y-11900000D02*
G75*
G03*
X14530000Y-11900000I-40000J0D01*
G01*
X15654750Y-9263500D02*
G75*
G03*
X15654750Y-9263500I-40000J0D01*
G01*
X15654750Y-9517500D02*
G75*
G03*
X15654750Y-9517500I-40000J0D01*
G01*
X16416750Y-9263500D02*
G75*
G03*
X16416750Y-9263500I-40000J0D01*
G01*
X16416750Y-9517500D02*
G75*
G03*
X16416750Y-9517500I-40000J0D01*
G01*
X16470000Y-13219000D02*
G75*
G03*
X16470000Y-13219000I-40000J0D01*
G01*
X16470000Y-13981000D02*
G75*
G03*
X16470000Y-13981000I-40000J0D01*
G01*
D14*
X3437000Y-4585725D02*
X3437000Y-4705725D01*
X3377000Y-4645725D02*
X3497000Y-4645725D01*
X3437000Y-6512300D02*
X3437000Y-6632300D01*
X3377000Y-6572300D02*
X3497000Y-6572300D01*
X3437000Y-8438875D02*
X3437000Y-8558875D01*
X3377000Y-8498875D02*
X3497000Y-8498875D01*
X3437000Y-10365450D02*
X3437000Y-10485450D01*
X3377000Y-10425450D02*
X3497000Y-10425450D01*
X3617000Y-4480725D02*
X3617000Y-4600725D01*
X3557000Y-4540725D02*
X3677000Y-4540725D01*
X3617000Y-6407300D02*
X3617000Y-6527300D01*
X3557000Y-6467300D02*
X3677000Y-6467300D01*
X3617000Y-8333875D02*
X3617000Y-8453875D01*
X3557000Y-8393875D02*
X3677000Y-8393875D01*
X3617000Y-10260450D02*
X3617000Y-10380450D01*
X3557000Y-10320450D02*
X3677000Y-10320450D01*
X4137000Y-4480725D02*
X4137000Y-4600725D01*
X4077000Y-4540725D02*
X4197000Y-4540725D01*
X4137000Y-6407300D02*
X4137000Y-6527300D01*
X4077000Y-6467300D02*
X4197000Y-6467300D01*
X4137000Y-8333875D02*
X4137000Y-8453875D01*
X4077000Y-8393875D02*
X4197000Y-8393875D01*
X4137000Y-10260450D02*
X4137000Y-10380450D01*
X4077000Y-10320450D02*
X4197000Y-10320450D01*
X4317000Y-4585725D02*
X4317000Y-4705725D01*
X4257000Y-4645725D02*
X4377000Y-4645725D01*
X4317000Y-6512300D02*
X4317000Y-6632300D01*
X4257000Y-6572300D02*
X4377000Y-6572300D01*
X4317000Y-8438875D02*
X4317000Y-8558875D01*
X4257000Y-8498875D02*
X4377000Y-8498875D01*
X4317000Y-10365450D02*
X4317000Y-10485450D01*
X4257000Y-10425450D02*
X4377000Y-10425450D01*
X5368000Y-12288300D02*
X5368000Y-12408300D01*
X5308000Y-12348300D02*
X5428000Y-12348300D01*
X5369000Y-4585725D02*
X5369000Y-4705725D01*
X5309000Y-4645725D02*
X5429000Y-4645725D01*
X5369000Y-6512300D02*
X5369000Y-6632300D01*
X5309000Y-6572300D02*
X5429000Y-6572300D01*
X5369000Y-8438875D02*
X5369000Y-8558875D01*
X5309000Y-8498875D02*
X5429000Y-8498875D01*
X5369000Y-10365450D02*
X5369000Y-10485450D01*
X5309000Y-10425450D02*
X5429000Y-10425450D01*
X5548000Y-12183300D02*
X5548000Y-12303300D01*
X5488000Y-12243300D02*
X5608000Y-12243300D01*
X5549000Y-4480725D02*
X5549000Y-4600725D01*
X5489000Y-4540725D02*
X5609000Y-4540725D01*
X5549000Y-6407300D02*
X5549000Y-6527300D01*
X5489000Y-6467300D02*
X5609000Y-6467300D01*
X5549000Y-8333875D02*
X5549000Y-8453875D01*
X5489000Y-8393875D02*
X5609000Y-8393875D01*
X5549000Y-10260450D02*
X5549000Y-10380450D01*
X5489000Y-10320450D02*
X5609000Y-10320450D01*
X6068000Y-12183300D02*
X6068000Y-12303300D01*
X6008000Y-12243300D02*
X6128000Y-12243300D01*
X6069000Y-4480725D02*
X6069000Y-4600725D01*
X6009000Y-4540725D02*
X6129000Y-4540725D01*
X6069000Y-6407300D02*
X6069000Y-6527300D01*
X6009000Y-6467300D02*
X6129000Y-6467300D01*
X6069000Y-8333875D02*
X6069000Y-8453875D01*
X6009000Y-8393875D02*
X6129000Y-8393875D01*
X6069000Y-10260450D02*
X6069000Y-10380450D01*
X6009000Y-10320450D02*
X6129000Y-10320450D01*
X6248000Y-12288300D02*
X6248000Y-12408300D01*
X6188000Y-12348300D02*
X6308000Y-12348300D01*
X6249000Y-4585725D02*
X6249000Y-4705725D01*
X6189000Y-4645725D02*
X6309000Y-4645725D01*
X6249000Y-6512300D02*
X6249000Y-6632300D01*
X6189000Y-6572300D02*
X6309000Y-6572300D01*
X6249000Y-8438875D02*
X6249000Y-8558875D01*
X6189000Y-8498875D02*
X6309000Y-8498875D01*
X6249000Y-10365450D02*
X6249000Y-10485450D01*
X6189000Y-10425450D02*
X6309000Y-10425450D01*
X7292000Y-11793550D02*
X7292000Y-11913550D01*
X7232000Y-11853550D02*
X7352000Y-11853550D01*
X7293000Y-4090975D02*
X7293000Y-4210975D01*
X7233000Y-4150975D02*
X7353000Y-4150975D01*
X7293000Y-6017550D02*
X7293000Y-6137550D01*
X7233000Y-6077550D02*
X7353000Y-6077550D01*
X7293000Y-7944125D02*
X7293000Y-8064125D01*
X7233000Y-8004125D02*
X7353000Y-8004125D01*
X7293000Y-9870700D02*
X7293000Y-9990700D01*
X7233000Y-9930700D02*
X7353000Y-9930700D01*
X7472000Y-11688550D02*
X7472000Y-11808550D01*
X7412000Y-11748550D02*
X7532000Y-11748550D01*
X7473000Y-3985975D02*
X7473000Y-4105975D01*
X7413000Y-4045975D02*
X7533000Y-4045975D01*
X7473000Y-5912550D02*
X7473000Y-6032550D01*
X7413000Y-5972550D02*
X7533000Y-5972550D01*
X7473000Y-7839125D02*
X7473000Y-7959125D01*
X7413000Y-7899125D02*
X7533000Y-7899125D01*
X7473000Y-9765700D02*
X7473000Y-9885700D01*
X7413000Y-9825700D02*
X7533000Y-9825700D01*
X7992000Y-11688550D02*
X7992000Y-11808550D01*
X7932000Y-11748550D02*
X8052000Y-11748550D01*
X7993000Y-3985975D02*
X7993000Y-4105975D01*
X7933000Y-4045975D02*
X8053000Y-4045975D01*
X7993000Y-5912550D02*
X7993000Y-6032550D01*
X7933000Y-5972550D02*
X8053000Y-5972550D01*
X7993000Y-7839125D02*
X7993000Y-7959125D01*
X7933000Y-7899125D02*
X8053000Y-7899125D01*
X7993000Y-9765700D02*
X7993000Y-9885700D01*
X7933000Y-9825700D02*
X8053000Y-9825700D01*
X8172000Y-11793550D02*
X8172000Y-11913550D01*
X8112000Y-11853550D02*
X8232000Y-11853550D01*
X8173000Y-4090975D02*
X8173000Y-4210975D01*
X8113000Y-4150975D02*
X8233000Y-4150975D01*
X8173000Y-6017550D02*
X8173000Y-6137550D01*
X8113000Y-6077550D02*
X8233000Y-6077550D01*
X8173000Y-7944125D02*
X8173000Y-8064125D01*
X8113000Y-8004125D02*
X8233000Y-8004125D01*
X8173000Y-9870700D02*
X8173000Y-9990700D01*
X8113000Y-9930700D02*
X8233000Y-9930700D01*
X9228000Y-11239550D02*
X9228000Y-11359550D01*
X9168000Y-11299550D02*
X9288000Y-11299550D01*
X9229000Y-3536975D02*
X9229000Y-3656975D01*
X9169000Y-3596975D02*
X9289000Y-3596975D01*
X9229000Y-5463550D02*
X9229000Y-5583550D01*
X9169000Y-5523550D02*
X9289000Y-5523550D01*
X9229000Y-7390125D02*
X9229000Y-7510125D01*
X9169000Y-7450125D02*
X9289000Y-7450125D01*
X9229000Y-9316700D02*
X9229000Y-9436700D01*
X9169000Y-9376700D02*
X9289000Y-9376700D01*
X9408000Y-11134550D02*
X9408000Y-11254550D01*
X9348000Y-11194550D02*
X9468000Y-11194550D01*
X9409000Y-3431975D02*
X9409000Y-3551975D01*
X9349000Y-3491975D02*
X9469000Y-3491975D01*
X9409000Y-5358550D02*
X9409000Y-5478550D01*
X9349000Y-5418550D02*
X9469000Y-5418550D01*
X9409000Y-7285125D02*
X9409000Y-7405125D01*
X9349000Y-7345125D02*
X9469000Y-7345125D01*
X9409000Y-9211700D02*
X9409000Y-9331700D01*
X9349000Y-9271700D02*
X9469000Y-9271700D01*
X9928000Y-11134550D02*
X9928000Y-11254550D01*
X9868000Y-11194550D02*
X9988000Y-11194550D01*
X9929000Y-3431975D02*
X9929000Y-3551975D01*
X9869000Y-3491975D02*
X9989000Y-3491975D01*
X9929000Y-5358550D02*
X9929000Y-5478550D01*
X9869000Y-5418550D02*
X9989000Y-5418550D01*
X9929000Y-7285125D02*
X9929000Y-7405125D01*
X9869000Y-7345125D02*
X9989000Y-7345125D01*
X9929000Y-9211700D02*
X9929000Y-9331700D01*
X9869000Y-9271700D02*
X9989000Y-9271700D01*
X10108000Y-11239550D02*
X10108000Y-11359550D01*
X10048000Y-11299550D02*
X10168000Y-11299550D01*
X10109000Y-3536975D02*
X10109000Y-3656975D01*
X10049000Y-3596975D02*
X10169000Y-3596975D01*
X10109000Y-5463550D02*
X10109000Y-5583550D01*
X10049000Y-5523550D02*
X10169000Y-5523550D01*
X10109000Y-7390125D02*
X10109000Y-7510125D01*
X10049000Y-7450125D02*
X10169000Y-7450125D01*
X10109000Y-9316700D02*
X10109000Y-9436700D01*
X10049000Y-9376700D02*
X10169000Y-9376700D01*
X11156000Y-11793550D02*
X11156000Y-11913550D01*
X11096000Y-11853550D02*
X11216000Y-11853550D01*
X11157000Y-4090975D02*
X11157000Y-4210975D01*
X11097000Y-4150975D02*
X11217000Y-4150975D01*
X11157000Y-6017550D02*
X11157000Y-6137550D01*
X11097000Y-6077550D02*
X11217000Y-6077550D01*
X11157000Y-7944125D02*
X11157000Y-8064125D01*
X11097000Y-8004125D02*
X11217000Y-8004125D01*
X11157000Y-9870700D02*
X11157000Y-9990700D01*
X11097000Y-9930700D02*
X11217000Y-9930700D01*
X11336000Y-11688550D02*
X11336000Y-11808550D01*
X11276000Y-11748550D02*
X11396000Y-11748550D01*
X11337000Y-3985975D02*
X11337000Y-4105975D01*
X11277000Y-4045975D02*
X11397000Y-4045975D01*
X11337000Y-5912550D02*
X11337000Y-6032550D01*
X11277000Y-5972550D02*
X11397000Y-5972550D01*
X11337000Y-7839125D02*
X11337000Y-7959125D01*
X11277000Y-7899125D02*
X11397000Y-7899125D01*
X11337000Y-9765700D02*
X11337000Y-9885700D01*
X11277000Y-9825700D02*
X11397000Y-9825700D01*
X11856000Y-11688550D02*
X11856000Y-11808550D01*
X11796000Y-11748550D02*
X11916000Y-11748550D01*
X11857000Y-3985975D02*
X11857000Y-4105975D01*
X11797000Y-4045975D02*
X11917000Y-4045975D01*
X11857000Y-5912550D02*
X11857000Y-6032550D01*
X11797000Y-5972550D02*
X11917000Y-5972550D01*
X11857000Y-7839125D02*
X11857000Y-7959125D01*
X11797000Y-7899125D02*
X11917000Y-7899125D01*
X11857000Y-9765700D02*
X11857000Y-9885700D01*
X11797000Y-9825700D02*
X11917000Y-9825700D01*
X12036000Y-11793550D02*
X12036000Y-11913550D01*
X11976000Y-11853550D02*
X12096000Y-11853550D01*
X12037000Y-4090975D02*
X12037000Y-4210975D01*
X11977000Y-4150975D02*
X12097000Y-4150975D01*
X12037000Y-6017550D02*
X12037000Y-6137550D01*
X11977000Y-6077550D02*
X12097000Y-6077550D01*
X12037000Y-7944125D02*
X12037000Y-8064125D01*
X11977000Y-8004125D02*
X12097000Y-8004125D01*
X12037000Y-9870700D02*
X12037000Y-9990700D01*
X11977000Y-9930700D02*
X12097000Y-9930700D01*
X13096000Y-12288300D02*
X13096000Y-12408300D01*
X13036000Y-12348300D02*
X13156000Y-12348300D01*
X13097000Y-4585725D02*
X13097000Y-4705725D01*
X13037000Y-4645725D02*
X13157000Y-4645725D01*
X13097000Y-6512300D02*
X13097000Y-6632300D01*
X13037000Y-6572300D02*
X13157000Y-6572300D01*
X13097000Y-8438875D02*
X13097000Y-8558875D01*
X13037000Y-8498875D02*
X13157000Y-8498875D01*
X13097000Y-10365450D02*
X13097000Y-10485450D01*
X13037000Y-10425450D02*
X13157000Y-10425450D01*
X13276000Y-12183300D02*
X13276000Y-12303300D01*
X13216000Y-12243300D02*
X13336000Y-12243300D01*
X13277000Y-4480725D02*
X13277000Y-4600725D01*
X13217000Y-4540725D02*
X13337000Y-4540725D01*
X13277000Y-6407300D02*
X13277000Y-6527300D01*
X13217000Y-6467300D02*
X13337000Y-6467300D01*
X13277000Y-8333875D02*
X13277000Y-8453875D01*
X13217000Y-8393875D02*
X13337000Y-8393875D01*
X13277000Y-10260450D02*
X13277000Y-10380450D01*
X13217000Y-10320450D02*
X13337000Y-10320450D01*
X13796000Y-12183300D02*
X13796000Y-12303300D01*
X13736000Y-12243300D02*
X13856000Y-12243300D01*
X13797000Y-4480725D02*
X13797000Y-4600725D01*
X13737000Y-4540725D02*
X13857000Y-4540725D01*
X13797000Y-6407300D02*
X13797000Y-6527300D01*
X13737000Y-6467300D02*
X13857000Y-6467300D01*
X13797000Y-8333875D02*
X13797000Y-8453875D01*
X13737000Y-8393875D02*
X13857000Y-8393875D01*
X13797000Y-10260450D02*
X13797000Y-10380450D01*
X13737000Y-10320450D02*
X13857000Y-10320450D01*
X13976000Y-12288300D02*
X13976000Y-12408300D01*
X13916000Y-12348300D02*
X14036000Y-12348300D01*
X13977000Y-4585725D02*
X13977000Y-4705725D01*
X13917000Y-4645725D02*
X14037000Y-4645725D01*
X13977000Y-6512300D02*
X13977000Y-6632300D01*
X13917000Y-6572300D02*
X14037000Y-6572300D01*
X13977000Y-8438875D02*
X13977000Y-8558875D01*
X13917000Y-8498875D02*
X14037000Y-8498875D01*
X13977000Y-10365450D02*
X13977000Y-10485450D01*
X13917000Y-10425450D02*
X14037000Y-10425450D01*
X15015000Y-13150300D02*
X15015000Y-13270300D01*
X14955000Y-13210300D02*
X15075000Y-13210300D01*
X15195000Y-13045300D02*
X15195000Y-13165300D01*
X15135000Y-13105300D02*
X15255000Y-13105300D01*
X15715000Y-13045300D02*
X15715000Y-13165300D01*
X15655000Y-13105300D02*
X15775000Y-13105300D01*
X15895000Y-13150300D02*
X15895000Y-13270300D01*
X15835000Y-13210300D02*
X15955000Y-13210300D01*
D11*
X3022619Y-15020476D02*
X3022619Y-14820476D01*
X3070238Y-14820476D01*
X3098809Y-14830000D01*
X3117857Y-14849048D01*
X3127381Y-14868095D01*
X3136905Y-14906190D01*
X3136905Y-14934762D01*
X3127381Y-14972857D01*
X3117857Y-14991905D01*
X3098809Y-15010952D01*
X3070238Y-15020476D01*
X3022619Y-15020476D01*
X3222619Y-15020476D02*
X3222619Y-14887143D01*
X3222619Y-14925238D02*
X3232143Y-14906190D01*
X3241667Y-14896667D01*
X3260714Y-14887143D01*
X3279762Y-14887143D01*
X3346428Y-15020476D02*
X3346428Y-14887143D01*
X3346428Y-14820476D02*
X3336905Y-14830000D01*
X3346428Y-14839524D01*
X3355952Y-14830000D01*
X3346428Y-14820476D01*
X3346428Y-14839524D01*
X3470238Y-15020476D02*
X3451190Y-15010952D01*
X3441667Y-14991905D01*
X3441667Y-14820476D01*
X3575000Y-15020476D02*
X3555952Y-15010952D01*
X3546428Y-14991905D01*
X3546428Y-14820476D01*
X3803571Y-15020476D02*
X3803571Y-14820476D01*
X3870238Y-14963333D01*
X3936905Y-14820476D01*
X3936905Y-15020476D01*
X4117857Y-15020476D02*
X4117857Y-14915714D01*
X4108333Y-14896667D01*
X4089286Y-14887143D01*
X4051190Y-14887143D01*
X4032143Y-14896667D01*
X4117857Y-15010952D02*
X4098809Y-15020476D01*
X4051190Y-15020476D01*
X4032143Y-15010952D01*
X4022619Y-14991905D01*
X4022619Y-14972857D01*
X4032143Y-14953809D01*
X4051190Y-14944286D01*
X4098809Y-14944286D01*
X4117857Y-14934762D01*
X4213095Y-14887143D02*
X4213095Y-15087143D01*
X4213095Y-14896667D02*
X4232143Y-14887143D01*
X4270238Y-14887143D01*
X4289286Y-14896667D01*
X4298810Y-14906190D01*
X4308333Y-14925238D01*
X4308333Y-14982381D01*
X4298810Y-15001428D01*
X4289286Y-15010952D01*
X4270238Y-15020476D01*
X4232143Y-15020476D01*
X4213095Y-15010952D01*
X4394048Y-15001428D02*
X4403571Y-15010952D01*
X4394048Y-15020476D01*
X4384524Y-15010952D01*
X4394048Y-15001428D01*
X4394048Y-15020476D01*
X4394048Y-14896667D02*
X4403571Y-14906190D01*
X4394048Y-14915714D01*
X4384524Y-14906190D01*
X4394048Y-14896667D01*
X4394048Y-14915714D01*
D12*
X2725000Y-15330000D02*
X2765000Y-15370000D01*
X2765000Y-15330000D02*
X2725000Y-15370000D01*
D11*
X3060714Y-15240476D02*
X3079762Y-15240476D01*
X3098809Y-15250000D01*
X3108333Y-15259524D01*
X3117857Y-15278571D01*
X3127381Y-15316667D01*
X3127381Y-15364286D01*
X3117857Y-15402381D01*
X3108333Y-15421428D01*
X3098809Y-15430952D01*
X3079762Y-15440476D01*
X3060714Y-15440476D01*
X3041667Y-15430952D01*
X3032143Y-15421428D01*
X3022619Y-15402381D01*
X3013095Y-15364286D01*
X3013095Y-15316667D01*
X3022619Y-15278571D01*
X3032143Y-15259524D01*
X3041667Y-15250000D01*
X3060714Y-15240476D01*
X3213095Y-15421428D02*
X3222619Y-15430952D01*
X3213095Y-15440476D01*
X3203571Y-15430952D01*
X3213095Y-15421428D01*
X3213095Y-15440476D01*
X3394048Y-15307143D02*
X3394048Y-15440476D01*
X3346428Y-15230952D02*
X3298809Y-15373809D01*
X3422619Y-15373809D01*
X3536905Y-15240476D02*
X3555952Y-15240476D01*
X3575000Y-15250000D01*
X3584524Y-15259524D01*
X3594048Y-15278571D01*
X3603571Y-15316667D01*
X3603571Y-15364286D01*
X3594048Y-15402381D01*
X3584524Y-15421428D01*
X3575000Y-15430952D01*
X3555952Y-15440476D01*
X3536905Y-15440476D01*
X3517857Y-15430952D01*
X3508333Y-15421428D01*
X3498809Y-15402381D01*
X3489286Y-15364286D01*
X3489286Y-15316667D01*
X3498809Y-15278571D01*
X3508333Y-15259524D01*
X3517857Y-15250000D01*
X3536905Y-15240476D01*
X3727381Y-15240476D02*
X3746428Y-15240476D01*
X3765476Y-15250000D01*
X3775000Y-15259524D01*
X3784524Y-15278571D01*
X3794048Y-15316667D01*
X3794048Y-15364286D01*
X3784524Y-15402381D01*
X3775000Y-15421428D01*
X3765476Y-15430952D01*
X3746428Y-15440476D01*
X3727381Y-15440476D01*
X3708333Y-15430952D01*
X3698809Y-15421428D01*
X3689286Y-15402381D01*
X3679762Y-15364286D01*
X3679762Y-15316667D01*
X3689286Y-15278571D01*
X3698809Y-15259524D01*
X3708333Y-15250000D01*
X3727381Y-15240476D01*
X3879762Y-15440476D02*
X3879762Y-15307143D01*
X3879762Y-15326190D02*
X3889286Y-15316667D01*
X3908333Y-15307143D01*
X3936905Y-15307143D01*
X3955952Y-15316667D01*
X3965476Y-15335714D01*
X3965476Y-15440476D01*
X3965476Y-15335714D02*
X3975000Y-15316667D01*
X3994048Y-15307143D01*
X4022619Y-15307143D01*
X4041667Y-15316667D01*
X4051190Y-15335714D01*
X4051190Y-15440476D01*
X4146428Y-15440476D02*
X4146428Y-15307143D01*
X4146428Y-15326190D02*
X4155952Y-15316667D01*
X4175000Y-15307143D01*
X4203571Y-15307143D01*
X4222619Y-15316667D01*
X4232143Y-15335714D01*
X4232143Y-15440476D01*
X4232143Y-15335714D02*
X4241667Y-15316667D01*
X4260714Y-15307143D01*
X4289286Y-15307143D01*
X4308333Y-15316667D01*
X4317857Y-15335714D01*
X4317857Y-15440476D01*
X4708333Y-15230952D02*
X4536905Y-15488095D01*
X4965476Y-15240476D02*
X4984524Y-15240476D01*
X5003571Y-15250000D01*
X5013095Y-15259524D01*
X5022619Y-15278571D01*
X5032143Y-15316667D01*
X5032143Y-15364286D01*
X5022619Y-15402381D01*
X5013095Y-15421428D01*
X5003571Y-15430952D01*
X4984524Y-15440476D01*
X4965476Y-15440476D01*
X4946429Y-15430952D01*
X4936905Y-15421428D01*
X4927381Y-15402381D01*
X4917857Y-15364286D01*
X4917857Y-15316667D01*
X4927381Y-15278571D01*
X4936905Y-15259524D01*
X4946429Y-15250000D01*
X4965476Y-15240476D01*
X5117857Y-15421428D02*
X5127381Y-15430952D01*
X5117857Y-15440476D01*
X5108333Y-15430952D01*
X5117857Y-15421428D01*
X5117857Y-15440476D01*
X5251190Y-15240476D02*
X5270238Y-15240476D01*
X5289286Y-15250000D01*
X5298810Y-15259524D01*
X5308333Y-15278571D01*
X5317857Y-15316667D01*
X5317857Y-15364286D01*
X5308333Y-15402381D01*
X5298810Y-15421428D01*
X5289286Y-15430952D01*
X5270238Y-15440476D01*
X5251190Y-15440476D01*
X5232143Y-15430952D01*
X5222619Y-15421428D01*
X5213095Y-15402381D01*
X5203571Y-15364286D01*
X5203571Y-15316667D01*
X5213095Y-15278571D01*
X5222619Y-15259524D01*
X5232143Y-15250000D01*
X5251190Y-15240476D01*
X5508333Y-15440476D02*
X5394048Y-15440476D01*
X5451190Y-15440476D02*
X5451190Y-15240476D01*
X5432143Y-15269048D01*
X5413095Y-15288095D01*
X5394048Y-15297619D01*
X5689286Y-15240476D02*
X5594048Y-15240476D01*
X5584524Y-15335714D01*
X5594048Y-15326190D01*
X5613095Y-15316667D01*
X5660714Y-15316667D01*
X5679762Y-15326190D01*
X5689286Y-15335714D01*
X5698809Y-15354762D01*
X5698809Y-15402381D01*
X5689286Y-15421428D01*
X5679762Y-15430952D01*
X5660714Y-15440476D01*
X5613095Y-15440476D01*
X5594048Y-15430952D01*
X5584524Y-15421428D01*
X5765476Y-15240476D02*
X5898809Y-15240476D01*
X5813095Y-15440476D01*
X5965476Y-15240476D02*
X5965476Y-15278571D01*
X6041667Y-15240476D02*
X6041667Y-15278571D01*
X6336905Y-15516667D02*
X6327381Y-15507143D01*
X6308333Y-15478571D01*
X6298809Y-15459524D01*
X6289286Y-15430952D01*
X6279762Y-15383333D01*
X6279762Y-15345238D01*
X6289286Y-15297619D01*
X6298809Y-15269048D01*
X6308333Y-15250000D01*
X6327381Y-15221428D01*
X6336905Y-15211905D01*
X6517857Y-15440476D02*
X6403571Y-15440476D01*
X6460714Y-15440476D02*
X6460714Y-15240476D01*
X6441667Y-15269048D01*
X6422619Y-15288095D01*
X6403571Y-15297619D01*
X6632143Y-15326190D02*
X6613095Y-15316667D01*
X6603571Y-15307143D01*
X6594048Y-15288095D01*
X6594048Y-15278571D01*
X6603571Y-15259524D01*
X6613095Y-15250000D01*
X6632143Y-15240476D01*
X6670238Y-15240476D01*
X6689286Y-15250000D01*
X6698809Y-15259524D01*
X6708333Y-15278571D01*
X6708333Y-15288095D01*
X6698809Y-15307143D01*
X6689286Y-15316667D01*
X6670238Y-15326190D01*
X6632143Y-15326190D01*
X6613095Y-15335714D01*
X6603571Y-15345238D01*
X6594048Y-15364286D01*
X6594048Y-15402381D01*
X6603571Y-15421428D01*
X6613095Y-15430952D01*
X6632143Y-15440476D01*
X6670238Y-15440476D01*
X6689286Y-15430952D01*
X6698809Y-15421428D01*
X6708333Y-15402381D01*
X6708333Y-15364286D01*
X6698809Y-15345238D01*
X6689286Y-15335714D01*
X6670238Y-15326190D01*
X6946428Y-15440476D02*
X6946428Y-15240476D01*
X7032143Y-15440476D02*
X7032143Y-15335714D01*
X7022619Y-15316667D01*
X7003571Y-15307143D01*
X6975000Y-15307143D01*
X6955952Y-15316667D01*
X6946428Y-15326190D01*
X7155952Y-15440476D02*
X7136905Y-15430952D01*
X7127381Y-15421428D01*
X7117857Y-15402381D01*
X7117857Y-15345238D01*
X7127381Y-15326190D01*
X7136905Y-15316667D01*
X7155952Y-15307143D01*
X7184524Y-15307143D01*
X7203571Y-15316667D01*
X7213095Y-15326190D01*
X7222619Y-15345238D01*
X7222619Y-15402381D01*
X7213095Y-15421428D01*
X7203571Y-15430952D01*
X7184524Y-15440476D01*
X7155952Y-15440476D01*
X7336905Y-15440476D02*
X7317857Y-15430952D01*
X7308333Y-15411905D01*
X7308333Y-15240476D01*
X7489286Y-15430952D02*
X7470238Y-15440476D01*
X7432143Y-15440476D01*
X7413095Y-15430952D01*
X7403571Y-15411905D01*
X7403571Y-15335714D01*
X7413095Y-15316667D01*
X7432143Y-15307143D01*
X7470238Y-15307143D01*
X7489286Y-15316667D01*
X7498809Y-15335714D01*
X7498809Y-15354762D01*
X7403571Y-15373809D01*
X7575000Y-15430952D02*
X7594048Y-15440476D01*
X7632143Y-15440476D01*
X7651190Y-15430952D01*
X7660714Y-15411905D01*
X7660714Y-15402381D01*
X7651190Y-15383333D01*
X7632143Y-15373809D01*
X7603571Y-15373809D01*
X7584524Y-15364286D01*
X7575000Y-15345238D01*
X7575000Y-15335714D01*
X7584524Y-15316667D01*
X7603571Y-15307143D01*
X7632143Y-15307143D01*
X7651190Y-15316667D01*
X7727381Y-15516667D02*
X7736905Y-15507143D01*
X7755952Y-15478571D01*
X7765476Y-15459524D01*
X7775000Y-15430952D01*
X7784524Y-15383333D01*
X7784524Y-15345238D01*
X7775000Y-15297619D01*
X7765476Y-15269048D01*
X7755952Y-15250000D01*
X7736905Y-15221428D01*
X7727381Y-15211905D01*
D13*
X2765000Y-15614000D02*
G75*
G03*
X2765000Y-15614000I-40000J0D01*
G01*
D11*
X3060714Y-15504476D02*
X3079762Y-15504476D01*
X3098809Y-15514000D01*
X3108333Y-15523524D01*
X3117857Y-15542571D01*
X3127381Y-15580667D01*
X3127381Y-15628286D01*
X3117857Y-15666381D01*
X3108333Y-15685428D01*
X3098809Y-15694952D01*
X3079762Y-15704476D01*
X3060714Y-15704476D01*
X3041667Y-15694952D01*
X3032143Y-15685428D01*
X3022619Y-15666381D01*
X3013095Y-15628286D01*
X3013095Y-15580667D01*
X3022619Y-15542571D01*
X3032143Y-15523524D01*
X3041667Y-15514000D01*
X3060714Y-15504476D01*
X3213095Y-15685428D02*
X3222619Y-15694952D01*
X3213095Y-15704476D01*
X3203571Y-15694952D01*
X3213095Y-15685428D01*
X3213095Y-15704476D01*
X3336905Y-15590190D02*
X3317857Y-15580667D01*
X3308333Y-15571143D01*
X3298809Y-15552095D01*
X3298809Y-15542571D01*
X3308333Y-15523524D01*
X3317857Y-15514000D01*
X3336905Y-15504476D01*
X3375000Y-15504476D01*
X3394048Y-15514000D01*
X3403571Y-15523524D01*
X3413095Y-15542571D01*
X3413095Y-15552095D01*
X3403571Y-15571143D01*
X3394048Y-15580667D01*
X3375000Y-15590190D01*
X3336905Y-15590190D01*
X3317857Y-15599714D01*
X3308333Y-15609238D01*
X3298809Y-15628286D01*
X3298809Y-15666381D01*
X3308333Y-15685428D01*
X3317857Y-15694952D01*
X3336905Y-15704476D01*
X3375000Y-15704476D01*
X3394048Y-15694952D01*
X3403571Y-15685428D01*
X3413095Y-15666381D01*
X3413095Y-15628286D01*
X3403571Y-15609238D01*
X3394048Y-15599714D01*
X3375000Y-15590190D01*
X3536905Y-15504476D02*
X3555952Y-15504476D01*
X3575000Y-15514000D01*
X3584524Y-15523524D01*
X3594048Y-15542571D01*
X3603571Y-15580667D01*
X3603571Y-15628286D01*
X3594048Y-15666381D01*
X3584524Y-15685428D01*
X3575000Y-15694952D01*
X3555952Y-15704476D01*
X3536905Y-15704476D01*
X3517857Y-15694952D01*
X3508333Y-15685428D01*
X3498809Y-15666381D01*
X3489286Y-15628286D01*
X3489286Y-15580667D01*
X3498809Y-15542571D01*
X3508333Y-15523524D01*
X3517857Y-15514000D01*
X3536905Y-15504476D01*
X3727381Y-15504476D02*
X3746428Y-15504476D01*
X3765476Y-15514000D01*
X3775000Y-15523524D01*
X3784524Y-15542571D01*
X3794048Y-15580667D01*
X3794048Y-15628286D01*
X3784524Y-15666381D01*
X3775000Y-15685428D01*
X3765476Y-15694952D01*
X3746428Y-15704476D01*
X3727381Y-15704476D01*
X3708333Y-15694952D01*
X3698809Y-15685428D01*
X3689286Y-15666381D01*
X3679762Y-15628286D01*
X3679762Y-15580667D01*
X3689286Y-15542571D01*
X3698809Y-15523524D01*
X3708333Y-15514000D01*
X3727381Y-15504476D01*
X3879762Y-15704476D02*
X3879762Y-15571143D01*
X3879762Y-15590190D02*
X3889286Y-15580667D01*
X3908333Y-15571143D01*
X3936905Y-15571143D01*
X3955952Y-15580667D01*
X3965476Y-15599714D01*
X3965476Y-15704476D01*
X3965476Y-15599714D02*
X3975000Y-15580667D01*
X3994048Y-15571143D01*
X4022619Y-15571143D01*
X4041667Y-15580667D01*
X4051190Y-15599714D01*
X4051190Y-15704476D01*
X4146428Y-15704476D02*
X4146428Y-15571143D01*
X4146428Y-15590190D02*
X4155952Y-15580667D01*
X4175000Y-15571143D01*
X4203571Y-15571143D01*
X4222619Y-15580667D01*
X4232143Y-15599714D01*
X4232143Y-15704476D01*
X4232143Y-15599714D02*
X4241667Y-15580667D01*
X4260714Y-15571143D01*
X4289286Y-15571143D01*
X4308333Y-15580667D01*
X4317857Y-15599714D01*
X4317857Y-15704476D01*
X4708333Y-15494952D02*
X4536905Y-15752095D01*
X4965476Y-15504476D02*
X4984524Y-15504476D01*
X5003571Y-15514000D01*
X5013095Y-15523524D01*
X5022619Y-15542571D01*
X5032143Y-15580667D01*
X5032143Y-15628286D01*
X5022619Y-15666381D01*
X5013095Y-15685428D01*
X5003571Y-15694952D01*
X4984524Y-15704476D01*
X4965476Y-15704476D01*
X4946429Y-15694952D01*
X4936905Y-15685428D01*
X4927381Y-15666381D01*
X4917857Y-15628286D01*
X4917857Y-15580667D01*
X4927381Y-15542571D01*
X4936905Y-15523524D01*
X4946429Y-15514000D01*
X4965476Y-15504476D01*
X5117857Y-15685428D02*
X5127381Y-15694952D01*
X5117857Y-15704476D01*
X5108333Y-15694952D01*
X5117857Y-15685428D01*
X5117857Y-15704476D01*
X5251190Y-15504476D02*
X5270238Y-15504476D01*
X5289286Y-15514000D01*
X5298810Y-15523524D01*
X5308333Y-15542571D01*
X5317857Y-15580667D01*
X5317857Y-15628286D01*
X5308333Y-15666381D01*
X5298810Y-15685428D01*
X5289286Y-15694952D01*
X5270238Y-15704476D01*
X5251190Y-15704476D01*
X5232143Y-15694952D01*
X5222619Y-15685428D01*
X5213095Y-15666381D01*
X5203571Y-15628286D01*
X5203571Y-15580667D01*
X5213095Y-15542571D01*
X5222619Y-15523524D01*
X5232143Y-15514000D01*
X5251190Y-15504476D01*
X5384524Y-15504476D02*
X5508333Y-15504476D01*
X5441667Y-15580667D01*
X5470238Y-15580667D01*
X5489286Y-15590190D01*
X5498810Y-15599714D01*
X5508333Y-15618762D01*
X5508333Y-15666381D01*
X5498810Y-15685428D01*
X5489286Y-15694952D01*
X5470238Y-15704476D01*
X5413095Y-15704476D01*
X5394048Y-15694952D01*
X5384524Y-15685428D01*
X5698809Y-15704476D02*
X5584524Y-15704476D01*
X5641667Y-15704476D02*
X5641667Y-15504476D01*
X5622619Y-15533048D01*
X5603571Y-15552095D01*
X5584524Y-15561619D01*
X5879762Y-15504476D02*
X5784524Y-15504476D01*
X5775000Y-15599714D01*
X5784524Y-15590190D01*
X5803571Y-15580667D01*
X5851190Y-15580667D01*
X5870238Y-15590190D01*
X5879762Y-15599714D01*
X5889286Y-15618762D01*
X5889286Y-15666381D01*
X5879762Y-15685428D01*
X5870238Y-15694952D01*
X5851190Y-15704476D01*
X5803571Y-15704476D01*
X5784524Y-15694952D01*
X5775000Y-15685428D01*
X5965476Y-15504476D02*
X5965476Y-15542571D01*
X6041667Y-15504476D02*
X6041667Y-15542571D01*
X6336905Y-15780667D02*
X6327381Y-15771143D01*
X6308333Y-15742571D01*
X6298809Y-15723524D01*
X6289286Y-15694952D01*
X6279762Y-15647333D01*
X6279762Y-15609238D01*
X6289286Y-15561619D01*
X6298809Y-15533048D01*
X6308333Y-15514000D01*
X6327381Y-15485428D01*
X6336905Y-15475905D01*
X6498809Y-15504476D02*
X6460714Y-15504476D01*
X6441667Y-15514000D01*
X6432143Y-15523524D01*
X6413095Y-15552095D01*
X6403571Y-15590190D01*
X6403571Y-15666381D01*
X6413095Y-15685428D01*
X6422619Y-15694952D01*
X6441667Y-15704476D01*
X6479762Y-15704476D01*
X6498809Y-15694952D01*
X6508333Y-15685428D01*
X6517857Y-15666381D01*
X6517857Y-15618762D01*
X6508333Y-15599714D01*
X6498809Y-15590190D01*
X6479762Y-15580667D01*
X6441667Y-15580667D01*
X6422619Y-15590190D01*
X6413095Y-15599714D01*
X6403571Y-15618762D01*
X6689286Y-15571143D02*
X6689286Y-15704476D01*
X6641667Y-15494952D02*
X6594048Y-15637809D01*
X6717857Y-15637809D01*
X6946428Y-15704476D02*
X6946428Y-15504476D01*
X7032143Y-15704476D02*
X7032143Y-15599714D01*
X7022619Y-15580667D01*
X7003571Y-15571143D01*
X6975000Y-15571143D01*
X6955952Y-15580667D01*
X6946428Y-15590190D01*
X7155952Y-15704476D02*
X7136905Y-15694952D01*
X7127381Y-15685428D01*
X7117857Y-15666381D01*
X7117857Y-15609238D01*
X7127381Y-15590190D01*
X7136905Y-15580667D01*
X7155952Y-15571143D01*
X7184524Y-15571143D01*
X7203571Y-15580667D01*
X7213095Y-15590190D01*
X7222619Y-15609238D01*
X7222619Y-15666381D01*
X7213095Y-15685428D01*
X7203571Y-15694952D01*
X7184524Y-15704476D01*
X7155952Y-15704476D01*
X7336905Y-15704476D02*
X7317857Y-15694952D01*
X7308333Y-15675905D01*
X7308333Y-15504476D01*
X7489286Y-15694952D02*
X7470238Y-15704476D01*
X7432143Y-15704476D01*
X7413095Y-15694952D01*
X7403571Y-15675905D01*
X7403571Y-15599714D01*
X7413095Y-15580667D01*
X7432143Y-15571143D01*
X7470238Y-15571143D01*
X7489286Y-15580667D01*
X7498809Y-15599714D01*
X7498809Y-15618762D01*
X7403571Y-15637809D01*
X7575000Y-15694952D02*
X7594048Y-15704476D01*
X7632143Y-15704476D01*
X7651190Y-15694952D01*
X7660714Y-15675905D01*
X7660714Y-15666381D01*
X7651190Y-15647333D01*
X7632143Y-15637809D01*
X7603571Y-15637809D01*
X7584524Y-15628286D01*
X7575000Y-15609238D01*
X7575000Y-15599714D01*
X7584524Y-15580667D01*
X7603571Y-15571143D01*
X7632143Y-15571143D01*
X7651190Y-15580667D01*
X7727381Y-15780667D02*
X7736905Y-15771143D01*
X7755952Y-15742571D01*
X7765476Y-15723524D01*
X7775000Y-15694952D01*
X7784524Y-15647333D01*
X7784524Y-15609238D01*
X7775000Y-15561619D01*
X7765476Y-15533048D01*
X7755952Y-15514000D01*
X7736905Y-15485428D01*
X7727381Y-15475905D01*
D14*
X2705000Y-15818000D02*
X2705000Y-15938000D01*
X2645000Y-15878000D02*
X2765000Y-15878000D01*
D11*
X3127381Y-15968476D02*
X3013095Y-15968476D01*
X3070238Y-15968476D02*
X3070238Y-15768476D01*
X3051190Y-15797048D01*
X3032143Y-15816095D01*
X3013095Y-15825619D01*
X3213095Y-15949428D02*
X3222619Y-15958952D01*
X3213095Y-15968476D01*
X3203571Y-15958952D01*
X3213095Y-15949428D01*
X3213095Y-15968476D01*
X3298809Y-15787524D02*
X3308333Y-15778000D01*
X3327381Y-15768476D01*
X3375000Y-15768476D01*
X3394048Y-15778000D01*
X3403571Y-15787524D01*
X3413095Y-15806571D01*
X3413095Y-15825619D01*
X3403571Y-15854190D01*
X3289286Y-15968476D01*
X3413095Y-15968476D01*
X3536905Y-15768476D02*
X3555952Y-15768476D01*
X3575000Y-15778000D01*
X3584524Y-15787524D01*
X3594048Y-15806571D01*
X3603571Y-15844667D01*
X3603571Y-15892286D01*
X3594048Y-15930381D01*
X3584524Y-15949428D01*
X3575000Y-15958952D01*
X3555952Y-15968476D01*
X3536905Y-15968476D01*
X3517857Y-15958952D01*
X3508333Y-15949428D01*
X3498809Y-15930381D01*
X3489286Y-15892286D01*
X3489286Y-15844667D01*
X3498809Y-15806571D01*
X3508333Y-15787524D01*
X3517857Y-15778000D01*
X3536905Y-15768476D01*
X3727381Y-15768476D02*
X3746428Y-15768476D01*
X3765476Y-15778000D01*
X3775000Y-15787524D01*
X3784524Y-15806571D01*
X3794048Y-15844667D01*
X3794048Y-15892286D01*
X3784524Y-15930381D01*
X3775000Y-15949428D01*
X3765476Y-15958952D01*
X3746428Y-15968476D01*
X3727381Y-15968476D01*
X3708333Y-15958952D01*
X3698809Y-15949428D01*
X3689286Y-15930381D01*
X3679762Y-15892286D01*
X3679762Y-15844667D01*
X3689286Y-15806571D01*
X3698809Y-15787524D01*
X3708333Y-15778000D01*
X3727381Y-15768476D01*
X3879762Y-15968476D02*
X3879762Y-15835143D01*
X3879762Y-15854190D02*
X3889286Y-15844667D01*
X3908333Y-15835143D01*
X3936905Y-15835143D01*
X3955952Y-15844667D01*
X3965476Y-15863714D01*
X3965476Y-15968476D01*
X3965476Y-15863714D02*
X3975000Y-15844667D01*
X3994048Y-15835143D01*
X4022619Y-15835143D01*
X4041667Y-15844667D01*
X4051190Y-15863714D01*
X4051190Y-15968476D01*
X4146428Y-15968476D02*
X4146428Y-15835143D01*
X4146428Y-15854190D02*
X4155952Y-15844667D01*
X4175000Y-15835143D01*
X4203571Y-15835143D01*
X4222619Y-15844667D01*
X4232143Y-15863714D01*
X4232143Y-15968476D01*
X4232143Y-15863714D02*
X4241667Y-15844667D01*
X4260714Y-15835143D01*
X4289286Y-15835143D01*
X4308333Y-15844667D01*
X4317857Y-15863714D01*
X4317857Y-15968476D01*
X4708333Y-15758952D02*
X4536905Y-16016095D01*
X4965476Y-15768476D02*
X4984524Y-15768476D01*
X5003571Y-15778000D01*
X5013095Y-15787524D01*
X5022619Y-15806571D01*
X5032143Y-15844667D01*
X5032143Y-15892286D01*
X5022619Y-15930381D01*
X5013095Y-15949428D01*
X5003571Y-15958952D01*
X4984524Y-15968476D01*
X4965476Y-15968476D01*
X4946429Y-15958952D01*
X4936905Y-15949428D01*
X4927381Y-15930381D01*
X4917857Y-15892286D01*
X4917857Y-15844667D01*
X4927381Y-15806571D01*
X4936905Y-15787524D01*
X4946429Y-15778000D01*
X4965476Y-15768476D01*
X5117857Y-15949428D02*
X5127381Y-15958952D01*
X5117857Y-15968476D01*
X5108333Y-15958952D01*
X5117857Y-15949428D01*
X5117857Y-15968476D01*
X5251190Y-15768476D02*
X5270238Y-15768476D01*
X5289286Y-15778000D01*
X5298810Y-15787524D01*
X5308333Y-15806571D01*
X5317857Y-15844667D01*
X5317857Y-15892286D01*
X5308333Y-15930381D01*
X5298810Y-15949428D01*
X5289286Y-15958952D01*
X5270238Y-15968476D01*
X5251190Y-15968476D01*
X5232143Y-15958952D01*
X5222619Y-15949428D01*
X5213095Y-15930381D01*
X5203571Y-15892286D01*
X5203571Y-15844667D01*
X5213095Y-15806571D01*
X5222619Y-15787524D01*
X5232143Y-15778000D01*
X5251190Y-15768476D01*
X5489286Y-15835143D02*
X5489286Y-15968476D01*
X5441667Y-15758952D02*
X5394048Y-15901809D01*
X5517857Y-15901809D01*
X5575000Y-15768476D02*
X5708333Y-15768476D01*
X5622619Y-15968476D01*
X5775000Y-15787524D02*
X5784524Y-15778000D01*
X5803571Y-15768476D01*
X5851190Y-15768476D01*
X5870238Y-15778000D01*
X5879762Y-15787524D01*
X5889286Y-15806571D01*
X5889286Y-15825619D01*
X5879762Y-15854190D01*
X5765476Y-15968476D01*
X5889286Y-15968476D01*
X5965476Y-15768476D02*
X5965476Y-15806571D01*
X6041667Y-15768476D02*
X6041667Y-15806571D01*
X6336905Y-16044667D02*
X6327381Y-16035143D01*
X6308333Y-16006571D01*
X6298809Y-15987524D01*
X6289286Y-15958952D01*
X6279762Y-15911333D01*
X6279762Y-15873238D01*
X6289286Y-15825619D01*
X6298809Y-15797048D01*
X6308333Y-15778000D01*
X6327381Y-15749428D01*
X6336905Y-15739905D01*
X6517857Y-15968476D02*
X6403571Y-15968476D01*
X6460714Y-15968476D02*
X6460714Y-15768476D01*
X6441667Y-15797048D01*
X6422619Y-15816095D01*
X6403571Y-15825619D01*
X6594048Y-15787524D02*
X6603571Y-15778000D01*
X6622619Y-15768476D01*
X6670238Y-15768476D01*
X6689286Y-15778000D01*
X6698809Y-15787524D01*
X6708333Y-15806571D01*
X6708333Y-15825619D01*
X6698809Y-15854190D01*
X6584524Y-15968476D01*
X6708333Y-15968476D01*
X6832143Y-15768476D02*
X6851190Y-15768476D01*
X6870238Y-15778000D01*
X6879762Y-15787524D01*
X6889286Y-15806571D01*
X6898809Y-15844667D01*
X6898809Y-15892286D01*
X6889286Y-15930381D01*
X6879762Y-15949428D01*
X6870238Y-15958952D01*
X6851190Y-15968476D01*
X6832143Y-15968476D01*
X6813095Y-15958952D01*
X6803571Y-15949428D01*
X6794048Y-15930381D01*
X6784524Y-15892286D01*
X6784524Y-15844667D01*
X6794048Y-15806571D01*
X6803571Y-15787524D01*
X6813095Y-15778000D01*
X6832143Y-15768476D01*
X7136905Y-15968476D02*
X7136905Y-15768476D01*
X7222619Y-15968476D02*
X7222619Y-15863714D01*
X7213095Y-15844667D01*
X7194048Y-15835143D01*
X7165476Y-15835143D01*
X7146428Y-15844667D01*
X7136905Y-15854190D01*
X7346428Y-15968476D02*
X7327381Y-15958952D01*
X7317857Y-15949428D01*
X7308333Y-15930381D01*
X7308333Y-15873238D01*
X7317857Y-15854190D01*
X7327381Y-15844667D01*
X7346428Y-15835143D01*
X7375000Y-15835143D01*
X7394048Y-15844667D01*
X7403571Y-15854190D01*
X7413095Y-15873238D01*
X7413095Y-15930381D01*
X7403571Y-15949428D01*
X7394048Y-15958952D01*
X7375000Y-15968476D01*
X7346428Y-15968476D01*
X7527381Y-15968476D02*
X7508333Y-15958952D01*
X7498809Y-15939905D01*
X7498809Y-15768476D01*
X7679762Y-15958952D02*
X7660714Y-15968476D01*
X7622619Y-15968476D01*
X7603571Y-15958952D01*
X7594048Y-15939905D01*
X7594048Y-15863714D01*
X7603571Y-15844667D01*
X7622619Y-15835143D01*
X7660714Y-15835143D01*
X7679762Y-15844667D01*
X7689286Y-15863714D01*
X7689286Y-15882762D01*
X7594048Y-15901809D01*
X7765476Y-15958952D02*
X7784524Y-15968476D01*
X7822619Y-15968476D01*
X7841667Y-15958952D01*
X7851190Y-15939905D01*
X7851190Y-15930381D01*
X7841667Y-15911333D01*
X7822619Y-15901809D01*
X7794048Y-15901809D01*
X7775000Y-15892286D01*
X7765476Y-15873238D01*
X7765476Y-15863714D01*
X7775000Y-15844667D01*
X7794048Y-15835143D01*
X7822619Y-15835143D01*
X7841667Y-15844667D01*
X7917857Y-16044667D02*
X7927381Y-16035143D01*
X7946428Y-16006571D01*
X7955952Y-15987524D01*
X7965476Y-15958952D01*
X7975000Y-15911333D01*
X7975000Y-15873238D01*
X7965476Y-15825619D01*
X7955952Y-15797048D01*
X7946428Y-15778000D01*
X7927381Y-15749428D01*
X7917857Y-15739905D01*
M02*
