%TF.GenerationSoftware,KiCad,Pcbnew,(6.0.8)*%
%TF.CreationDate,2023-02-14T17:54:26+07:00*%
%TF.ProjectId,dongle_256,646f6e67-6c65-45f3-9235-362e6b696361,rev?*%
%TF.SameCoordinates,Original*%
%TF.FileFunction,Copper,L1,Top*%
%TF.FilePolarity,Positive*%
%FSLAX46Y46*%
G04 Gerber Fmt 4.6, Leading zero omitted, Abs format (unit mm)*
G04 Created by KiCad (PCBNEW (6.0.8)) date 2023-02-14 17:54:26*
%MOMM*%
%LPD*%
G01*
G04 APERTURE LIST*
G04 Aperture macros list*
%AMRoundRect*
0 Rectangle with rounded corners*
0 $1 Rounding radius*
0 $2 $3 $4 $5 $6 $7 $8 $9 X,Y pos of 4 corners*
0 Add a 4 corners polygon primitive as box body*
4,1,4,$2,$3,$4,$5,$6,$7,$8,$9,$2,$3,0*
0 Add four circle primitives for the rounded corners*
1,1,$1+$1,$2,$3*
1,1,$1+$1,$4,$5*
1,1,$1+$1,$6,$7*
1,1,$1+$1,$8,$9*
0 Add four rect primitives between the rounded corners*
20,1,$1+$1,$2,$3,$4,$5,0*
20,1,$1+$1,$4,$5,$6,$7,0*
20,1,$1+$1,$6,$7,$8,$9,0*
20,1,$1+$1,$8,$9,$2,$3,0*%
G04 Aperture macros list end*
%TA.AperFunction,ComponentPad*%
%ADD10R,1.600000X1.600000*%
%TD*%
%TA.AperFunction,ComponentPad*%
%ADD11O,1.600000X1.600000*%
%TD*%
%TA.AperFunction,ComponentPad*%
%ADD12C,1.700000*%
%TD*%
%TA.AperFunction,SMDPad,CuDef*%
%ADD13R,1.800000X1.524000*%
%TD*%
%TA.AperFunction,SMDPad,CuDef*%
%ADD14R,5.100000X1.200000*%
%TD*%
%TA.AperFunction,SMDPad,CuDef*%
%ADD15RoundRect,1.250000X1.250000X-1.250000X1.250000X1.250000X-1.250000X1.250000X-1.250000X-1.250000X0*%
%TD*%
%TA.AperFunction,SMDPad,CuDef*%
%ADD16R,1.524000X1.000000*%
%TD*%
%TA.AperFunction,ViaPad*%
%ADD17C,0.800000*%
%TD*%
%TA.AperFunction,Conductor*%
%ADD18C,0.250000*%
%TD*%
G04 APERTURE END LIST*
D10*
%TO.P,D17,1,K*%
%TO.N,Net-(D13-Pad1)*%
X125830000Y-92787500D03*
D11*
%TO.P,D17,2,A*%
%TO.N,Net-(D17-Pad2)*%
X125830000Y-85167500D03*
%TD*%
D12*
%TO.P,SW28,1,COL*%
%TO.N,Net-(SW10-Pad1)*%
X113360000Y-117485500D03*
X118560000Y-117485500D03*
%TO.P,SW28,2,ROW*%
%TO.N,Net-(D28-Pad2)*%
X120360000Y-118535500D03*
X111560000Y-118535500D03*
%TD*%
D13*
%TO.P,U1,0.02,0.02*%
%TO.N,Net-(SW15-Pad1)*%
X164020000Y-72595000D03*
%TO.P,U1,0.09,0.09*%
%TO.N,Net-(D19-Pad1)*%
X148780000Y-77675000D03*
%TO.P,U1,0.10,0.10*%
%TO.N,Net-(D25-Pad1)*%
X148780000Y-80215000D03*
%TO.P,U1,0.13,0.13*%
%TO.N,Net-(U1-Pad0.13)*%
X148780000Y-59895000D03*
%TO.P,U1,0.15,0.15*%
%TO.N,Net-(U1-Pad0.15)*%
X148780000Y-62435000D03*
%TO.P,U1,0.17,0.17*%
%TO.N,Net-(U1-Pad0.17)*%
X148780000Y-64975000D03*
%TO.P,U1,0.20,0.20*%
%TO.N,Net-(SW31-Pad2)*%
X148780000Y-67515000D03*
%TO.P,U1,0.22,0.22*%
%TO.N,Net-(D1-Pad1)*%
X148780000Y-70055000D03*
%TO.P,U1,0.24,0.24*%
%TO.N,Net-(D10-Pad1)*%
X148780000Y-72595000D03*
%TO.P,U1,0.29,0.29*%
%TO.N,Net-(SW14-Pad1)*%
X164020000Y-70055000D03*
%TO.P,U1,0.31,0.31*%
%TO.N,Net-(SW1-Pad1)*%
X164020000Y-67515000D03*
%TO.P,U1,1.00,1.00*%
%TO.N,Net-(D13-Pad1)*%
X148780000Y-75135000D03*
%TO.P,U1,1.10,1.10*%
%TO.N,Net-(SW12-Pad1)*%
X164020000Y-80215000D03*
%TO.P,U1,1.13,1.13*%
%TO.N,Net-(SW11-Pad1)*%
X164020000Y-77675000D03*
%TO.P,U1,1.15,1.15*%
%TO.N,Net-(SW10-Pad1)*%
X164020000Y-75135000D03*
%TO.P,U1,G1,GND*%
%TO.N,Net-(BT1-Pad2)*%
X148780000Y-82755000D03*
%TO.P,U1,G2,GND*%
X164020000Y-82755000D03*
%TO.P,U1,G3,GND*%
X164020000Y-64975000D03*
%TO.P,U1,OUT,OUT*%
%TO.N,Net-(U1-PadOUT)*%
X164020000Y-62435000D03*
%TO.P,U1,SWDCLK,SWDCLK*%
%TO.N,Net-(J1-Pad1)*%
X161960000Y-54815000D03*
%TO.P,U1,SWDIO,SWDIO*%
%TO.N,Net-(J1-Pad2)*%
X150840000Y-54815000D03*
%TO.P,U1,VBUS,VBUS*%
%TO.N,Net-(U1-PadVBUS)*%
X164020000Y-59895000D03*
%TD*%
D10*
%TO.P,D30,1,K*%
%TO.N,Net-(D25-Pad1)*%
X164300000Y-139810000D03*
D11*
%TO.P,D30,2,A*%
%TO.N,Net-(D30-Pad2)*%
X164300000Y-132190000D03*
%TD*%
D10*
%TO.P,D12,1,K*%
%TO.N,Net-(D10-Pad1)*%
X144900000Y-80505000D03*
D11*
%TO.P,D12,2,A*%
%TO.N,Net-(D12-Pad2)*%
X144900000Y-72885000D03*
%TD*%
D10*
%TO.P,D21,1,K*%
%TO.N,Net-(D19-Pad1)*%
X86800000Y-106855000D03*
D11*
%TO.P,D21,2,A*%
%TO.N,Net-(D21-Pad2)*%
X86800000Y-99235000D03*
%TD*%
D10*
%TO.P,D22,1,K*%
%TO.N,Net-(D19-Pad1)*%
X106400000Y-106200000D03*
D11*
%TO.P,D22,2,A*%
%TO.N,Net-(D22-Pad2)*%
X106400000Y-98580000D03*
%TD*%
D12*
%TO.P,SW8,1,COL*%
%TO.N,Net-(SW14-Pad1)*%
X55490000Y-64673000D03*
X60690000Y-64673000D03*
%TO.P,SW8,2,ROW*%
%TO.N,Net-(D8-Pad2)*%
X53690000Y-65723000D03*
X62490000Y-65723000D03*
%TD*%
%TO.P,SW24,1,COL*%
%TO.N,Net-(SW12-Pad1)*%
X137970000Y-103204500D03*
X132770000Y-103204500D03*
%TO.P,SW24,2,ROW*%
%TO.N,Net-(D24-Pad2)*%
X130970000Y-104254500D03*
X139770000Y-104254500D03*
%TD*%
D10*
%TO.P,D5,1,K*%
%TO.N,Net-(D1-Pad1)*%
X125834000Y-54292500D03*
D11*
%TO.P,D5,2,A*%
%TO.N,Net-(D5-Pad2)*%
X125834000Y-46672500D03*
%TD*%
D12*
%TO.P,SW27,1,COL*%
%TO.N,Net-(SW15-Pad1)*%
X94080000Y-111945500D03*
X99280000Y-111945500D03*
%TO.P,SW27,2,ROW*%
%TO.N,Net-(D27-Pad2)*%
X92280000Y-112995500D03*
X101080000Y-112995500D03*
%TD*%
D10*
%TO.P,D27,1,K*%
%TO.N,Net-(D25-Pad1)*%
X106366000Y-125410250D03*
D11*
%TO.P,D27,2,A*%
%TO.N,Net-(D27-Pad2)*%
X106366000Y-117790250D03*
%TD*%
D12*
%TO.P,SW29,1,COL*%
%TO.N,Net-(SW11-Pad1)*%
X132760000Y-122433000D03*
X137960000Y-122433000D03*
%TO.P,SW29,2,ROW*%
%TO.N,Net-(D29-Pad2)*%
X139760000Y-123483000D03*
X130960000Y-123483000D03*
%TD*%
D14*
%TO.P,BT1,1,+*%
%TO.N,Net-(BT1-Pad1)*%
X156150000Y-100150000D03*
X156150000Y-121950000D03*
D15*
%TO.P,BT1,2,-*%
%TO.N,Net-(BT1-Pad2)*%
X156150000Y-111050000D03*
%TD*%
D10*
%TO.P,D20,1,K*%
%TO.N,Net-(D19-Pad1)*%
X67850000Y-111849750D03*
D11*
%TO.P,D20,2,A*%
%TO.N,Net-(D20-Pad2)*%
X67850000Y-104229750D03*
%TD*%
D12*
%TO.P,SW10,1,COL*%
%TO.N,Net-(SW10-Pad1)*%
X99290000Y-54185500D03*
X94090000Y-54185500D03*
%TO.P,SW10,2,ROW*%
%TO.N,Net-(D10-Pad2)*%
X101090000Y-55235500D03*
X92290000Y-55235500D03*
%TD*%
D10*
%TO.P,D4,1,K*%
%TO.N,Net-(D1-Pad1)*%
X106408000Y-48457500D03*
D11*
%TO.P,D4,2,A*%
%TO.N,Net-(D4-Pad2)*%
X106408000Y-40837500D03*
%TD*%
D12*
%TO.P,SW3,1,COL*%
%TO.N,Net-(SW15-Pad1)*%
X74730000Y-40459750D03*
X79930000Y-40459750D03*
%TO.P,SW3,2,ROW*%
%TO.N,Net-(D3-Pad2)*%
X72930000Y-41509750D03*
X81730000Y-41509750D03*
%TD*%
D10*
%TO.P,D29,1,K*%
%TO.N,Net-(D25-Pad1)*%
X144870000Y-136367500D03*
D11*
%TO.P,D29,2,A*%
%TO.N,Net-(D29-Pad2)*%
X144870000Y-128747500D03*
%TD*%
D10*
%TO.P,D16,1,K*%
%TO.N,Net-(D13-Pad1)*%
X106400000Y-86952500D03*
D11*
%TO.P,D16,2,A*%
%TO.N,Net-(D16-Pad2)*%
X106400000Y-79332500D03*
%TD*%
D12*
%TO.P,SW11,1,COL*%
%TO.N,Net-(SW11-Pad1)*%
X113370000Y-59725500D03*
X118570000Y-59725500D03*
%TO.P,SW11,2,ROW*%
%TO.N,Net-(D11-Pad2)*%
X120370000Y-60775500D03*
X111570000Y-60775500D03*
%TD*%
D10*
%TO.P,D18,1,K*%
%TO.N,Net-(D13-Pad1)*%
X144900000Y-99752500D03*
D11*
%TO.P,D18,2,A*%
%TO.N,Net-(D18-Pad2)*%
X144900000Y-92132500D03*
%TD*%
D10*
%TO.P,D26,1,K*%
%TO.N,Net-(D25-Pad1)*%
X86758000Y-126065250D03*
D11*
%TO.P,D26,2,A*%
%TO.N,Net-(D26-Pad2)*%
X86758000Y-118445250D03*
%TD*%
D12*
%TO.P,SW4,1,COL*%
%TO.N,Net-(SW10-Pad1)*%
X99290000Y-34919750D03*
X94090000Y-34919750D03*
%TO.P,SW4,2,ROW*%
%TO.N,Net-(D4-Pad2)*%
X101090000Y-35969750D03*
X92290000Y-35969750D03*
%TD*%
D10*
%TO.P,D3,1,K*%
%TO.N,Net-(D1-Pad1)*%
X86812000Y-49112500D03*
D11*
%TO.P,D3,2,A*%
%TO.N,Net-(D3-Pad2)*%
X86812000Y-41492500D03*
%TD*%
D12*
%TO.P,SW17,1,COL*%
%TO.N,Net-(SW11-Pad1)*%
X118570000Y-78991250D03*
X113370000Y-78991250D03*
%TO.P,SW17,2,ROW*%
%TO.N,Net-(D17-Pad2)*%
X111570000Y-80041250D03*
X120370000Y-80041250D03*
%TD*%
%TO.P,SW19,1,COL*%
%TO.N,Net-(SW1-Pad1)*%
X41370000Y-103204500D03*
X36170000Y-103204500D03*
%TO.P,SW19,2,ROW*%
%TO.N,Net-(D19-Pad2)*%
X34370000Y-104254500D03*
X43170000Y-104254500D03*
%TD*%
%TO.P,SW26,1,COL*%
%TO.N,Net-(SW14-Pad1)*%
X79920000Y-117485500D03*
X74720000Y-117485500D03*
%TO.P,SW26,2,ROW*%
%TO.N,Net-(D26-Pad2)*%
X72920000Y-118535500D03*
X81720000Y-118535500D03*
%TD*%
%TO.P,SW1,1,COL*%
%TO.N,Net-(SW1-Pad1)*%
X36170000Y-45407250D03*
X41370000Y-45407250D03*
%TO.P,SW1,2,ROW*%
%TO.N,Net-(D1-Pad2)*%
X43170000Y-46457250D03*
X34370000Y-46457250D03*
%TD*%
D10*
%TO.P,D7,1,K*%
%TO.N,Net-(D10-Pad1)*%
X48530000Y-73354750D03*
D11*
%TO.P,D7,2,A*%
%TO.N,Net-(D7-Pad2)*%
X48530000Y-65734750D03*
%TD*%
D10*
%TO.P,D11,1,K*%
%TO.N,Net-(D10-Pad1)*%
X125830000Y-73540000D03*
D11*
%TO.P,D11,2,A*%
%TO.N,Net-(D11-Pad2)*%
X125830000Y-65920000D03*
%TD*%
D12*
%TO.P,SW2,1,COL*%
%TO.N,Net-(SW14-Pad1)*%
X60690000Y-45407250D03*
X55490000Y-45407250D03*
%TO.P,SW2,2,ROW*%
%TO.N,Net-(D2-Pad2)*%
X53690000Y-46457250D03*
X62490000Y-46457250D03*
%TD*%
D10*
%TO.P,D14,1,K*%
%TO.N,Net-(D13-Pad1)*%
X67850000Y-92602250D03*
D11*
%TO.P,D14,2,A*%
%TO.N,Net-(D14-Pad2)*%
X67850000Y-84982250D03*
%TD*%
D12*
%TO.P,SW12,1,COL*%
%TO.N,Net-(SW12-Pad1)*%
X132770000Y-64673000D03*
X137970000Y-64673000D03*
%TO.P,SW12,2,ROW*%
%TO.N,Net-(D12-Pad2)*%
X130970000Y-65723000D03*
X139770000Y-65723000D03*
%TD*%
D16*
%TO.P,J1,1,Pin_1*%
%TO.N,Net-(J1-Pad1)*%
X164600000Y-54850000D03*
%TO.P,J1,2,Pin_2*%
%TO.N,Net-(J1-Pad2)*%
X164600000Y-57390000D03*
%TD*%
D12*
%TO.P,SW23,1,COL*%
%TO.N,Net-(SW11-Pad1)*%
X113370000Y-98257000D03*
X118570000Y-98257000D03*
%TO.P,SW23,2,ROW*%
%TO.N,Net-(D23-Pad2)*%
X111570000Y-99307000D03*
X120370000Y-99307000D03*
%TD*%
%TO.P,SW5,1,COL*%
%TO.N,Net-(SW11-Pad1)*%
X113370000Y-40459750D03*
X118570000Y-40459750D03*
%TO.P,SW5,2,ROW*%
%TO.N,Net-(D5-Pad2)*%
X120370000Y-41509750D03*
X111570000Y-41509750D03*
%TD*%
%TO.P,SW6,1,COL*%
%TO.N,Net-(SW12-Pad1)*%
X132770000Y-45407250D03*
X137970000Y-45407250D03*
%TO.P,SW6,2,ROW*%
%TO.N,Net-(D6-Pad2)*%
X130970000Y-46457250D03*
X139770000Y-46457250D03*
%TD*%
D10*
%TO.P,D25,1,K*%
%TO.N,Net-(D25-Pad1)*%
X67800000Y-131060000D03*
D11*
%TO.P,D25,2,A*%
%TO.N,Net-(D25-Pad2)*%
X67800000Y-123440000D03*
%TD*%
D12*
%TO.P,SW14,1,COL*%
%TO.N,Net-(SW14-Pad1)*%
X60690000Y-83938750D03*
X55490000Y-83938750D03*
%TO.P,SW14,2,ROW*%
%TO.N,Net-(D14-Pad2)*%
X62490000Y-84988750D03*
X53690000Y-84988750D03*
%TD*%
%TO.P,SW20,1,COL*%
%TO.N,Net-(SW14-Pad1)*%
X60690000Y-103204500D03*
X55490000Y-103204500D03*
%TO.P,SW20,2,ROW*%
%TO.N,Net-(D20-Pad2)*%
X62490000Y-104254500D03*
X53690000Y-104254500D03*
%TD*%
D10*
%TO.P,D9,1,K*%
%TO.N,Net-(D10-Pad1)*%
X86800000Y-68360000D03*
D11*
%TO.P,D9,2,A*%
%TO.N,Net-(D9-Pad2)*%
X86800000Y-60740000D03*
%TD*%
D10*
%TO.P,D19,1,K*%
%TO.N,Net-(D19-Pad1)*%
X48530000Y-111849750D03*
D11*
%TO.P,D19,2,A*%
%TO.N,Net-(D19-Pad2)*%
X48530000Y-104229750D03*
%TD*%
D10*
%TO.P,D15,1,K*%
%TO.N,Net-(D13-Pad1)*%
X86800000Y-87607500D03*
D11*
%TO.P,D15,2,A*%
%TO.N,Net-(D15-Pad2)*%
X86800000Y-79987500D03*
%TD*%
D10*
%TO.P,D2,1,K*%
%TO.N,Net-(D1-Pad1)*%
X67866000Y-54107250D03*
D11*
%TO.P,D2,2,A*%
%TO.N,Net-(D2-Pad2)*%
X67866000Y-46487250D03*
%TD*%
D10*
%TO.P,D13,1,K*%
%TO.N,Net-(D13-Pad1)*%
X48530000Y-92602250D03*
D11*
%TO.P,D13,2,A*%
%TO.N,Net-(D13-Pad2)*%
X48530000Y-84982250D03*
%TD*%
D12*
%TO.P,SW15,1,COL*%
%TO.N,Net-(SW15-Pad1)*%
X74730000Y-78991250D03*
X79930000Y-78991250D03*
%TO.P,SW15,2,ROW*%
%TO.N,Net-(D15-Pad2)*%
X72930000Y-80041250D03*
X81730000Y-80041250D03*
%TD*%
%TO.P,SW30,1,COL*%
%TO.N,Net-(SW12-Pad1)*%
X151950000Y-131053000D03*
X157150000Y-131053000D03*
%TO.P,SW30,2,ROW*%
%TO.N,Net-(D30-Pad2)*%
X150150000Y-132103000D03*
X158950000Y-132103000D03*
%TD*%
%TO.P,SW18,1,COL*%
%TO.N,Net-(SW12-Pad1)*%
X132770000Y-83938750D03*
X137970000Y-83938750D03*
%TO.P,SW18,2,ROW*%
%TO.N,Net-(D18-Pad2)*%
X139770000Y-84988750D03*
X130970000Y-84988750D03*
%TD*%
D10*
%TO.P,D6,1,K*%
%TO.N,Net-(D1-Pad1)*%
X144800000Y-62560000D03*
D11*
%TO.P,D6,2,A*%
%TO.N,Net-(D6-Pad2)*%
X144800000Y-54940000D03*
%TD*%
D12*
%TO.P,SW9,1,COL*%
%TO.N,Net-(SW15-Pad1)*%
X79930000Y-59725500D03*
X74730000Y-59725500D03*
%TO.P,SW9,2,ROW*%
%TO.N,Net-(D9-Pad2)*%
X81730000Y-60775500D03*
X72930000Y-60775500D03*
%TD*%
%TO.P,SW21,1,COL*%
%TO.N,Net-(SW15-Pad1)*%
X79930000Y-98257000D03*
X74730000Y-98257000D03*
%TO.P,SW21,2,ROW*%
%TO.N,Net-(D21-Pad2)*%
X72930000Y-99307000D03*
X81730000Y-99307000D03*
%TD*%
%TO.P,SW16,1,COL*%
%TO.N,Net-(SW10-Pad1)*%
X94090000Y-73451250D03*
X99290000Y-73451250D03*
%TO.P,SW16,2,ROW*%
%TO.N,Net-(D16-Pad2)*%
X101090000Y-74501250D03*
X92290000Y-74501250D03*
%TD*%
D10*
%TO.P,D28,1,K*%
%TO.N,Net-(D25-Pad1)*%
X125600000Y-131350000D03*
D11*
%TO.P,D28,2,A*%
%TO.N,Net-(D28-Pad2)*%
X125600000Y-123730000D03*
%TD*%
D10*
%TO.P,SW31,1*%
%TO.N,Net-(U1-PadOUT)*%
X163767500Y-95175000D03*
D11*
%TO.P,SW31,2*%
%TO.N,Net-(SW31-Pad2)*%
X163767500Y-92635000D03*
%TO.P,SW31,3*%
%TO.N,Net-(U1-Pad0.17)*%
X156147500Y-92635000D03*
%TO.P,SW31,4*%
%TO.N,Net-(BT1-Pad1)*%
X156147500Y-95175000D03*
%TD*%
D12*
%TO.P,SW13,1,COL*%
%TO.N,Net-(SW1-Pad1)*%
X41370000Y-83938750D03*
X36170000Y-83938750D03*
%TO.P,SW13,2,ROW*%
%TO.N,Net-(D13-Pad2)*%
X43170000Y-84988750D03*
X34370000Y-84988750D03*
%TD*%
D10*
%TO.P,D8,1,K*%
%TO.N,Net-(D10-Pad1)*%
X67850000Y-73354750D03*
D11*
%TO.P,D8,2,A*%
%TO.N,Net-(D8-Pad2)*%
X67850000Y-65734750D03*
%TD*%
D12*
%TO.P,SW7,1,COL*%
%TO.N,Net-(SW1-Pad1)*%
X41370000Y-64673000D03*
X36170000Y-64673000D03*
%TO.P,SW7,2,ROW*%
%TO.N,Net-(D7-Pad2)*%
X34370000Y-65723000D03*
X43170000Y-65723000D03*
%TD*%
D10*
%TO.P,D23,1,K*%
%TO.N,Net-(D19-Pad1)*%
X125830000Y-112035000D03*
D11*
%TO.P,D23,2,A*%
%TO.N,Net-(D23-Pad2)*%
X125830000Y-104415000D03*
%TD*%
D10*
%TO.P,D24,1,K*%
%TO.N,Net-(D19-Pad1)*%
X144900000Y-119000000D03*
D11*
%TO.P,D24,2,A*%
%TO.N,Net-(D24-Pad2)*%
X144900000Y-111380000D03*
%TD*%
D12*
%TO.P,SW22,1,COL*%
%TO.N,Net-(SW10-Pad1)*%
X99290000Y-92717000D03*
X94090000Y-92717000D03*
%TO.P,SW22,2,ROW*%
%TO.N,Net-(D22-Pad2)*%
X92290000Y-93767000D03*
X101090000Y-93767000D03*
%TD*%
%TO.P,SW25,1,COL*%
%TO.N,Net-(SW1-Pad1)*%
X60680000Y-122433000D03*
X55480000Y-122433000D03*
%TO.P,SW25,2,ROW*%
%TO.N,Net-(D25-Pad2)*%
X62480000Y-123483000D03*
X53680000Y-123483000D03*
%TD*%
D10*
%TO.P,D1,1,K*%
%TO.N,Net-(D1-Pad1)*%
X48550000Y-54107250D03*
D11*
%TO.P,D1,2,A*%
%TO.N,Net-(D1-Pad2)*%
X48550000Y-46487250D03*
%TD*%
D10*
%TO.P,D10,1,K*%
%TO.N,Net-(D10-Pad1)*%
X106400000Y-67705000D03*
D11*
%TO.P,D10,2,A*%
%TO.N,Net-(D10-Pad2)*%
X106400000Y-60085000D03*
%TD*%
D17*
%TO.N,Net-(D1-Pad1)*%
X158945000Y-70055000D03*
%TO.N,Net-(D10-Pad1)*%
X160555000Y-72595000D03*
%TO.N,Net-(D13-Pad1)*%
X160585000Y-75135000D03*
%TO.N,Net-(D19-Pad1)*%
X159475000Y-77675000D03*
%TO.N,Net-(D25-Pad1)*%
X147721000Y-125479000D03*
X150400000Y-81800000D03*
X157550000Y-80215000D03*
%TO.N,Net-(SW1-Pad1)*%
X147000000Y-56400000D03*
%TO.N,Net-(SW14-Pad1)*%
X141850000Y-57400000D03*
%TO.N,Net-(SW15-Pad1)*%
X140200000Y-58500000D03*
%TO.N,Net-(SW10-Pad1)*%
X152350000Y-92000000D03*
%TO.N,Net-(SW11-Pad1)*%
X151450000Y-94300000D03*
%TO.N,Net-(BT1-Pad2)*%
X160300000Y-106900000D03*
X162775000Y-84000000D03*
X160300000Y-86450000D03*
%TO.N,Net-(U1-PadOUT)*%
X161665000Y-62435000D03*
%TO.N,Net-(SW31-Pad2)*%
X157100000Y-68250000D03*
%TO.N,Net-(U1-Pad0.17)*%
X155150000Y-66000000D03*
%TD*%
D18*
%TO.N,Net-(D1-Pad1)*%
X105753000Y-49112500D02*
X106408000Y-48457500D01*
X144800000Y-66065000D02*
X144800000Y-62560000D01*
X48550000Y-54107250D02*
X67866000Y-54107250D01*
X148780000Y-70055000D02*
X158945000Y-70055000D01*
X148800000Y-70065000D02*
X144800000Y-66065000D01*
X133895750Y-62354250D02*
X125834000Y-54292500D01*
X81817250Y-54107250D02*
X86812000Y-49112500D01*
X86812000Y-49112500D02*
X105753000Y-49112500D01*
X133895750Y-62354250D02*
X134101500Y-62560000D01*
X67866000Y-54107250D02*
X81817250Y-54107250D01*
X106408000Y-48457500D02*
X112243000Y-54292500D01*
X134101500Y-62560000D02*
X144800000Y-62560000D01*
X112243000Y-54292500D02*
X125834000Y-54292500D01*
%TO.N,Net-(D1-Pad2)*%
X48520000Y-46457250D02*
X48550000Y-46487250D01*
X34370000Y-46457250D02*
X35220000Y-47307250D01*
X42320000Y-47307250D02*
X43170000Y-46457250D01*
X35220000Y-47307250D02*
X42320000Y-47307250D01*
X43170000Y-46457250D02*
X48520000Y-46457250D01*
%TO.N,Net-(D2-Pad2)*%
X61640000Y-47307250D02*
X62490000Y-46457250D01*
X67836000Y-46457250D02*
X67866000Y-46487250D01*
X62490000Y-46457250D02*
X67836000Y-46457250D01*
X53690000Y-46457250D02*
X54540000Y-47307250D01*
X54540000Y-47307250D02*
X61640000Y-47307250D01*
%TO.N,Net-(D3-Pad2)*%
X80880000Y-42359750D02*
X81730000Y-41509750D01*
X73780000Y-42359750D02*
X80880000Y-42359750D01*
X81730000Y-41509750D02*
X86794750Y-41509750D01*
X72930000Y-41509750D02*
X73780000Y-42359750D01*
X86794750Y-41509750D02*
X86812000Y-41492500D01*
%TO.N,Net-(D4-Pad2)*%
X92970250Y-36650000D02*
X100409750Y-36650000D01*
X100409750Y-36650000D02*
X101090000Y-35969750D01*
X105957750Y-40837500D02*
X106408000Y-40837500D01*
X92290000Y-35969750D02*
X92970250Y-36650000D01*
X101090000Y-35969750D02*
X105957750Y-40837500D01*
%TO.N,Net-(D5-Pad2)*%
X119520000Y-42359750D02*
X120370000Y-41509750D01*
X111570000Y-41509750D02*
X112420000Y-42359750D01*
X120370000Y-41509750D02*
X125532750Y-46672500D01*
X112420000Y-42359750D02*
X119520000Y-42359750D01*
X125532750Y-46672500D02*
X125834000Y-46672500D01*
%TO.N,Net-(D6-Pad2)*%
X139770000Y-49910000D02*
X144800000Y-54940000D01*
X139770000Y-49730000D02*
X139770000Y-49910000D01*
X139770000Y-46457250D02*
X139770000Y-49730000D01*
X130970000Y-46457250D02*
X131820000Y-47307250D01*
X138920000Y-47307250D02*
X139770000Y-46457250D01*
X131820000Y-47307250D02*
X138920000Y-47307250D01*
%TO.N,Net-(D10-Pad1)*%
X81805250Y-73354750D02*
X86800000Y-68360000D01*
X67850000Y-73354750D02*
X81805250Y-73354750D01*
X112235000Y-73540000D02*
X125830000Y-73540000D01*
X144900000Y-80505000D02*
X144900000Y-76505000D01*
X106400000Y-67705000D02*
X112235000Y-73540000D01*
X86800000Y-68360000D02*
X105745000Y-68360000D01*
X144900000Y-76505000D02*
X148800000Y-72605000D01*
X105745000Y-68360000D02*
X106400000Y-67705000D01*
X48530000Y-73354750D02*
X67850000Y-73354750D01*
X132795000Y-80505000D02*
X125830000Y-73540000D01*
X148780000Y-72595000D02*
X160555000Y-72595000D01*
X144900000Y-80505000D02*
X132795000Y-80505000D01*
%TO.N,Net-(D7-Pad2)*%
X35220000Y-66573000D02*
X42320000Y-66573000D01*
X43170000Y-65723000D02*
X48518250Y-65723000D01*
X42320000Y-66573000D02*
X43170000Y-65723000D01*
X48518250Y-65723000D02*
X48530000Y-65734750D01*
X34370000Y-65723000D02*
X35220000Y-66573000D01*
%TO.N,Net-(D8-Pad2)*%
X62490000Y-65723000D02*
X67838250Y-65723000D01*
X53690000Y-65723000D02*
X54540000Y-66573000D01*
X67838250Y-65723000D02*
X67850000Y-65734750D01*
X54540000Y-66573000D02*
X61640000Y-66573000D01*
X61640000Y-66573000D02*
X62490000Y-65723000D01*
%TO.N,Net-(D9-Pad2)*%
X81730000Y-60775500D02*
X86764500Y-60775500D01*
X72930000Y-60775500D02*
X73780000Y-61625500D01*
X73780000Y-61625500D02*
X80880000Y-61625500D01*
X86764500Y-60775500D02*
X86800000Y-60740000D01*
X80880000Y-61625500D02*
X81730000Y-60775500D01*
%TO.N,Net-(D10-Pad2)*%
X92290000Y-55235500D02*
X93140000Y-56085500D01*
X101090000Y-55235500D02*
X105939500Y-60085000D01*
X105939500Y-60085000D02*
X106400000Y-60085000D01*
X100240000Y-56085500D02*
X101090000Y-55235500D01*
X93140000Y-56085500D02*
X100240000Y-56085500D01*
%TO.N,Net-(D11-Pad2)*%
X112420000Y-61625500D02*
X119520000Y-61625500D01*
X111570000Y-60775500D02*
X112420000Y-61625500D01*
X119520000Y-61625500D02*
X120370000Y-60775500D01*
X120370000Y-60775500D02*
X125514500Y-65920000D01*
X125514500Y-65920000D02*
X125830000Y-65920000D01*
%TO.N,Net-(D12-Pad2)*%
X139770000Y-67770000D02*
X139770000Y-65723000D01*
X141315000Y-69300000D02*
X141300000Y-69300000D01*
X141300000Y-69300000D02*
X139770000Y-67770000D01*
X130970000Y-65723000D02*
X131820000Y-66573000D01*
X138920000Y-66573000D02*
X139770000Y-65723000D01*
X144900000Y-72885000D02*
X141315000Y-69300000D01*
X131820000Y-66573000D02*
X138920000Y-66573000D01*
%TO.N,Net-(D13-Pad1)*%
X81805250Y-92602250D02*
X86800000Y-87607500D01*
X144900000Y-99752500D02*
X146200000Y-98452500D01*
X67850000Y-92602250D02*
X81805250Y-92602250D01*
X112235000Y-92787500D02*
X125830000Y-92787500D01*
X48530000Y-92602250D02*
X67850000Y-92602250D01*
X160585000Y-75135000D02*
X148780000Y-75135000D01*
X106400000Y-86952500D02*
X112235000Y-92787500D01*
X132795000Y-99752500D02*
X125830000Y-92787500D01*
X105745000Y-87607500D02*
X106400000Y-86952500D01*
X146200000Y-77745000D02*
X148800000Y-75145000D01*
X144900000Y-99752500D02*
X132795000Y-99752500D01*
X146200000Y-98452500D02*
X146200000Y-77745000D01*
X86800000Y-87607500D02*
X105745000Y-87607500D01*
%TO.N,Net-(D13-Pad2)*%
X35220000Y-85838750D02*
X42320000Y-85838750D01*
X43170000Y-84988750D02*
X48523500Y-84988750D01*
X34370000Y-84988750D02*
X35220000Y-85838750D01*
X48523500Y-84988750D02*
X48530000Y-84982250D01*
X42320000Y-85838750D02*
X43170000Y-84988750D01*
%TO.N,Net-(D14-Pad2)*%
X53690000Y-84988750D02*
X54540000Y-85838750D01*
X62490000Y-84988750D02*
X67843500Y-84988750D01*
X61640000Y-85838750D02*
X62490000Y-84988750D01*
X67843500Y-84988750D02*
X67850000Y-84982250D01*
X54540000Y-85838750D02*
X61640000Y-85838750D01*
%TO.N,Net-(D15-Pad2)*%
X72930000Y-80041250D02*
X73780000Y-80891250D01*
X81730000Y-80041250D02*
X86746250Y-80041250D01*
X80880000Y-80891250D02*
X81730000Y-80041250D01*
X86746250Y-80041250D02*
X86800000Y-79987500D01*
X73780000Y-80891250D02*
X80880000Y-80891250D01*
%TO.N,Net-(D16-Pad2)*%
X101090000Y-74501250D02*
X105921250Y-79332500D01*
X105921250Y-79332500D02*
X106400000Y-79332500D01*
X92290000Y-74501250D02*
X93140000Y-75351250D01*
X100240000Y-75351250D02*
X101090000Y-74501250D01*
X93140000Y-75351250D02*
X100240000Y-75351250D01*
%TO.N,Net-(D17-Pad2)*%
X111570000Y-80041250D02*
X112420000Y-80891250D01*
X125496250Y-85167500D02*
X125830000Y-85167500D01*
X119520000Y-80891250D02*
X120370000Y-80041250D01*
X112420000Y-80891250D02*
X119520000Y-80891250D01*
X120370000Y-80041250D02*
X125496250Y-85167500D01*
%TO.N,Net-(D18-Pad2)*%
X139770000Y-87002500D02*
X144900000Y-92132500D01*
X139208750Y-85550000D02*
X139770000Y-84988750D01*
X130970000Y-84988750D02*
X131531250Y-85550000D01*
X131531250Y-85550000D02*
X139208750Y-85550000D01*
X139770000Y-84988750D02*
X139770000Y-87002500D01*
%TO.N,Net-(D19-Pad1)*%
X106400000Y-106200000D02*
X112235000Y-112035000D01*
X125835000Y-112035000D02*
X132800000Y-119000000D01*
X105745000Y-106855000D02*
X106400000Y-106200000D01*
X81805250Y-111849750D02*
X86800000Y-106855000D01*
X144900000Y-119000000D02*
X147000000Y-116900000D01*
X132800000Y-119000000D02*
X144900000Y-119000000D01*
X159475000Y-77675000D02*
X148780000Y-77675000D01*
X112235000Y-112035000D02*
X125830000Y-112035000D01*
X67850000Y-111849750D02*
X81805250Y-111849750D01*
X86800000Y-106855000D02*
X105745000Y-106855000D01*
X147000000Y-116900000D02*
X147000000Y-79485000D01*
X125830000Y-112035000D02*
X125835000Y-112035000D01*
X48530000Y-111849750D02*
X67850000Y-111849750D01*
X147000000Y-79485000D02*
X148800000Y-77685000D01*
%TO.N,Net-(D19-Pad2)*%
X42320000Y-105104500D02*
X43170000Y-104254500D01*
X35220000Y-105104500D02*
X42320000Y-105104500D01*
X43170000Y-104254500D02*
X48505250Y-104254500D01*
X34370000Y-104254500D02*
X35220000Y-105104500D01*
X48505250Y-104254500D02*
X48530000Y-104229750D01*
%TO.N,Net-(D20-Pad2)*%
X61640000Y-105104500D02*
X62490000Y-104254500D01*
X54540000Y-105104500D02*
X61640000Y-105104500D01*
X62490000Y-104254500D02*
X67825250Y-104254500D01*
X53690000Y-104254500D02*
X54540000Y-105104500D01*
X67825250Y-104254500D02*
X67850000Y-104229750D01*
%TO.N,Net-(D21-Pad2)*%
X73780000Y-100157000D02*
X80880000Y-100157000D01*
X81730000Y-99307000D02*
X86728000Y-99307000D01*
X80880000Y-100157000D02*
X81730000Y-99307000D01*
X86728000Y-99307000D02*
X86800000Y-99235000D01*
X72930000Y-99307000D02*
X73780000Y-100157000D01*
%TO.N,Net-(D22-Pad2)*%
X101090000Y-93767000D02*
X105903000Y-98580000D01*
X105903000Y-98580000D02*
X106400000Y-98580000D01*
X100240000Y-94617000D02*
X101090000Y-93767000D01*
X92290000Y-93767000D02*
X93140000Y-94617000D01*
X93140000Y-94617000D02*
X100240000Y-94617000D01*
%TO.N,Net-(D23-Pad2)*%
X125478000Y-104415000D02*
X125830000Y-104415000D01*
X119520000Y-100157000D02*
X120370000Y-99307000D01*
X112420000Y-100157000D02*
X119520000Y-100157000D01*
X120370000Y-99307000D02*
X125478000Y-104415000D01*
X111570000Y-99307000D02*
X112420000Y-100157000D01*
%TO.N,Net-(D24-Pad2)*%
X139770000Y-104254500D02*
X139770000Y-106250000D01*
X138920000Y-105104500D02*
X139770000Y-104254500D01*
X131820000Y-105104500D02*
X138920000Y-105104500D01*
X139770000Y-106250000D02*
X144900000Y-111380000D01*
X130970000Y-104254500D02*
X131820000Y-105104500D01*
%TO.N,Net-(D25-Pad1)*%
X81763250Y-131060000D02*
X86758000Y-126065250D01*
X105711000Y-126065250D02*
X106366000Y-125410250D01*
X125600000Y-131350000D02*
X130617500Y-136367500D01*
X67800000Y-131060000D02*
X81763250Y-131060000D01*
X150400000Y-81800000D02*
X150365000Y-81800000D01*
X106366000Y-125410250D02*
X112305750Y-131350000D01*
X86758000Y-126065250D02*
X105711000Y-126065250D01*
X147721000Y-133516500D02*
X147721000Y-125479000D01*
X148780000Y-80215000D02*
X157335000Y-80215000D01*
X144870000Y-136367500D02*
X149402500Y-140900000D01*
X144870000Y-136367500D02*
X147721000Y-133516500D01*
X130617500Y-136367500D02*
X144870000Y-136367500D01*
X112305750Y-131350000D02*
X125600000Y-131350000D01*
X149402500Y-140900000D02*
X160650000Y-140900000D01*
X150365000Y-81800000D02*
X148780000Y-80215000D01*
X161740000Y-139810000D02*
X164300000Y-139810000D01*
X160650000Y-140900000D02*
X161740000Y-139810000D01*
%TO.N,Net-(D25-Pad2)*%
X61630000Y-124333000D02*
X62480000Y-123483000D01*
X62480000Y-123483000D02*
X67757000Y-123483000D01*
X67757000Y-123483000D02*
X67800000Y-123440000D01*
X54530000Y-124333000D02*
X61630000Y-124333000D01*
X53680000Y-123483000D02*
X54530000Y-124333000D01*
%TO.N,Net-(D26-Pad2)*%
X73770000Y-119385500D02*
X80870000Y-119385500D01*
X72920000Y-118535500D02*
X73770000Y-119385500D01*
X80870000Y-119385500D02*
X81720000Y-118535500D01*
X81720000Y-118535500D02*
X86667750Y-118535500D01*
X86667750Y-118535500D02*
X86758000Y-118445250D01*
%TO.N,Net-(D27-Pad2)*%
X101080000Y-112995500D02*
X105874750Y-117790250D01*
X105874750Y-117790250D02*
X106366000Y-117790250D01*
X92280000Y-112995500D02*
X93130000Y-113845500D01*
X93130000Y-113845500D02*
X100230000Y-113845500D01*
X100230000Y-113845500D02*
X101080000Y-112995500D01*
%TO.N,Net-(D28-Pad2)*%
X119510000Y-119385500D02*
X120360000Y-118535500D01*
X125554500Y-123730000D02*
X125600000Y-123730000D01*
X111555500Y-118540000D02*
X111560000Y-118535500D01*
X120360000Y-118535500D02*
X125554500Y-123730000D01*
X111560000Y-118535500D02*
X112410000Y-119385500D01*
X112410000Y-119385500D02*
X119510000Y-119385500D01*
%TO.N,Net-(D29-Pad2)*%
X130953000Y-123490000D02*
X130960000Y-123483000D01*
X131810000Y-124333000D02*
X138910000Y-124333000D01*
X130960000Y-123483000D02*
X131810000Y-124333000D01*
X138910000Y-124333000D02*
X139760000Y-123483000D01*
X139760000Y-123483000D02*
X144870000Y-128593000D01*
X144870000Y-128593000D02*
X144870000Y-128747500D01*
%TO.N,Net-(D30-Pad2)*%
X158100000Y-132953000D02*
X158950000Y-132103000D01*
X151000000Y-132953000D02*
X158100000Y-132953000D01*
X164213000Y-132103000D02*
X164300000Y-132190000D01*
X150150000Y-132103000D02*
X151000000Y-132953000D01*
X158950000Y-132103000D02*
X164213000Y-132103000D01*
%TO.N,Net-(SW1-Pad1)*%
X152915000Y-56400000D02*
X147000000Y-56400000D01*
X98950000Y-37650000D02*
X71800000Y-37650000D01*
X164040000Y-67525000D02*
X152915000Y-56400000D01*
X36170000Y-64673000D02*
X41370000Y-64673000D01*
X127950000Y-48250000D02*
X122950000Y-48250000D01*
X36170000Y-83938750D02*
X41370000Y-83938750D01*
X117650000Y-42950000D02*
X104250000Y-42950000D01*
X67100000Y-42350000D02*
X44427250Y-42350000D01*
X36170000Y-103204500D02*
X41370000Y-103204500D01*
X44427250Y-42350000D02*
X41370000Y-45407250D01*
X71800000Y-37650000D02*
X67100000Y-42350000D01*
X36170000Y-45407250D02*
X41370000Y-45407250D01*
X147000000Y-56400000D02*
X136100000Y-56400000D01*
X104250000Y-42950000D02*
X98950000Y-37650000D01*
X55480000Y-122433000D02*
X60680000Y-122433000D01*
X136100000Y-56400000D02*
X127950000Y-48250000D01*
X122950000Y-48250000D02*
X117650000Y-42950000D01*
%TO.N,Net-(SW14-Pad1)*%
X128450000Y-49950000D02*
X114700000Y-49950000D01*
X141850000Y-57400000D02*
X135900000Y-57400000D01*
X79920000Y-117485500D02*
X74720000Y-117485500D01*
X55490000Y-103204500D02*
X60690000Y-103204500D01*
X55490000Y-45407250D02*
X60690000Y-45407250D01*
X94000000Y-44050000D02*
X88350000Y-38400000D01*
X135900000Y-57400000D02*
X128450000Y-49950000D01*
X55490000Y-64673000D02*
X60690000Y-64673000D01*
X108800000Y-44050000D02*
X94000000Y-44050000D01*
X72700000Y-38400000D02*
X67450000Y-43650000D01*
X55490000Y-83938750D02*
X60690000Y-83938750D01*
X151375000Y-57400000D02*
X141850000Y-57400000D01*
X62447250Y-43650000D02*
X60690000Y-45407250D01*
X88350000Y-38400000D02*
X72700000Y-38400000D01*
X114700000Y-49950000D02*
X108800000Y-44050000D01*
X67450000Y-43650000D02*
X62447250Y-43650000D01*
X164040000Y-70065000D02*
X151375000Y-57400000D01*
%TO.N,Net-(SW15-Pad1)*%
X112800000Y-51050000D02*
X107050000Y-45300000D01*
X74730000Y-98257000D02*
X79930000Y-98257000D01*
X74730000Y-78991250D02*
X79930000Y-78991250D01*
X149935000Y-58500000D02*
X135600000Y-58500000D01*
X87550000Y-39700000D02*
X80689750Y-39700000D01*
X80689750Y-39700000D02*
X79930000Y-40459750D01*
X99280000Y-111945500D02*
X94080000Y-111945500D01*
X135600000Y-58500000D02*
X128150000Y-51050000D01*
X93150000Y-45300000D02*
X87550000Y-39700000D01*
X128150000Y-51050000D02*
X112800000Y-51050000D01*
X107050000Y-45300000D02*
X93150000Y-45300000D01*
X164040000Y-72605000D02*
X149935000Y-58500000D01*
X74730000Y-40459750D02*
X79930000Y-40459750D01*
X74730000Y-59725500D02*
X79930000Y-59725500D01*
%TO.N,Net-(SW10-Pad1)*%
X148200000Y-96200000D02*
X148200000Y-118800000D01*
X94090000Y-92717000D02*
X99290000Y-92717000D01*
X94090000Y-34919750D02*
X99290000Y-34919750D01*
X119295500Y-116750000D02*
X118560000Y-117485500D01*
X127000000Y-116750000D02*
X119295500Y-116750000D01*
X152350000Y-92000000D02*
X152350000Y-92050000D01*
X94090000Y-73451250D02*
X99290000Y-73451250D01*
X152400000Y-92000000D02*
X156600000Y-87800000D01*
X152350000Y-92050000D02*
X148200000Y-96200000D01*
X131100000Y-120850000D02*
X127000000Y-116750000D01*
X152350000Y-92000000D02*
X152400000Y-92000000D01*
X118560000Y-117485500D02*
X113360000Y-117485500D01*
X94090000Y-54185500D02*
X99290000Y-54185500D01*
X156600000Y-87800000D02*
X156600000Y-82585000D01*
X146150000Y-120850000D02*
X131100000Y-120850000D01*
X148200000Y-118800000D02*
X146150000Y-120850000D01*
X156600000Y-82585000D02*
X164040000Y-75145000D01*
%TO.N,Net-(SW11-Pad1)*%
X113370000Y-40459750D02*
X118570000Y-40459750D01*
X151450000Y-94300000D02*
X149150000Y-96600000D01*
X113370000Y-78991250D02*
X118570000Y-78991250D01*
X149150000Y-119850000D02*
X146692000Y-122308000D01*
X113370000Y-98257000D02*
X118570000Y-98257000D01*
X118570000Y-59725500D02*
X113370000Y-59725500D01*
X137960000Y-122433000D02*
X132760000Y-122433000D01*
X138085000Y-122308000D02*
X137960000Y-122433000D01*
X149150000Y-96600000D02*
X149150000Y-119850000D01*
X146692000Y-122308000D02*
X138085000Y-122308000D01*
X151450000Y-94300000D02*
X151550000Y-94300000D01*
X157650000Y-84075000D02*
X164040000Y-77685000D01*
X157650000Y-88200000D02*
X157650000Y-84075000D01*
X151550000Y-94300000D02*
X157650000Y-88200000D01*
%TO.N,Net-(SW12-Pad1)*%
X137970000Y-64673000D02*
X132770000Y-64673000D01*
X132770000Y-103204500D02*
X137970000Y-103204500D01*
X161950000Y-126253000D02*
X161950000Y-82315000D01*
X132770000Y-45407250D02*
X137970000Y-45407250D01*
X157150000Y-131053000D02*
X151950000Y-131053000D01*
X132770000Y-83938750D02*
X137970000Y-83938750D01*
X161950000Y-82315000D02*
X164040000Y-80225000D01*
X157150000Y-131053000D02*
X161950000Y-126253000D01*
%TO.N,Net-(BT1-Pad2)*%
X160300000Y-86450000D02*
X160300000Y-106900000D01*
X156150000Y-111050000D02*
X160300000Y-106900000D01*
X162775000Y-84000000D02*
X164020000Y-82755000D01*
%TO.N,Net-(BT1-Pad1)*%
X156150000Y-100150000D02*
X156150000Y-95177500D01*
X156150000Y-95177500D02*
X156147500Y-95175000D01*
%TO.N,Net-(J1-Pad1)*%
X164585000Y-54815000D02*
X164600000Y-54800000D01*
X161960000Y-54815000D02*
X164565000Y-54815000D01*
X164565000Y-54815000D02*
X164600000Y-54850000D01*
%TO.N,Net-(J1-Pad2)*%
X150840000Y-54815000D02*
X153765000Y-54815000D01*
X156340000Y-57390000D02*
X164600000Y-57390000D01*
X153765000Y-54815000D02*
X156340000Y-57390000D01*
%TO.N,Net-(U1-PadOUT)*%
X161665000Y-62435000D02*
X164020000Y-62435000D01*
%TO.N,Net-(SW31-Pad2)*%
X156365000Y-67515000D02*
X148780000Y-67515000D01*
X157100000Y-68250000D02*
X156365000Y-67515000D01*
%TO.N,Net-(U1-Pad0.17)*%
X154125000Y-64975000D02*
X148780000Y-64975000D01*
X155150000Y-66000000D02*
X154125000Y-64975000D01*
%TD*%
M02*
