M48
; DRILL file {KiCad (6.0.8)} date Tue Feb 14 17:54:45 2023
; FORMAT={-:-/ absolute / inch / decimal}
; #@! TF.CreationDate,2023-02-14T17:54:45+07:00
; #@! TF.GenerationSoftware,Kicad,Pcbnew,(6.0.8)
; #@! TF.FileFunction,NonPlated,1,2,NPTH
FMAT,2
INCH
; #@! TA.AperFunction,NonPlated,NPTH,ComponentDrill
T1C0.1969
%
G90
G05
T1
X1.5264Y-2.0141
X1.5264Y-2.7726
X1.5264Y-3.5311
X1.5264Y-4.2895
X2.2866Y-5.0466
X2.287Y-2.0141
X2.287Y-2.7726
X2.287Y-3.5311
X2.287Y-4.2895
X3.0441Y-4.8518
X3.0445Y-1.8193
X3.0445Y-2.5778
X3.0445Y-3.3363
X3.0445Y-4.0948
X3.8063Y-4.6337
X3.8067Y-1.6012
X3.8067Y-2.3597
X3.8067Y-3.1182
X3.8067Y-3.8767
X4.5654Y-4.8518
X4.5657Y-1.8193
X4.5657Y-2.5778
X4.5657Y-3.3363
X4.5657Y-4.0948
X5.3291Y-5.0466
X5.3295Y-2.0141
X5.3295Y-2.7726
X5.3295Y-3.5311
X5.3295Y-4.2895
X6.0846Y-5.3859
T0
M30
