%TF.GenerationSoftware,KiCad,Pcbnew,(6.0.8)*%
%TF.CreationDate,2023-02-14T17:54:26+07:00*%
%TF.ProjectId,dongle_256,646f6e67-6c65-45f3-9235-362e6b696361,rev?*%
%TF.SameCoordinates,Original*%
%TF.FileFunction,Soldermask,Bot*%
%TF.FilePolarity,Negative*%
%FSLAX46Y46*%
G04 Gerber Fmt 4.6, Leading zero omitted, Abs format (unit mm)*
G04 Created by KiCad (PCBNEW (6.0.8)) date 2023-02-14 17:54:26*
%MOMM*%
%LPD*%
G01*
G04 APERTURE LIST*
G04 Aperture macros list*
%AMRoundRect*
0 Rectangle with rounded corners*
0 $1 Rounding radius*
0 $2 $3 $4 $5 $6 $7 $8 $9 X,Y pos of 4 corners*
0 Add a 4 corners polygon primitive as box body*
4,1,4,$2,$3,$4,$5,$6,$7,$8,$9,$2,$3,0*
0 Add four circle primitives for the rounded corners*
1,1,$1+$1,$2,$3*
1,1,$1+$1,$4,$5*
1,1,$1+$1,$6,$7*
1,1,$1+$1,$8,$9*
0 Add four rect primitives between the rounded corners*
20,1,$1+$1,$2,$3,$4,$5,0*
20,1,$1+$1,$4,$5,$6,$7,0*
20,1,$1+$1,$6,$7,$8,$9,0*
20,1,$1+$1,$8,$9,$2,$3,0*%
G04 Aperture macros list end*
%ADD10R,1.600000X1.600000*%
%ADD11O,1.600000X1.600000*%
%ADD12C,5.000000*%
%ADD13C,1.700000*%
%ADD14R,5.100000X1.200000*%
%ADD15RoundRect,1.250000X-1.250000X1.250000X-1.250000X-1.250000X1.250000X-1.250000X1.250000X1.250000X0*%
%ADD16R,1.524000X1.000000*%
%ADD17R,1.800000X1.524000*%
G04 APERTURE END LIST*
D10*
%TO.C,D17*%
X125830000Y-92787500D03*
D11*
X125830000Y-85167500D03*
%TD*%
D12*
%TO.C,SW28*%
X115960000Y-123235500D03*
D13*
X113360000Y-117485500D03*
X118560000Y-117485500D03*
X120360000Y-118535500D03*
X111560000Y-118535500D03*
%TD*%
D10*
%TO.C,D30*%
X164300000Y-139810000D03*
D11*
X164300000Y-132190000D03*
%TD*%
D10*
%TO.C,D12*%
X144900000Y-80505000D03*
D11*
X144900000Y-72885000D03*
%TD*%
D10*
%TO.C,D21*%
X86800000Y-106855000D03*
D11*
X86800000Y-99235000D03*
%TD*%
D10*
%TO.C,D22*%
X106400000Y-106200000D03*
D11*
X106400000Y-98580000D03*
%TD*%
D12*
%TO.C,SW8*%
X58090000Y-70423000D03*
D13*
X55490000Y-64673000D03*
X60690000Y-64673000D03*
X53690000Y-65723000D03*
X62490000Y-65723000D03*
%TD*%
D12*
%TO.C,SW24*%
X135370000Y-108954500D03*
D13*
X137970000Y-103204500D03*
X132770000Y-103204500D03*
X130970000Y-104254500D03*
X139770000Y-104254500D03*
%TD*%
D10*
%TO.C,D5*%
X125834000Y-54292500D03*
D11*
X125834000Y-46672500D03*
%TD*%
D12*
%TO.C,SW27*%
X96680000Y-117695500D03*
D13*
X94080000Y-111945500D03*
X99280000Y-111945500D03*
X92280000Y-112995500D03*
X101080000Y-112995500D03*
%TD*%
D10*
%TO.C,D27*%
X106366000Y-125410250D03*
D11*
X106366000Y-117790250D03*
%TD*%
D12*
%TO.C,SW29*%
X135360000Y-128183000D03*
D13*
X132760000Y-122433000D03*
X137960000Y-122433000D03*
X139760000Y-123483000D03*
X130960000Y-123483000D03*
%TD*%
D10*
%TO.C,D20*%
X67850000Y-111849750D03*
D11*
X67850000Y-104229750D03*
%TD*%
D12*
%TO.C,SW10*%
X96690000Y-59935500D03*
D13*
X99290000Y-54185500D03*
X94090000Y-54185500D03*
X101090000Y-55235500D03*
X92290000Y-55235500D03*
%TD*%
D10*
%TO.C,D4*%
X106408000Y-48457500D03*
D11*
X106408000Y-40837500D03*
%TD*%
D12*
%TO.C,SW3*%
X77330000Y-46209750D03*
D13*
X74730000Y-40459750D03*
X79930000Y-40459750D03*
X72930000Y-41509750D03*
X81730000Y-41509750D03*
%TD*%
D10*
%TO.C,D29*%
X144870000Y-136367500D03*
D11*
X144870000Y-128747500D03*
%TD*%
D10*
%TO.C,D16*%
X106400000Y-86952500D03*
D11*
X106400000Y-79332500D03*
%TD*%
D12*
%TO.C,SW11*%
X115970000Y-65475500D03*
D13*
X113370000Y-59725500D03*
X118570000Y-59725500D03*
X120370000Y-60775500D03*
X111570000Y-60775500D03*
%TD*%
D10*
%TO.C,D18*%
X144900000Y-99752500D03*
D11*
X144900000Y-92132500D03*
%TD*%
D10*
%TO.C,D26*%
X86758000Y-126065250D03*
D11*
X86758000Y-118445250D03*
%TD*%
D12*
%TO.C,SW4*%
X96690000Y-40669750D03*
D13*
X99290000Y-34919750D03*
X94090000Y-34919750D03*
X101090000Y-35969750D03*
X92290000Y-35969750D03*
%TD*%
D10*
%TO.C,D3*%
X86812000Y-49112500D03*
D11*
X86812000Y-41492500D03*
%TD*%
D12*
%TO.C,SW17*%
X115970000Y-84741250D03*
D13*
X118570000Y-78991250D03*
X113370000Y-78991250D03*
X111570000Y-80041250D03*
X120370000Y-80041250D03*
%TD*%
D12*
%TO.C,SW19*%
X38770000Y-108954500D03*
D13*
X41370000Y-103204500D03*
X36170000Y-103204500D03*
X34370000Y-104254500D03*
X43170000Y-104254500D03*
%TD*%
D12*
%TO.C,SW26*%
X77320000Y-123235500D03*
D13*
X79920000Y-117485500D03*
X74720000Y-117485500D03*
X72920000Y-118535500D03*
X81720000Y-118535500D03*
%TD*%
D12*
%TO.C,SW1*%
X38770000Y-51157250D03*
D13*
X36170000Y-45407250D03*
X41370000Y-45407250D03*
X43170000Y-46457250D03*
X34370000Y-46457250D03*
%TD*%
D10*
%TO.C,D7*%
X48530000Y-73354750D03*
D11*
X48530000Y-65734750D03*
%TD*%
D10*
%TO.C,D11*%
X125830000Y-73540000D03*
D11*
X125830000Y-65920000D03*
%TD*%
D12*
%TO.C,SW2*%
X58090000Y-51157250D03*
D13*
X60690000Y-45407250D03*
X55490000Y-45407250D03*
X53690000Y-46457250D03*
X62490000Y-46457250D03*
%TD*%
D10*
%TO.C,D14*%
X67850000Y-92602250D03*
D11*
X67850000Y-84982250D03*
%TD*%
D12*
%TO.C,SW12*%
X135370000Y-70423000D03*
D13*
X132770000Y-64673000D03*
X137970000Y-64673000D03*
X130970000Y-65723000D03*
X139770000Y-65723000D03*
%TD*%
D12*
%TO.C,SW23*%
X115970000Y-104007000D03*
D13*
X113370000Y-98257000D03*
X118570000Y-98257000D03*
X111570000Y-99307000D03*
X120370000Y-99307000D03*
%TD*%
D12*
%TO.C,SW5*%
X115970000Y-46209750D03*
D13*
X113370000Y-40459750D03*
X118570000Y-40459750D03*
X120370000Y-41509750D03*
X111570000Y-41509750D03*
%TD*%
D12*
%TO.C,SW6*%
X135370000Y-51157250D03*
D13*
X132770000Y-45407250D03*
X137970000Y-45407250D03*
X130970000Y-46457250D03*
X139770000Y-46457250D03*
%TD*%
D10*
%TO.C,D25*%
X67800000Y-131060000D03*
D11*
X67800000Y-123440000D03*
%TD*%
D12*
%TO.C,SW14*%
X58090000Y-89688750D03*
D13*
X60690000Y-83938750D03*
X55490000Y-83938750D03*
X62490000Y-84988750D03*
X53690000Y-84988750D03*
%TD*%
D12*
%TO.C,SW20*%
X58090000Y-108954500D03*
D13*
X60690000Y-103204500D03*
X55490000Y-103204500D03*
X62490000Y-104254500D03*
X53690000Y-104254500D03*
%TD*%
D10*
%TO.C,D9*%
X86800000Y-68360000D03*
D11*
X86800000Y-60740000D03*
%TD*%
D10*
%TO.C,D19*%
X48530000Y-111849750D03*
D11*
X48530000Y-104229750D03*
%TD*%
D10*
%TO.C,D15*%
X86800000Y-87607500D03*
D11*
X86800000Y-79987500D03*
%TD*%
D10*
%TO.C,D2*%
X67866000Y-54107250D03*
D11*
X67866000Y-46487250D03*
%TD*%
D10*
%TO.C,D13*%
X48530000Y-92602250D03*
D11*
X48530000Y-84982250D03*
%TD*%
D12*
%TO.C,SW15*%
X77330000Y-84741250D03*
D13*
X74730000Y-78991250D03*
X79930000Y-78991250D03*
X72930000Y-80041250D03*
X81730000Y-80041250D03*
%TD*%
D12*
%TO.C,SW30*%
X154550000Y-136803000D03*
D13*
X151950000Y-131053000D03*
X157150000Y-131053000D03*
X150150000Y-132103000D03*
X158950000Y-132103000D03*
%TD*%
D12*
%TO.C,SW18*%
X135370000Y-89688750D03*
D13*
X132770000Y-83938750D03*
X137970000Y-83938750D03*
X139770000Y-84988750D03*
X130970000Y-84988750D03*
%TD*%
D10*
%TO.C,D6*%
X144800000Y-62560000D03*
D11*
X144800000Y-54940000D03*
%TD*%
D12*
%TO.C,SW9*%
X77330000Y-65475500D03*
D13*
X79930000Y-59725500D03*
X74730000Y-59725500D03*
X81730000Y-60775500D03*
X72930000Y-60775500D03*
%TD*%
D12*
%TO.C,SW21*%
X77330000Y-104007000D03*
D13*
X79930000Y-98257000D03*
X74730000Y-98257000D03*
X72930000Y-99307000D03*
X81730000Y-99307000D03*
%TD*%
D12*
%TO.C,SW16*%
X96690000Y-79201250D03*
D13*
X94090000Y-73451250D03*
X99290000Y-73451250D03*
X101090000Y-74501250D03*
X92290000Y-74501250D03*
%TD*%
D10*
%TO.C,D28*%
X125600000Y-131350000D03*
D11*
X125600000Y-123730000D03*
%TD*%
D10*
%TO.C,SW31*%
X163767500Y-95175000D03*
D11*
X163767500Y-92635000D03*
X156147500Y-92635000D03*
X156147500Y-95175000D03*
%TD*%
D12*
%TO.C,SW13*%
X38770000Y-89688750D03*
D13*
X41370000Y-83938750D03*
X36170000Y-83938750D03*
X43170000Y-84988750D03*
X34370000Y-84988750D03*
%TD*%
D10*
%TO.C,D8*%
X67850000Y-73354750D03*
D11*
X67850000Y-65734750D03*
%TD*%
D12*
%TO.C,SW7*%
X38770000Y-70423000D03*
D13*
X41370000Y-64673000D03*
X36170000Y-64673000D03*
X34370000Y-65723000D03*
X43170000Y-65723000D03*
%TD*%
D10*
%TO.C,D23*%
X125830000Y-112035000D03*
D11*
X125830000Y-104415000D03*
%TD*%
D10*
%TO.C,D24*%
X144900000Y-119000000D03*
D11*
X144900000Y-111380000D03*
%TD*%
D12*
%TO.C,SW22*%
X96690000Y-98467000D03*
D13*
X99290000Y-92717000D03*
X94090000Y-92717000D03*
X92290000Y-93767000D03*
X101090000Y-93767000D03*
%TD*%
D12*
%TO.C,SW25*%
X58080000Y-128183000D03*
D13*
X60680000Y-122433000D03*
X55480000Y-122433000D03*
X62480000Y-123483000D03*
X53680000Y-123483000D03*
%TD*%
D10*
%TO.C,D1*%
X48550000Y-54107250D03*
D11*
X48550000Y-46487250D03*
%TD*%
D10*
%TO.C,D10*%
X106400000Y-67705000D03*
D11*
X106400000Y-60085000D03*
%TD*%
D14*
%TO.C,BT2*%
X156150000Y-121950000D03*
X156150000Y-100150000D03*
D15*
X156150000Y-111050000D03*
%TD*%
D16*
%TO.C,J2*%
X164600000Y-57375000D03*
X164600000Y-54835000D03*
%TD*%
D17*
%TO.C,U2*%
X148780000Y-72595000D03*
X164020000Y-77675000D03*
X164020000Y-80215000D03*
X164020000Y-59895000D03*
X164020000Y-62435000D03*
X164020000Y-64975000D03*
X164020000Y-67515000D03*
X164020000Y-70055000D03*
X164020000Y-72595000D03*
X148780000Y-70055000D03*
X148780000Y-67515000D03*
X164020000Y-75135000D03*
X148780000Y-80215000D03*
X148780000Y-77675000D03*
X148780000Y-75135000D03*
X164020000Y-82755000D03*
X148780000Y-82755000D03*
X148780000Y-64975000D03*
X148780000Y-62435000D03*
X150840000Y-54815000D03*
X161960000Y-54815000D03*
X148780000Y-59895000D03*
%TD*%
M02*
