%TF.GenerationSoftware,KiCad,Pcbnew,(6.0.8)*%
%TF.CreationDate,2023-02-14T17:54:35+07:00*%
%TF.ProjectId,dongle_256,646f6e67-6c65-45f3-9235-362e6b696361,rev?*%
%TF.SameCoordinates,Original*%
%TF.FileFunction,Drillmap*%
%TF.FilePolarity,Positive*%
%FSLAX45Y45*%
G04 Gerber Fmt 4.5, Leading zero omitted, Abs format (unit mm)*
G04 Created by KiCad (PCBNEW (6.0.8)) date 2023-02-14 17:54:35*
%MOMM*%
%LPD*%
G01*
G04 APERTURE LIST*
%ADD10C,0.100000*%
%ADD11C,0.200000*%
%ADD12C,0.500000*%
G04 APERTURE END LIST*
D10*
X16420000Y-14705000D02*
X14550000Y-14705000D01*
X6790000Y-3660000D02*
X8655000Y-3660000D01*
X8735000Y-3110000D02*
X10605000Y-3110000D01*
X2770000Y-4285000D02*
X2915000Y-4140000D01*
X8700000Y-3615000D02*
X8700000Y-3145000D01*
X10645000Y-3625000D02*
X10680000Y-3660000D01*
X2915000Y-4140000D02*
X6710000Y-4140000D01*
X12530000Y-3660000D02*
X12575000Y-3705000D01*
X16605000Y-14520000D02*
X16420000Y-14705000D01*
X14460000Y-14615000D02*
X14460000Y-13905000D01*
X12575000Y-3705000D02*
X12575000Y-4120000D01*
X14480000Y-4155000D02*
X14510000Y-4185000D01*
X2770000Y-11710000D02*
X2770000Y-4285000D01*
X14530000Y-5330000D02*
X16480000Y-5330000D01*
X14390000Y-13835000D02*
X4895000Y-13835000D01*
X14460000Y-13905000D02*
X14390000Y-13835000D01*
X8655000Y-3660000D02*
X8700000Y-3615000D01*
X12575000Y-4120000D02*
X12610000Y-4155000D01*
X10680000Y-3660000D02*
X12530000Y-3660000D01*
X16480000Y-5330000D02*
X16605000Y-5455000D01*
X14530000Y-5330000D02*
X14510000Y-5310000D01*
X4895000Y-13835000D02*
X2770000Y-11710000D01*
X14510000Y-4185000D02*
X14510000Y-5310000D01*
X6750000Y-4100000D02*
X6750000Y-3700000D01*
X10645000Y-3150000D02*
X10645000Y-3625000D01*
X6710000Y-4140000D02*
X6750000Y-4100000D01*
X16605000Y-14520000D02*
X16605000Y-5455000D01*
X6750000Y-3700000D02*
X6790000Y-3660000D01*
X14550000Y-14705000D02*
X14460000Y-14615000D01*
X12610000Y-4155000D02*
X14480000Y-4155000D01*
X10605000Y-3110000D02*
X10645000Y-3150000D01*
X8700000Y-3145000D02*
X8735000Y-3110000D01*
D11*
D12*
X3627000Y-4865725D02*
X4127000Y-5365725D01*
X4127000Y-4865725D02*
X3627000Y-5365725D01*
X3627000Y-6792300D02*
X4127000Y-7292300D01*
X4127000Y-6792300D02*
X3627000Y-7292300D01*
X3627000Y-8718875D02*
X4127000Y-9218875D01*
X4127000Y-8718875D02*
X3627000Y-9218875D01*
X3627000Y-10645450D02*
X4127000Y-11145450D01*
X4127000Y-10645450D02*
X3627000Y-11145450D01*
X5558000Y-12568300D02*
X6058000Y-13068300D01*
X6058000Y-12568300D02*
X5558000Y-13068300D01*
X5559000Y-4865725D02*
X6059000Y-5365725D01*
X6059000Y-4865725D02*
X5559000Y-5365725D01*
X5559000Y-6792300D02*
X6059000Y-7292300D01*
X6059000Y-6792300D02*
X5559000Y-7292300D01*
X5559000Y-8718875D02*
X6059000Y-9218875D01*
X6059000Y-8718875D02*
X5559000Y-9218875D01*
X5559000Y-10645450D02*
X6059000Y-11145450D01*
X6059000Y-10645450D02*
X5559000Y-11145450D01*
X7482000Y-12073550D02*
X7982000Y-12573550D01*
X7982000Y-12073550D02*
X7482000Y-12573550D01*
X7483000Y-4370975D02*
X7983000Y-4870975D01*
X7983000Y-4370975D02*
X7483000Y-4870975D01*
X7483000Y-6297550D02*
X7983000Y-6797550D01*
X7983000Y-6297550D02*
X7483000Y-6797550D01*
X7483000Y-8224125D02*
X7983000Y-8724125D01*
X7983000Y-8224125D02*
X7483000Y-8724125D01*
X7483000Y-10150700D02*
X7983000Y-10650700D01*
X7983000Y-10150700D02*
X7483000Y-10650700D01*
X9418000Y-11519550D02*
X9918000Y-12019550D01*
X9918000Y-11519550D02*
X9418000Y-12019550D01*
X9419000Y-3816975D02*
X9919000Y-4316975D01*
X9919000Y-3816975D02*
X9419000Y-4316975D01*
X9419000Y-5743550D02*
X9919000Y-6243550D01*
X9919000Y-5743550D02*
X9419000Y-6243550D01*
X9419000Y-7670125D02*
X9919000Y-8170125D01*
X9919000Y-7670125D02*
X9419000Y-8170125D01*
X9419000Y-9596700D02*
X9919000Y-10096700D01*
X9919000Y-9596700D02*
X9419000Y-10096700D01*
X11346000Y-12073550D02*
X11846000Y-12573550D01*
X11846000Y-12073550D02*
X11346000Y-12573550D01*
X11347000Y-4370975D02*
X11847000Y-4870975D01*
X11847000Y-4370975D02*
X11347000Y-4870975D01*
X11347000Y-6297550D02*
X11847000Y-6797550D01*
X11847000Y-6297550D02*
X11347000Y-6797550D01*
X11347000Y-8224125D02*
X11847000Y-8724125D01*
X11847000Y-8224125D02*
X11347000Y-8724125D01*
X11347000Y-10150700D02*
X11847000Y-10650700D01*
X11847000Y-10150700D02*
X11347000Y-10650700D01*
X13286000Y-12568300D02*
X13786000Y-13068300D01*
X13786000Y-12568300D02*
X13286000Y-13068300D01*
X13287000Y-4865725D02*
X13787000Y-5365725D01*
X13787000Y-4865725D02*
X13287000Y-5365725D01*
X13287000Y-6792300D02*
X13787000Y-7292300D01*
X13787000Y-6792300D02*
X13287000Y-7292300D01*
X13287000Y-8718875D02*
X13787000Y-9218875D01*
X13787000Y-8718875D02*
X13287000Y-9218875D01*
X13287000Y-10645450D02*
X13787000Y-11145450D01*
X13787000Y-10645450D02*
X13287000Y-11145450D01*
X15205000Y-13430300D02*
X15705000Y-13930300D01*
X15705000Y-13430300D02*
X15205000Y-13930300D01*
D11*
X3022619Y-15020476D02*
X3022619Y-14820476D01*
X3070238Y-14820476D01*
X3098809Y-14830000D01*
X3117857Y-14849048D01*
X3127381Y-14868095D01*
X3136905Y-14906190D01*
X3136905Y-14934762D01*
X3127381Y-14972857D01*
X3117857Y-14991905D01*
X3098809Y-15010952D01*
X3070238Y-15020476D01*
X3022619Y-15020476D01*
X3222619Y-15020476D02*
X3222619Y-14887143D01*
X3222619Y-14925238D02*
X3232143Y-14906190D01*
X3241667Y-14896667D01*
X3260714Y-14887143D01*
X3279762Y-14887143D01*
X3346428Y-15020476D02*
X3346428Y-14887143D01*
X3346428Y-14820476D02*
X3336905Y-14830000D01*
X3346428Y-14839524D01*
X3355952Y-14830000D01*
X3346428Y-14820476D01*
X3346428Y-14839524D01*
X3470238Y-15020476D02*
X3451190Y-15010952D01*
X3441667Y-14991905D01*
X3441667Y-14820476D01*
X3575000Y-15020476D02*
X3555952Y-15010952D01*
X3546428Y-14991905D01*
X3546428Y-14820476D01*
X3803571Y-15020476D02*
X3803571Y-14820476D01*
X3870238Y-14963333D01*
X3936905Y-14820476D01*
X3936905Y-15020476D01*
X4117857Y-15020476D02*
X4117857Y-14915714D01*
X4108333Y-14896667D01*
X4089286Y-14887143D01*
X4051190Y-14887143D01*
X4032143Y-14896667D01*
X4117857Y-15010952D02*
X4098809Y-15020476D01*
X4051190Y-15020476D01*
X4032143Y-15010952D01*
X4022619Y-14991905D01*
X4022619Y-14972857D01*
X4032143Y-14953809D01*
X4051190Y-14944286D01*
X4098809Y-14944286D01*
X4117857Y-14934762D01*
X4213095Y-14887143D02*
X4213095Y-15087143D01*
X4213095Y-14896667D02*
X4232143Y-14887143D01*
X4270238Y-14887143D01*
X4289286Y-14896667D01*
X4298810Y-14906190D01*
X4308333Y-14925238D01*
X4308333Y-14982381D01*
X4298810Y-15001428D01*
X4289286Y-15010952D01*
X4270238Y-15020476D01*
X4232143Y-15020476D01*
X4213095Y-15010952D01*
X4394048Y-15001428D02*
X4403571Y-15010952D01*
X4394048Y-15020476D01*
X4384524Y-15010952D01*
X4394048Y-15001428D01*
X4394048Y-15020476D01*
X4394048Y-14896667D02*
X4403571Y-14906190D01*
X4394048Y-14915714D01*
X4384524Y-14906190D01*
X4394048Y-14896667D01*
X4394048Y-14915714D01*
X2565000Y-15250000D02*
X2765000Y-15450000D01*
X2765000Y-15250000D02*
X2565000Y-15450000D01*
X3117857Y-15240476D02*
X3022619Y-15240476D01*
X3013095Y-15335714D01*
X3022619Y-15326190D01*
X3041667Y-15316667D01*
X3089286Y-15316667D01*
X3108333Y-15326190D01*
X3117857Y-15335714D01*
X3127381Y-15354762D01*
X3127381Y-15402381D01*
X3117857Y-15421428D01*
X3108333Y-15430952D01*
X3089286Y-15440476D01*
X3041667Y-15440476D01*
X3022619Y-15430952D01*
X3013095Y-15421428D01*
X3213095Y-15421428D02*
X3222619Y-15430952D01*
X3213095Y-15440476D01*
X3203571Y-15430952D01*
X3213095Y-15421428D01*
X3213095Y-15440476D01*
X3346428Y-15240476D02*
X3365476Y-15240476D01*
X3384524Y-15250000D01*
X3394048Y-15259524D01*
X3403571Y-15278571D01*
X3413095Y-15316667D01*
X3413095Y-15364286D01*
X3403571Y-15402381D01*
X3394048Y-15421428D01*
X3384524Y-15430952D01*
X3365476Y-15440476D01*
X3346428Y-15440476D01*
X3327381Y-15430952D01*
X3317857Y-15421428D01*
X3308333Y-15402381D01*
X3298809Y-15364286D01*
X3298809Y-15316667D01*
X3308333Y-15278571D01*
X3317857Y-15259524D01*
X3327381Y-15250000D01*
X3346428Y-15240476D01*
X3536905Y-15240476D02*
X3555952Y-15240476D01*
X3575000Y-15250000D01*
X3584524Y-15259524D01*
X3594048Y-15278571D01*
X3603571Y-15316667D01*
X3603571Y-15364286D01*
X3594048Y-15402381D01*
X3584524Y-15421428D01*
X3575000Y-15430952D01*
X3555952Y-15440476D01*
X3536905Y-15440476D01*
X3517857Y-15430952D01*
X3508333Y-15421428D01*
X3498809Y-15402381D01*
X3489286Y-15364286D01*
X3489286Y-15316667D01*
X3498809Y-15278571D01*
X3508333Y-15259524D01*
X3517857Y-15250000D01*
X3536905Y-15240476D01*
X3727381Y-15240476D02*
X3746428Y-15240476D01*
X3765476Y-15250000D01*
X3775000Y-15259524D01*
X3784524Y-15278571D01*
X3794048Y-15316667D01*
X3794048Y-15364286D01*
X3784524Y-15402381D01*
X3775000Y-15421428D01*
X3765476Y-15430952D01*
X3746428Y-15440476D01*
X3727381Y-15440476D01*
X3708333Y-15430952D01*
X3698809Y-15421428D01*
X3689286Y-15402381D01*
X3679762Y-15364286D01*
X3679762Y-15316667D01*
X3689286Y-15278571D01*
X3698809Y-15259524D01*
X3708333Y-15250000D01*
X3727381Y-15240476D01*
X3879762Y-15440476D02*
X3879762Y-15307143D01*
X3879762Y-15326190D02*
X3889286Y-15316667D01*
X3908333Y-15307143D01*
X3936905Y-15307143D01*
X3955952Y-15316667D01*
X3965476Y-15335714D01*
X3965476Y-15440476D01*
X3965476Y-15335714D02*
X3975000Y-15316667D01*
X3994048Y-15307143D01*
X4022619Y-15307143D01*
X4041667Y-15316667D01*
X4051190Y-15335714D01*
X4051190Y-15440476D01*
X4146428Y-15440476D02*
X4146428Y-15307143D01*
X4146428Y-15326190D02*
X4155952Y-15316667D01*
X4175000Y-15307143D01*
X4203571Y-15307143D01*
X4222619Y-15316667D01*
X4232143Y-15335714D01*
X4232143Y-15440476D01*
X4232143Y-15335714D02*
X4241667Y-15316667D01*
X4260714Y-15307143D01*
X4289286Y-15307143D01*
X4308333Y-15316667D01*
X4317857Y-15335714D01*
X4317857Y-15440476D01*
X4708333Y-15230952D02*
X4536905Y-15488095D01*
X4965476Y-15240476D02*
X4984524Y-15240476D01*
X5003571Y-15250000D01*
X5013095Y-15259524D01*
X5022619Y-15278571D01*
X5032143Y-15316667D01*
X5032143Y-15364286D01*
X5022619Y-15402381D01*
X5013095Y-15421428D01*
X5003571Y-15430952D01*
X4984524Y-15440476D01*
X4965476Y-15440476D01*
X4946429Y-15430952D01*
X4936905Y-15421428D01*
X4927381Y-15402381D01*
X4917857Y-15364286D01*
X4917857Y-15316667D01*
X4927381Y-15278571D01*
X4936905Y-15259524D01*
X4946429Y-15250000D01*
X4965476Y-15240476D01*
X5117857Y-15421428D02*
X5127381Y-15430952D01*
X5117857Y-15440476D01*
X5108333Y-15430952D01*
X5117857Y-15421428D01*
X5117857Y-15440476D01*
X5317857Y-15440476D02*
X5203571Y-15440476D01*
X5260714Y-15440476D02*
X5260714Y-15240476D01*
X5241667Y-15269048D01*
X5222619Y-15288095D01*
X5203571Y-15297619D01*
X5413095Y-15440476D02*
X5451190Y-15440476D01*
X5470238Y-15430952D01*
X5479762Y-15421428D01*
X5498810Y-15392857D01*
X5508333Y-15354762D01*
X5508333Y-15278571D01*
X5498810Y-15259524D01*
X5489286Y-15250000D01*
X5470238Y-15240476D01*
X5432143Y-15240476D01*
X5413095Y-15250000D01*
X5403571Y-15259524D01*
X5394048Y-15278571D01*
X5394048Y-15326190D01*
X5403571Y-15345238D01*
X5413095Y-15354762D01*
X5432143Y-15364286D01*
X5470238Y-15364286D01*
X5489286Y-15354762D01*
X5498810Y-15345238D01*
X5508333Y-15326190D01*
X5679762Y-15240476D02*
X5641667Y-15240476D01*
X5622619Y-15250000D01*
X5613095Y-15259524D01*
X5594048Y-15288095D01*
X5584524Y-15326190D01*
X5584524Y-15402381D01*
X5594048Y-15421428D01*
X5603571Y-15430952D01*
X5622619Y-15440476D01*
X5660714Y-15440476D01*
X5679762Y-15430952D01*
X5689286Y-15421428D01*
X5698809Y-15402381D01*
X5698809Y-15354762D01*
X5689286Y-15335714D01*
X5679762Y-15326190D01*
X5660714Y-15316667D01*
X5622619Y-15316667D01*
X5603571Y-15326190D01*
X5594048Y-15335714D01*
X5584524Y-15354762D01*
X5794048Y-15440476D02*
X5832143Y-15440476D01*
X5851190Y-15430952D01*
X5860714Y-15421428D01*
X5879762Y-15392857D01*
X5889286Y-15354762D01*
X5889286Y-15278571D01*
X5879762Y-15259524D01*
X5870238Y-15250000D01*
X5851190Y-15240476D01*
X5813095Y-15240476D01*
X5794048Y-15250000D01*
X5784524Y-15259524D01*
X5775000Y-15278571D01*
X5775000Y-15326190D01*
X5784524Y-15345238D01*
X5794048Y-15354762D01*
X5813095Y-15364286D01*
X5851190Y-15364286D01*
X5870238Y-15354762D01*
X5879762Y-15345238D01*
X5889286Y-15326190D01*
X5965476Y-15240476D02*
X5965476Y-15278571D01*
X6041667Y-15240476D02*
X6041667Y-15278571D01*
X6336905Y-15516667D02*
X6327381Y-15507143D01*
X6308333Y-15478571D01*
X6298809Y-15459524D01*
X6289286Y-15430952D01*
X6279762Y-15383333D01*
X6279762Y-15345238D01*
X6289286Y-15297619D01*
X6298809Y-15269048D01*
X6308333Y-15250000D01*
X6327381Y-15221428D01*
X6336905Y-15211905D01*
X6394048Y-15240476D02*
X6517857Y-15240476D01*
X6451190Y-15316667D01*
X6479762Y-15316667D01*
X6498809Y-15326190D01*
X6508333Y-15335714D01*
X6517857Y-15354762D01*
X6517857Y-15402381D01*
X6508333Y-15421428D01*
X6498809Y-15430952D01*
X6479762Y-15440476D01*
X6422619Y-15440476D01*
X6403571Y-15430952D01*
X6394048Y-15421428D01*
X6641667Y-15240476D02*
X6660714Y-15240476D01*
X6679762Y-15250000D01*
X6689286Y-15259524D01*
X6698809Y-15278571D01*
X6708333Y-15316667D01*
X6708333Y-15364286D01*
X6698809Y-15402381D01*
X6689286Y-15421428D01*
X6679762Y-15430952D01*
X6660714Y-15440476D01*
X6641667Y-15440476D01*
X6622619Y-15430952D01*
X6613095Y-15421428D01*
X6603571Y-15402381D01*
X6594048Y-15364286D01*
X6594048Y-15316667D01*
X6603571Y-15278571D01*
X6613095Y-15259524D01*
X6622619Y-15250000D01*
X6641667Y-15240476D01*
X6946428Y-15440476D02*
X6946428Y-15240476D01*
X7032143Y-15440476D02*
X7032143Y-15335714D01*
X7022619Y-15316667D01*
X7003571Y-15307143D01*
X6975000Y-15307143D01*
X6955952Y-15316667D01*
X6946428Y-15326190D01*
X7155952Y-15440476D02*
X7136905Y-15430952D01*
X7127381Y-15421428D01*
X7117857Y-15402381D01*
X7117857Y-15345238D01*
X7127381Y-15326190D01*
X7136905Y-15316667D01*
X7155952Y-15307143D01*
X7184524Y-15307143D01*
X7203571Y-15316667D01*
X7213095Y-15326190D01*
X7222619Y-15345238D01*
X7222619Y-15402381D01*
X7213095Y-15421428D01*
X7203571Y-15430952D01*
X7184524Y-15440476D01*
X7155952Y-15440476D01*
X7336905Y-15440476D02*
X7317857Y-15430952D01*
X7308333Y-15411905D01*
X7308333Y-15240476D01*
X7489286Y-15430952D02*
X7470238Y-15440476D01*
X7432143Y-15440476D01*
X7413095Y-15430952D01*
X7403571Y-15411905D01*
X7403571Y-15335714D01*
X7413095Y-15316667D01*
X7432143Y-15307143D01*
X7470238Y-15307143D01*
X7489286Y-15316667D01*
X7498809Y-15335714D01*
X7498809Y-15354762D01*
X7403571Y-15373809D01*
X7575000Y-15430952D02*
X7594048Y-15440476D01*
X7632143Y-15440476D01*
X7651190Y-15430952D01*
X7660714Y-15411905D01*
X7660714Y-15402381D01*
X7651190Y-15383333D01*
X7632143Y-15373809D01*
X7603571Y-15373809D01*
X7584524Y-15364286D01*
X7575000Y-15345238D01*
X7575000Y-15335714D01*
X7584524Y-15316667D01*
X7603571Y-15307143D01*
X7632143Y-15307143D01*
X7651190Y-15316667D01*
X7727381Y-15516667D02*
X7736905Y-15507143D01*
X7755952Y-15478571D01*
X7765476Y-15459524D01*
X7775000Y-15430952D01*
X7784524Y-15383333D01*
X7784524Y-15345238D01*
X7775000Y-15297619D01*
X7765476Y-15269048D01*
X7755952Y-15250000D01*
X7736905Y-15221428D01*
X7727381Y-15211905D01*
X8089286Y-15516667D02*
X8079762Y-15507143D01*
X8060714Y-15478571D01*
X8051190Y-15459524D01*
X8041667Y-15430952D01*
X8032143Y-15383333D01*
X8032143Y-15345238D01*
X8041667Y-15297619D01*
X8051190Y-15269048D01*
X8060714Y-15250000D01*
X8079762Y-15221428D01*
X8089286Y-15211905D01*
X8165476Y-15307143D02*
X8165476Y-15440476D01*
X8165476Y-15326190D02*
X8175000Y-15316667D01*
X8194048Y-15307143D01*
X8222619Y-15307143D01*
X8241667Y-15316667D01*
X8251190Y-15335714D01*
X8251190Y-15440476D01*
X8375000Y-15440476D02*
X8355952Y-15430952D01*
X8346428Y-15421428D01*
X8336905Y-15402381D01*
X8336905Y-15345238D01*
X8346428Y-15326190D01*
X8355952Y-15316667D01*
X8375000Y-15307143D01*
X8403571Y-15307143D01*
X8422619Y-15316667D01*
X8432143Y-15326190D01*
X8441667Y-15345238D01*
X8441667Y-15402381D01*
X8432143Y-15421428D01*
X8422619Y-15430952D01*
X8403571Y-15440476D01*
X8375000Y-15440476D01*
X8498810Y-15307143D02*
X8575000Y-15307143D01*
X8527381Y-15240476D02*
X8527381Y-15411905D01*
X8536905Y-15430952D01*
X8555952Y-15440476D01*
X8575000Y-15440476D01*
X8794048Y-15307143D02*
X8794048Y-15507143D01*
X8794048Y-15316667D02*
X8813095Y-15307143D01*
X8851190Y-15307143D01*
X8870238Y-15316667D01*
X8879762Y-15326190D01*
X8889286Y-15345238D01*
X8889286Y-15402381D01*
X8879762Y-15421428D01*
X8870238Y-15430952D01*
X8851190Y-15440476D01*
X8813095Y-15440476D01*
X8794048Y-15430952D01*
X9003571Y-15440476D02*
X8984524Y-15430952D01*
X8975000Y-15411905D01*
X8975000Y-15240476D01*
X9165476Y-15440476D02*
X9165476Y-15335714D01*
X9155952Y-15316667D01*
X9136905Y-15307143D01*
X9098810Y-15307143D01*
X9079762Y-15316667D01*
X9165476Y-15430952D02*
X9146429Y-15440476D01*
X9098810Y-15440476D01*
X9079762Y-15430952D01*
X9070238Y-15411905D01*
X9070238Y-15392857D01*
X9079762Y-15373809D01*
X9098810Y-15364286D01*
X9146429Y-15364286D01*
X9165476Y-15354762D01*
X9232143Y-15307143D02*
X9308333Y-15307143D01*
X9260714Y-15240476D02*
X9260714Y-15411905D01*
X9270238Y-15430952D01*
X9289286Y-15440476D01*
X9308333Y-15440476D01*
X9451190Y-15430952D02*
X9432143Y-15440476D01*
X9394048Y-15440476D01*
X9375000Y-15430952D01*
X9365476Y-15411905D01*
X9365476Y-15335714D01*
X9375000Y-15316667D01*
X9394048Y-15307143D01*
X9432143Y-15307143D01*
X9451190Y-15316667D01*
X9460714Y-15335714D01*
X9460714Y-15354762D01*
X9365476Y-15373809D01*
X9632143Y-15440476D02*
X9632143Y-15240476D01*
X9632143Y-15430952D02*
X9613095Y-15440476D01*
X9575000Y-15440476D01*
X9555952Y-15430952D01*
X9546429Y-15421428D01*
X9536905Y-15402381D01*
X9536905Y-15345238D01*
X9546429Y-15326190D01*
X9555952Y-15316667D01*
X9575000Y-15307143D01*
X9613095Y-15307143D01*
X9632143Y-15316667D01*
X9708333Y-15516667D02*
X9717857Y-15507143D01*
X9736905Y-15478571D01*
X9746429Y-15459524D01*
X9755952Y-15430952D01*
X9765476Y-15383333D01*
X9765476Y-15345238D01*
X9755952Y-15297619D01*
X9746429Y-15269048D01*
X9736905Y-15250000D01*
X9717857Y-15221428D01*
X9708333Y-15211905D01*
M02*
