M48
; DRILL file {KiCad (6.0.8)} date Tue Feb 14 17:54:45 2023
; FORMAT={-:-/ absolute / inch / decimal}
; #@! TF.CreationDate,2023-02-14T17:54:45+07:00
; #@! TF.GenerationSoftware,Kicad,Pcbnew,(6.0.8)
; #@! TF.FileFunction,Plated,1,2,PTH
FMAT,2
INCH
; #@! TA.AperFunction,Plated,PTH,ViaDrill
T1C0.0157
; #@! TA.AperFunction,Plated,PTH,ComponentDrill
T2C0.0315
; #@! TA.AperFunction,Plated,PTH,ComponentDrill
T3C0.0472
%
G90
G05
T1
X5.5197Y-2.3031
X5.5846Y-2.2598
X5.7874Y-2.2205
X5.8158Y-4.9401
X5.9213Y-3.2205
X5.9626Y-3.7126
X5.998Y-3.622
X6.1083Y-2.5984
X6.185Y-2.687
X6.2028Y-3.1581
X6.2577Y-2.7581
X6.2785Y-3.0581
X6.311Y-3.4035
X6.311Y-4.2087
X6.3211Y-2.8581
X6.3222Y-2.9581
X6.3648Y-2.4581
X6.4085Y-3.3071
T2
X1.9106Y-2.588
X1.9106Y-2.888
X1.9106Y-3.3458
X1.9106Y-3.6458
X1.9106Y-4.1035
X1.9106Y-4.4035
X1.9114Y-1.8302
X1.9114Y-2.1302
X2.6693Y-4.8598
X2.6693Y-5.1598
X2.6713Y-2.588
X2.6713Y-2.888
X2.6713Y-3.3458
X2.6713Y-3.6458
X2.6713Y-4.1035
X2.6713Y-4.4035
X2.6719Y-1.8302
X2.6719Y-2.1302
X3.4157Y-4.6632
X3.4157Y-4.9632
X3.4173Y-2.3913
X3.4173Y-2.6913
X3.4173Y-3.1491
X3.4173Y-3.4491
X3.4173Y-3.9069
X3.4173Y-4.2069
X3.4178Y-1.6336
X3.4178Y-1.9336
X4.1876Y-4.6374
X4.1876Y-4.9374
X4.189Y-2.3656
X4.189Y-2.6656
X4.189Y-3.1233
X4.189Y-3.4233
X4.189Y-3.8811
X4.189Y-4.1811
X4.1893Y-1.6078
X4.1893Y-1.9078
X4.9449Y-4.8713
X4.9449Y-5.1713
X4.9539Y-2.5953
X4.9539Y-2.8953
X4.9539Y-3.3531
X4.9539Y-3.6531
X4.9539Y-4.1108
X4.9539Y-4.4108
X4.9541Y-1.8375
X4.9541Y-2.1375
X5.7008Y-2.163
X5.7008Y-2.463
X5.7035Y-5.0688
X5.7035Y-5.3688
X5.7047Y-2.8695
X5.7047Y-3.1695
X5.7047Y-3.6273
X5.7047Y-3.9273
X5.7047Y-4.385
X5.7047Y-4.685
X6.1475Y-3.647
X6.1475Y-3.747
X6.4475Y-3.647
X6.4475Y-3.747
X6.4685Y-5.2043
X6.4685Y-5.5043
T3
X1.3531Y-1.829
X1.3531Y-2.5875
X1.3531Y-3.346
X1.3531Y-4.1045
X1.424Y-1.7877
X1.424Y-2.5462
X1.424Y-3.3047
X1.424Y-4.0632
X1.6287Y-1.7877
X1.6287Y-2.5462
X1.6287Y-3.3047
X1.6287Y-4.0632
X1.6996Y-1.829
X1.6996Y-2.5875
X1.6996Y-3.346
X1.6996Y-4.1045
X2.1134Y-4.8615
X2.1138Y-1.829
X2.1138Y-2.5875
X2.1138Y-3.346
X2.1138Y-4.1045
X2.1843Y-4.8202
X2.1846Y-1.7877
X2.1846Y-2.5462
X2.1846Y-3.3047
X2.1846Y-4.0632
X2.389Y-4.8202
X2.3894Y-1.7877
X2.3894Y-2.5462
X2.3894Y-3.3047
X2.3894Y-4.0632
X2.4598Y-4.8615
X2.4602Y-1.829
X2.4602Y-2.5875
X2.4602Y-3.346
X2.4602Y-4.1045
X2.8709Y-4.6668
X2.8713Y-1.6342
X2.8713Y-2.3927
X2.8713Y-3.1512
X2.8713Y-3.9097
X2.9417Y-4.6254
X2.9421Y-1.5929
X2.9421Y-2.3514
X2.9421Y-3.1099
X2.9421Y-3.8684
X3.1465Y-4.6254
X3.1469Y-1.5929
X3.1469Y-2.3514
X3.1469Y-3.1099
X3.1469Y-3.8684
X3.2173Y-4.6668
X3.2177Y-1.6342
X3.2177Y-2.3927
X3.2177Y-3.1512
X3.2177Y-3.9097
X3.6331Y-4.4486
X3.6335Y-1.4161
X3.6335Y-2.1746
X3.6335Y-2.9331
X3.6335Y-3.6916
X3.7039Y-4.4073
X3.7043Y-1.3748
X3.7043Y-2.1333
X3.7043Y-2.8918
X3.7043Y-3.6503
X3.9087Y-4.4073
X3.9091Y-1.3748
X3.9091Y-2.1333
X3.9091Y-2.8918
X3.9091Y-3.6503
X3.9795Y-4.4486
X3.9799Y-1.4161
X3.9799Y-2.1746
X3.9799Y-2.9331
X3.9799Y-3.6916
X4.3921Y-4.6668
X4.3925Y-1.6342
X4.3925Y-2.3927
X4.3925Y-3.1512
X4.3925Y-3.9097
X4.463Y-4.6254
X4.4634Y-1.5929
X4.4634Y-2.3514
X4.4634Y-3.1099
X4.4634Y-3.8684
X4.6677Y-4.6254
X4.6681Y-1.5929
X4.6681Y-2.3514
X4.6681Y-3.1099
X4.6681Y-3.8684
X4.7386Y-4.6668
X4.739Y-1.6342
X4.739Y-2.3927
X4.739Y-3.1512
X4.739Y-3.9097
X5.1559Y-4.8615
X5.1563Y-1.829
X5.1563Y-2.5875
X5.1563Y-3.346
X5.1563Y-4.1045
X5.2268Y-4.8202
X5.2272Y-1.7877
X5.2272Y-2.5462
X5.2272Y-3.3047
X5.2272Y-4.0632
X5.4315Y-4.8202
X5.4319Y-1.7877
X5.4319Y-2.5462
X5.4319Y-3.3047
X5.4319Y-4.0632
X5.5024Y-4.8615
X5.5028Y-1.829
X5.5028Y-2.5875
X5.5028Y-3.346
X5.5028Y-4.1045
X5.9114Y-5.2009
X5.9823Y-5.1596
X6.187Y-5.1596
X6.2579Y-5.2009
T0
M30
